<?xml version="1.0" encoding="UTF-8" standalone="no"?>
<svg
   xmlns:dc="http://purl.org/dc/elements/1.1/"
   xmlns:cc="http://creativecommons.org/ns#"
   xmlns:rdf="http://www.w3.org/1999/02/22-rdf-syntax-ns#"
   xmlns:svg="http://www.w3.org/2000/svg"
   xmlns="http://www.w3.org/2000/svg"
   viewBox="0 0 1066.6667 1066.6667"
   height="1066.6667"
   width="1066.6667"
   xml:space="preserve"
   id="svg2"
   version="1.1"><metadata
     id="metadata8"><rdf:RDF><cc:Work
         rdf:about=""><dc:format>image/svg+xml</dc:format><dc:type
           rdf:resource="http://purl.org/dc/dcmitype/StillImage" /></cc:Work></rdf:RDF></metadata><defs
     id="defs6" /><g
     transform="matrix(1.3333333,0,0,-1.3333333,0,1066.6667)"
     id="g10"><g
       transform="scale(0.1)"
       id="g12"><path
         id="path14"
         style="fill:#e9eae9;fill-opacity:1;fill-rule:evenodd;stroke:none"
         d="M 8000,0 H 0 V 8000 H 8000 V 0" /><path
         id="path16"
         style="fill:#211c1d;fill-opacity:1;fill-rule:evenodd;stroke:none"
         d="m 3062.7,2518.04 c 2.12,-12.75 13.8,-52.58 13.8,-52.58 0,0 20.19,3.72 45.15,6.91 24.97,3.18 35.06,14.33 40.37,22.83 5.31,8.5 43.56,251.76 45.68,293.19 2.12,41.43 -38.24,139.15 -64.8,195.99 -26.55,56.83 -62.67,137.03 -63.73,130.66 -1.06,-6.38 -14.34,-35.06 -10.62,-41.97 3.71,-6.9 14.87,-28.15 13.81,-30.8 -1.07,-2.66 -1.6,1.06 -2.13,-5.31 -0.53,-6.37 -7.97,-38.77 -11.15,-60.55 -3.19,-21.78 -17,-108.88 -15.94,-138.63 1.07,-29.74 24.43,-107.29 29.74,-129.6 5.32,-22.3 27.63,-168.37 27.09,-174.21 -0.53,-5.84 -19.65,-13.81 -28.15,-16.46 -8.49,-2.66 -19.12,0.53 -19.12,0.53 z m -739.75,200.66 c -16.47,53.11 -15.68,105.96 -17.27,112.07 -1.59,6.1 3.18,15.93 4.51,18.05 1.33,2.13 147.92,228.65 181.91,273.8 34,45.15 54.18,97.72 79.67,117.38 25.5,19.65 68.52,21.24 68.52,21.24 0,0 -4.25,107.29 10.62,235.82 14.87,128.54 41.43,186.97 82.86,219.89 41.43,32.93 95.07,18.86 101.18,19.39 6.11,0.53 33.46,-0.91 50.99,-7.23 17.53,-6.31 51.54,-63.07 68,-132.65 16.46,-69.57 4.51,-177.21 25.23,-224.48 20.71,-47.27 56.83,-53.11 61.61,-53.65 4.78,-0.53 40.37,-2.66 71.71,-28.15 31.34,-25.49 70.64,-178.46 88.16,-214.05 17.53,-35.58 101.98,-224.67 102.51,-246.98 0.53,-22.3 -9.56,-40.9 -11.68,-55.23 -2.13,-14.35 -61.61,-301.69 -63.2,-319.22 -1.6,-17.53 -23.37,-43.55 -43.56,-52.58 -20.18,-9.03 -21.77,-10.1 -24.43,-14.87 -2.65,-4.78 -12.62,-17.13 -12.88,-18.33 -0.27,-1.19 -3.58,-11.55 -5.98,-15.4 -2.39,-3.85 -2.92,-4.65 -3.18,-7.57 -0.27,-2.92 0.39,-11.82 -3.72,-17.13 -4.12,-5.31 -11.29,-2.66 -11.82,1.86 -0.53,4.51 1.6,35.45 2.39,38.64 0.8,3.19 10.09,28.42 10.09,28.42 0,0 -6.9,-12.22 -14.07,-17.8 -7.17,-5.58 -9.3,-7.7 -9.3,-7.7 0,0 0.8,-19.91 -1.59,-31.6 -2.39,-11.69 -12.88,-9.84 -12.88,-9.84 0,-8.5 27.62,-322.93 40.37,-378.17 12.75,-55.24 37.18,-99.85 41.43,-114.72 4.25,-14.88 154.03,-617.18 171.02,-667.1 17,-49.93 35.06,-73.3 27.09,-79.14 -7.96,-5.85 -54.71,-45.68 -54.71,-45.68 0,0 5.05,-30.28 -4.51,-54.978 -9.56,-24.692 -18.06,-29.742 -18.59,-32.391 -0.53,-2.66 -6.37,-10.629 -9.03,-12.75 -2.65,-2.129 -77.81,-7.172 -94.8,-1.859 -17,5.308 -14.88,17.527 -14.88,17.527 0,0 -2.65,20.18 -2.65,25.492 0,5.309 -1.59,5.848 -1.59,5.848 0,0 -43.03,4.781 -71.71,16.461 -28.68,11.69 -45.68,37.19 -45.68,37.19 0,0 -47.26,488.64 -62.14,585.31 -14.87,96.66 -58.42,277.26 -80.73,363.3 -22.3,86.05 -95.6,313.91 -105.69,329.31 -10.09,15.4 -22.31,14.87 -26.02,7.44 -3.72,-7.44 -45.15,-277.25 -51.53,-346.3 -6.37,-69.05 -19.11,-174.21 -18.05,-180.58 1.06,-6.38 -13.29,-706.94 -9.57,-744.65 3.72,-37.71 3.72,-38.77 -2.12,-45.15 -5.85,-6.37 -14.88,-10.62 -14.34,-13.81 0.53,-3.181 16.46,-27.619 10.09,-44.611 -6.38,-17 -70.11,-13.277 -100.39,-13.277 -30.27,0 -40.36,26.558 -41.96,30.808 -1.59,4.25 -4.78,14.34 -5.84,21.77 -1.06,7.44 -0.53,10.63 -0.53,10.63 0,0 -50.99,-6.911 -109.42,18.58 -58.42,25.5 -71.17,45.68 -71.17,45.68 0,0 120.03,694.73 122.16,837.07 2.12,142.34 24.43,438.19 26.02,469 1.59,30.8 0.53,32.4 0.53,32.4 0,0 -3.18,0.26 -4.25,9.82 -1.06,9.56 -1.59,22.58 -1.59,22.58 0,0 -1.2,-10.37 -5.58,-13.55 -4.38,-3.19 -8.1,-3.46 -9.83,-1.2 -1.73,2.26 -3.32,12.62 -3.32,13.55 0,0.93 0.4,32.93 -3.32,35.85 -3.72,2.92 -11.15,10.09 -12.21,11.42 -1.07,1.33 -41.96,-3.99 -61.88,4.25 -19.92,8.23 -24.97,36.38 -26.03,37.97 -1.06,1.6 -50.99,135.44 -67.45,188.56 z m 297.32,61.19 c 35.06,43.55 44.62,61.6 48.87,72.23 4.25,10.62 9.56,11.69 7.43,19.12 -2.12,7.44 5.31,50.99 4.25,70.11 -1.06,19.12 -19.12,67.99 -24.96,95.61 -5.84,27.61 -8.5,38.77 -10.09,41.42 -1.6,2.66 -20.72,9.57 -29.74,7.44 -9.04,-2.13 -159.88,-189.62 -187.5,-225.74 -27.62,-36.11 -30.8,-33.99 -31.87,-62.67 -1.06,-28.68 38.24,-191.21 45.68,-212.98 7.44,-21.78 10.63,-24.96 10.63,-24.96 0,0 33.72,3.98 48.86,7.43 15.14,3.45 26.02,5.58 30.54,5.58 4.51,0 9.83,-0.81 9.83,-0.81 1.06,5.85 5.31,22.31 5.31,22.31 0,0 -10.09,7.97 -9.57,10.62 0.54,2.66 47.28,131.73 82.33,175.29 v 0" /><path
         id="path18"
         style="fill:#211c1d;fill-opacity:1;fill-rule:evenodd;stroke:none"
         d="m 6794.1,5364.28 c 0,0 -6.41,-1.17 -8.74,-3.21 0,0 -4.08,-8.74 -4.37,-10.2 -0.29,-1.46 -2.04,-15.44 -0.87,-30.3 1.16,-14.86 -1.17,-34.39 -1.17,-34.39 0,0 16.32,12.24 17.48,23.61 1.17,11.36 4.96,30.59 4.37,34.09 -0.58,3.5 -6.7,20.4 -6.7,20.4 z m -829.12,-130.25 c 0.87,3.64 3.35,19.23 3.06,23.02 0,0 -3.65,0.15 -5.25,-3.64 -1.6,-3.79 -1.46,-13.11 -1.16,-17.63 0.29,-4.52 2.47,-5.39 3.35,-1.75 z m 255.21,300.26 c -1.16,33.21 37.3,300.12 31.47,357.23 -5.83,57.12 -31.47,160.84 -31.47,160.84 0,0 -7.57,-40.21 -9.32,-65.27 -1.75,-25.06 -11.08,-76.93 -10.49,-84.51 0.58,-7.57 -3.5,-15.15 -7.58,-47.79 -4.08,-32.63 -13.4,-45.45 -27.39,-85.66 l -79.84,-230.21 c 0,0 -1.17,-2.91 -1.46,-7.87 -0.29,-4.95 -13.4,-1.74 -14.86,-1.74 -1.46,0 -3.21,-2.63 -4.67,-7.87 -1.45,-5.25 -40.78,-108.98 -44.86,-121.8 -4.08,-12.82 -0.59,-42.55 4.08,-78.09 4.65,-35.55 -24.19,-74.02 -27.1,-83.05 -2.92,-9.03 -5.1,-29.58 -5.1,-29.58 0,0 6.26,-0.15 11.51,-3.06 5.25,-2.92 4.95,-4.81 5.68,-5.98 0.73,-1.16 4.08,0.15 4.37,-3.64 0.3,-3.79 -20.25,-7.58 -20.25,-7.58 0,0 6.7,-0.14 13.4,-1.16 6.71,-1.02 10.64,0.14 13.99,-3.21 3.35,-3.35 2.63,-5.39 2.63,-5.39 0,0 2.18,-0.29 3.05,-1.75 0.88,-1.46 -8.88,-6.12 -8.88,-6.12 0,0 2.77,-1.45 5.68,-4.22 2.91,-2.77 0.73,-6.99 1.46,-8.02 0.72,-1.02 2.91,-2.91 -2.34,-4.95 -5.24,-2.04 -48.81,-0.87 -48.81,-0.87 0,0 1.9,-2.92 7,-7.58 5.1,-4.66 5.68,-9.47 6.84,-12.82 1.17,-3.35 -1.46,-7.87 -1.75,-8.89 -0.29,-1.02 2.19,-3.06 -0.73,-5.39 -2.91,-2.33 -60.6,42.84 -60.6,42.84 0,0 -18.65,72.26 -16.32,90.91 2.33,18.65 41.96,81.59 48.95,104.9 7,23.31 11.66,41.96 16.32,76.92 4.66,34.97 13.41,115.4 13.41,115.4 0,0 -7.58,15.73 -7.58,18.64 0,2.92 -16.32,17.49 -19.23,22.73 -2.92,5.24 42.54,134.03 49.53,173.66 7,39.63 33.8,116.56 38.46,136.37 4.67,19.82 4.67,48.96 12.82,79.26 8.16,30.3 1.17,60.61 11.66,88.58 10.49,27.97 6.41,68.77 6.99,81.59 0.58,12.82 -0.58,26.23 0,48.95 0.58,22.73 4.66,33.22 9.91,57.7 5.24,24.47 2.32,82.16 5.24,95.57 2.91,13.4 16.9,23.89 31.47,32.05 14.57,8.16 37.29,18.66 37.29,18.66 0,0 24.48,31.47 29.14,68.77 4.66,37.29 -10.49,48.95 4.66,87.41 15.15,38.47 24.48,37.3 45.46,110.73 20.98,73.43 12.82,196.97 64.11,236.6 51.28,39.63 92.07,21.56 94.4,18.65 2.33,-2.92 75.76,0 119.47,-43.13 43.71,-43.12 40.21,-99.07 39.63,-120.05 -0.59,-20.98 12.24,-36.72 16.9,-80.42 4.66,-43.71 -23.9,-94.42 -20.99,-126.47 2.92,-32.05 36.14,-92.66 41.96,-97.32 0,0 34.87,-18.31 55.85,-21.8 20.98,-3.5 48.95,0 67.6,-13.99 18.65,-13.99 22.15,-54.78 34.97,-111.89 12.82,-57.11 36.11,-247.12 38.45,-257.61 2.33,-10.49 -1.17,-75.76 -2.34,-97.91 -1.16,-22.14 20.98,-113.05 23.32,-150.35 2.33,-37.3 1.16,-62.94 9.32,-89.75 8.16,-26.81 41.95,-141.63 41.95,-141.63 l -39.04,-18.07 c 0,0 1.16,-21.56 5.24,-41.95 4.08,-20.4 5.83,-36.72 9.33,-65.28 3.49,-28.55 11.93,-82.47 11.93,-82.47 0,0 1.74,-8.74 3.78,-14.86 2.05,-6.12 -2.04,-14.28 -8.74,-25.93 -6.7,-11.66 -27.98,-58.57 -32.35,-61.2 -4.37,-2.62 -34.97,-18.94 -39.34,-20.39 -4.37,-1.46 -14.28,-1.17 -22.15,-2.92 -7.86,-1.75 -20.68,0.88 -20.97,6.7 -0.3,5.83 5.24,8.46 6.41,10.5 1.16,2.04 11.36,5.24 13.69,6.11 2.33,0.88 7.87,6.7 7.87,6.7 l -10.2,7.87 c -4.95,3.79 -0.58,22.43 0.29,34.38 0.88,11.95 6.7,75.76 6.12,100.24 -0.58,24.47 13.41,44.29 15.15,50.7 1.75,6.41 3.5,46.62 3.5,46.62 0,0 -4.08,2.91 -8.74,6.41 -4.66,3.5 -25.07,61.77 -25.07,61.77 0,0 6.99,-50.12 9.33,-59.44 2.33,-9.33 -46.63,-2.34 -46.63,-2.34 0,0 3.5,-12.81 1.17,-83.91 -2.33,-71.1 -41.96,-242.44 -43.13,-250.6 -1.17,-8.15 48.95,-193.49 65.26,-256.43 16.32,-62.94 -17.48,-233.11 -17.48,-233.11 l 15.15,-5.82 c 0,0 8.16,-11.66 10.49,-52.45 2.33,-40.8 60.6,-440.59 60.6,-440.59 0,0 10.48,-13.99 22.14,-78.09 11.66,-64.1 12.82,-123.55 47.79,-192.31 34.96,-68.77 63.51,-55.96 69.05,-64.99 5.53,-9.03 0.58,-26.23 0.58,-27.68 0,-1.46 0.29,-2.33 0.29,-4.96 0,-2.62 -4.08,-4.95 -24.77,-6.41 -20.69,-1.45 -142.78,8.16 -142.78,8.16 0,0 -13.11,10.2 -22.15,26.23 -9.03,16.02 -18.35,49.24 -18.35,49.24 0,0 -5.54,-42.25 -7.87,-45.17 -2.33,-2.91 -24.77,-1.16 -28.27,0 -3.5,1.17 -3.5,21.56 -9.32,64.11 -5.83,42.54 -18.07,80.42 -20.4,101.4 -2.33,20.98 5.24,43.71 5.24,43.71 0,0 -0.58,10.49 -2.91,18.65 -2.33,8.16 -6.99,38.46 -12.24,58.28 -5.25,19.81 -131.42,533.52 -132,535.27 -0.58,1.75 13.4,8.74 13.4,8.74 0,0 1.46,1.17 0.29,8.16 -1.16,6.99 -7.87,134.33 -7.87,134.33 0,0 -8.74,-22.15 -22.72,-57.11 -13.99,-34.97 -60.03,-113.65 -60.03,-113.65 0,0 -0.59,-13.98 4.66,-18.65 5.24,-4.66 0.58,-11.07 -9.91,-25.64 -10.49,-14.57 -141.61,-186.48 -163.76,-233.11 -22.15,-46.62 -53.61,-62.93 -61.77,-115.38 -8.16,-52.46 -43.72,-97.92 -43.72,-97.92 0,0 -6.41,-16.9 -5.82,-35.55 0.58,-18.65 -16.9,-45.46 -26.23,-75.18 -9.33,-29.72 4.66,-93.85 5.82,-96.76 1.17,-2.91 51.87,-51.29 61.77,-63.52 9.91,-12.24 1.75,-19.23 1.75,-19.23 0,0 2.34,-4.08 2.34,-9.33 0,-5.25 -9.91,-8.74 -57.12,-4.08 -47.2,4.66 -92.08,24.48 -100.82,34.38 -8.74,9.91 -6.41,26.23 -8.16,62.36 -1.75,36.13 -29.72,108.98 -36.13,106.07 -6.41,-2.92 -38.18,-91.5 -42.55,-94.12 -4.37,-2.63 -20.1,7.28 -22.14,11.07 -2.04,3.79 -0.29,6.41 2.62,16.03 2.91,9.61 20.69,97.32 23.02,128.79 2.33,31.47 16.31,50.12 34.96,75.76 18.65,25.64 19.82,30.31 32.64,57.11 12.82,26.81 32.63,76.93 60.61,156.19 27.97,79.25 144.52,295.46 150.93,304.78 6.41,9.33 8.74,15.74 12.82,25.06 4.08,9.33 22.73,8.74 22.73,8.74 l 18.64,12.23 c 0,0 25.64,36.13 38.46,53.62 12.82,17.48 26.81,76.92 30.3,138.7 3.5,61.77 23.31,197.55 20.98,203.96 -2.34,6.41 -73.44,179.49 -103.74,218.54 -30.3,39.04 -36.13,87.41 -36.13,87.41 0,0 -25.64,0 -29.72,-1.16 -4.08,-1.17 -1.17,30.89 -2.34,64.11 v 0" /><path
         id="path20"
         style="fill:#211c1d;fill-opacity:1;fill-rule:evenodd;stroke:none"
         d="m 6850.61,2624.66 c 2.44,-1.95 3.43,-0.25 1.3,2.87 -2.13,3.12 -6.82,9.32 -9.82,10.99 -3,1.66 -5.32,-0.3 -5.32,-0.3 1.75,-2.64 11.39,-11.62 13.84,-13.56 z m -676.78,523.49 c 1.04,1.75 2.09,3.5 3.16,5.24 l 0.37,0.6 1.4,2.25 0.22,0.36 1.45,2.28 0.18,0.29 0.3,0.46 1.27,1.97 0.19,0.29 0.18,0.27 1.36,2.07 0.25,0.37 0.04,0.06 0.22,0.34 1.45,2.15 v 0.01 l 0.09,0.13 0.17,0.25 1.43,2.1 0.23,0.33 0.22,0.32 1.49,2.14 0.34,0.49 1.33,1.88 0.57,0.81 1.46,2.04 0.18,0.24 0.23,0.32 1.31,1.81 0.67,0.9 1.25,1.71 0.74,0.98 1.06,1.42 0.82,1.08 1.25,1.66 0.33,0.43 0.57,0.74 0.91,1.17 0.1,0.13 0.62,0.8 0.18,0.23 0.91,1.16 0.22,0.29 0.69,0.87 0.91,1.15 0.76,0.96 0.15,0.19 0.91,1.14 0.92,1.13 v 0 l 0.92,1.13 0.92,1.13 0.7,0.85 0.21,0.27 0.93,1.11 0.86,1.05 0.05,0.06 0.93,1.11 0.92,1.09 0.92,1.1 0.09,0.1 0.83,0.98 0.93,1.08 0.01,0.02 0.91,1.06 0.92,1.07 0.87,1.01 0.06,0.06 0.92,1.05 1.84,2.1 0.93,1.04 0.92,1.03 0.92,1.03 0.09,0.11 0.83,0.91 0.91,1.02 0.89,0.97 0.03,0.03 0.91,1.01 c 22.59,24.64 43.85,43.22 55.58,51.32 21.88,15.07 30.63,18.47 30.63,20.9 0,2.43 -3.4,4.86 7.29,15.56 10.7,10.69 24.89,24.72 24.89,24.72 4.86,12.64 6.81,61.25 3.89,73.89 -2.91,12.64 -34.03,30.14 -38.89,96.26 -4.86,66.12 -21.39,112.79 11.67,145.84 33.06,33.06 87.51,37.92 87.51,37.92 0,0 12.64,17.51 55.42,21.4 42.78,3.89 91.39,-55.42 98.2,-86.54 6.8,-31.11 7.78,-62.22 27.22,-82.64 19.45,-20.42 -3.89,-52.51 0.97,-80.71 4.86,-28.19 -0.97,-29.16 11.67,-64.16 12.64,-35.01 -17.5,-53.48 -13.61,-73.9 3.89,-20.42 18.48,-37.43 22.37,-67.09 3.88,-29.65 -10.21,-41.32 -9.24,-56.39 2.58,-40.01 65.88,-102.71 69.03,-155.57 1.94,-32.57 -28.69,-147.79 -28.69,-155.56 0,-4.39 10.22,-28.58 22.08,-58.78 3.89,-4.82 6.7,-8.25 6.7,-8.25 0,0 47.06,-48.37 68.08,-68.96 21.02,-20.59 33.66,-30.45 50.23,-42.19 16.57,-11.73 74.95,-32.75 86.06,-43.81 11.11,-11.06 35.96,-68.14 35.96,-68.14 0,0 -14.72,-59.32 -17.84,-59.29 -3.11,0.04 -2.53,2.65 -3.25,3.17 -0.71,0.52 -4.75,2.15 -5.71,4.95 -0.95,2.8 -3.04,6.26 -2.08,11.94 0.96,5.68 0.7,8.57 0.7,8.57 0,0 -28.03,-23.14 -32.53,-24.49 -4.5,-1.36 -4.03,1.01 -4.08,2.06 -0.04,1.04 -3.65,2.7 -3.15,6.01 0.49,3.32 1.56,5.7 1.56,5.7 0,0 -8.81,-1.95 -8.98,-0.54 -0.18,1.4 1.11,2.72 1.11,2.72 0,0 -1.53,0.96 -1.05,4.89 0.49,3.92 3.67,5.17 7.55,9.29 3.88,4.11 8.22,7.65 8.22,7.65 0,0 -15.46,-8.06 -17.21,-5.42 -1.76,2.64 1.12,3.5 1,4.64 -0.12,1.14 -1.28,2.23 0.67,6.84 1.95,4.61 5.99,7.93 5.99,7.93 0,0 -11.99,12.38 -18.54,16.83 -6.56,4.44 -45.27,14.91 -60.47,40.67 -15.19,25.76 -28.16,47.09 -37.42,53.42 -2.77,1.89 -11.75,7.49 -23.09,14.48 60.27,-170.99 317.32,-865.88 332.3,-898.49 16.53,-35.97 27.22,-47.64 20.42,-55.42 -6.81,-7.78 -102.09,-50.56 -111.82,-51.53 -9.72,-0.97 -19.44,12.64 -28.19,11.67 -8.75,-0.98 -12.64,-16.53 -50.56,-25.28 -37.92,-8.75 -104.04,-10.7 -104.04,-10.7 0,0 -8.75,-135.15 -35,-246.96 -26.26,-111.81 -35.02,-240.16 -31.62,-270.78 3.41,-30.63 4.87,-26.25 11.18,-64.17 6.32,-37.92 19.94,-81.19 21.88,-83.62 1.94,-2.43 39.38,-24.791 44,-36.948 4.61,-12.152 -2.19,-29.89 -5.59,-36.222 -3.41,-6.321 -93.35,-10.438 -111.82,-5.828 -18.48,4.617 -20.18,12.636 -20.18,16.046 0,3.403 0,34.274 -8.75,59.072 -8.75,24.79 -26.25,45.69 -26.25,45.69 0,0 -2.19,-106.711 -5.84,-107.918 -3.64,-1.211 -13.12,-1.461 -13.36,0.727 -0.25,2.191 0.47,104.281 -8.28,134.911 -8.75,30.62 -21.87,39.86 -16.04,72.43 5.83,32.57 22.36,59.31 26.74,60.28 4.38,0.98 23.81,51.06 23.81,169.68 0,118.62 -5.83,218.76 -7.78,242.1 -1.94,23.33 -1.94,32.08 -1.94,32.08 0,0 -55.42,-12.64 -70,-8.75 -14.59,3.89 -34.04,13.62 -34.04,13.62 0,0 -16.52,-9.73 -27.22,-14.59 -10.7,-4.86 -14.58,-5.83 -14.58,-5.83 0,0 -21.4,-303.36 -9.73,-360.72 11.67,-57.36 33.06,-89.45 32.08,-124.45 -0.97,-35.01 6.81,-70.98 12.64,-86.54 5.84,-15.56 14.09,-52.01 17.98,-55.9 3.89,-3.89 16.05,-24.8 16.53,-46.669 0.49,-21.883 -12.64,-34.519 -18.47,-36.473 -5.84,-1.937 -111.33,-7.769 -118.62,7.301 -7.3,15.071 -5.35,59.791 -6.81,76.321 -1.46,16.53 -27.71,90.91 -22.85,130.78 4.86,39.86 13.61,25.28 13.61,61.25 0,35.98 1.94,52.51 -2.92,80.7 -4.86,28.2 -43.76,190.58 -56.4,270.31 -12.64,79.73 -16.53,99.17 -16.53,99.17 0,0 -23.34,-15.55 -64.17,-8.75 -40.84,6.81 -47.64,27.23 -69.03,22.37 -21.39,-4.86 -35.98,-11.67 -58.34,-7.78 -22.37,3.89 -26.25,10.7 -35.98,10.7 -9.72,0 -70.98,2.92 -108.9,15.56 -37.92,12.64 -72.92,38.89 -71.95,43.75 0.97,4.86 335.43,796.32 385.99,876.05 50.56,79.72 67.08,113.75 67.08,113.75 -149.23,18.02 -209.47,57.12 -288.77,90.43 -22.18,9.32 -27.16,20.42 -26.19,32.08 0.97,11.67 7.72,79.74 53.41,149.74 45.7,70.01 61.26,80.71 96.26,140.02 z m 165.77,-333.98 8.76,11.66 c 0,0 -4.87,14.59 -11.67,30.15 -6.81,15.55 -9.73,18.47 -14.59,33.05 -4.86,14.59 -9.72,21.39 -17.5,40.84 -7.78,19.45 -9.72,37.92 -9.72,37.92 0,0 -32.09,66.11 -34.03,80.7 l -2.44,9.24 c 0,0 -18.95,-31.12 -30.86,-44.97 -11.91,-13.86 -75.11,-108.17 -75.11,-108.17 0,0 23.33,-11.67 70.98,-37.43 47.64,-25.77 116.18,-52.99 116.18,-52.99 v 0" /><path
         id="path22"
         style="fill:#211c1d;fill-opacity:1;fill-rule:evenodd;stroke:none"
         d="m 3894.33,2855.68 c -12.02,43.69 -33.86,170.37 -40.41,210.78 0,0 -6,-13.09 -9.28,-41.49 -3.28,-28.39 -9.83,-39.31 -14.2,-73.17 -4.37,-33.86 -9.83,-66.62 -9.83,-80.82 0,-14.2 -3.27,-16.38 3.28,-46.96 6.55,-30.58 -7.1,-78.65 -7.1,-78.65 0,0 -5.46,-24.57 1.09,-40.41 6.55,-15.84 6.01,-50.24 7.1,-69.9 1.09,-19.66 28.4,-58.43 30.04,-61.7 1.63,-3.28 9.28,12.01 14.74,31.12 5.46,19.11 34.67,92.56 36.03,99.39 1.37,6.82 6.01,60.07 7.11,67.71 1.09,7.64 -6.56,40.41 -18.57,84.1 z m 583.35,418.58 c -1.09,-0.68 -0.54,-13.51 0.96,-18.29 1.5,-4.78 10.24,-3.28 11.2,1.09 0.95,4.37 -6.15,12.29 -7.79,14.47 0,0 -3.27,3.42 -4.37,2.73 z m -87.05,-37.8 c 16.39,-9.83 26.76,-21.84 26.76,-21.84 l 20.75,30.3 c 4.65,6.83 6.28,11.47 6.28,11.47 l -10.64,3.28 c 0,0 -12.84,-1.09 -13.11,1.64 -0.27,2.73 5.19,8.73 5.73,10.1 l 3.28,8.19 c 0,0 -1.91,9.56 -0.55,11.47 1.37,1.91 22.94,25.39 25.13,27.31 2.18,1.91 -2.73,5.46 -3.28,8.73 -0.55,3.28 2.46,7.38 5.19,7.38 2.73,0 16.11,1.09 16.11,1.09 0,0 1.64,5.73 6.28,4.91 4.64,-0.82 44.23,-12.56 48.87,-16.65 4.64,-4.1 9.56,-41.78 12.01,-45.87 2.46,-4.1 12.57,-28.67 8.2,-41.5 -4.37,-12.84 -57.34,-59.8 -57.34,-59.8 0,0 -10.91,-19.65 -10.36,-28.39 0.54,-8.74 7.1,-18.03 9.83,-21.3 2.73,-3.28 1.09,-12.01 -0.55,-22.39 -1.64,-10.38 -24.57,-173.11 -25.66,-213.52 -1.09,-40.41 -19.66,-61.16 -21.84,-85.19 -2.18,-24.02 0,-29.48 -7.65,-43.68 -7.64,-14.2 -42.59,-37.14 -42.59,-37.14 l -33.85,-16.93 c 0,0 11.47,-32.21 21.84,-62.25 10.38,-30.03 26.76,-131.6 34.95,-147.99 8.2,-16.38 11.47,-22.93 9.29,-26.21 -2.18,-3.27 -16.93,-24.02 -16.93,-24.02 0,0 -8.19,-212.43 -30.03,-315.09 -21.84,-102.66 -28.4,-191.13 -27.3,-221.71 1.09,-30.58 6.55,-52.42 5.46,-67.71 -1.1,-15.29 -8.74,-37.13 -8.74,-37.13 0,0 24.03,-3.28 24.03,-12.02 0,-8.74 -17.47,-131.05 -24.02,-140.34 -6.55,-9.28 -9.83,-10.92 -9.83,-13.65 0,-2.73 -93.37,-355.49 -93.37,-374.06 0,-18.56 1.09,-28.4 -7.65,-43.68 -8.74,-15.29 -14.2,-22.94 -15.29,-34.95 -1.09,-12.02 -9.83,-26.22 -10.92,-42.6 -1.09,-16.38 -1.09,-21.84 -1.09,-36.04 0,-14.2 -9.28,-83.55 -7.65,-94.47 1.64,-10.92 1.64,-36.589 0,-52.968 -1.63,-16.383 -144.71,-24.031 -152.35,-16.929 -7.65,7.097 -2.73,18.566 -2.73,21.296 0,2.731 5.46,45.871 9.28,58.431 3.82,12.56 26.76,48.07 33.31,98.31 6.55,50.24 14.2,140.89 16.38,161.64 2.19,20.75 45.32,413.39 49.15,440.14 3.82,26.76 1.09,66.63 7.64,71 6.56,4.36 11.47,6.55 11.47,6.55 0,0 -8.19,41.51 -6.01,80.83 2.19,39.31 -1.09,77.54 -2.18,131.05 -1.09,53.52 -4.37,124.51 -5.46,136.52 -1.09,12.02 -3.28,180.21 -17.48,179.12 -14.19,-1.09 -26.21,-24.03 -31.67,-31.67 -5.46,-7.65 -95.01,-182.39 -100.48,-221.7 -5.46,-39.32 -27.3,-85.19 -43.68,-139.8 -16.38,-54.61 -14.2,-67.71 -28.4,-97.2 -14.19,-29.49 -13.1,-39.32 -28.39,-55.7 -15.29,-16.39 -21.85,-33.86 -21.85,-33.86 0,0 6.56,-10.37 1.1,-24.57 -5.46,-14.2 -24.57,-42.59 -28.39,-59.52 -3.83,-16.93 -124.51,-345.66 -136.52,-375.15 -12.01,-29.49 -20.75,-41.51 -18.57,-46.97 2.19,-5.46 -15.29,-69.9 -26.21,-109.21 -10.92,-39.32 -17.47,-44.78 -17.47,-75.36 0,-30.58 -5.46,-57.88 -12.02,-75.361 -6.55,-17.481 -1.09,-14.199 -5.46,-24.027 -4.37,-9.832 -118.5,-7.102 -129.42,-3.821 -10.92,3.278 -6.55,13.11 -6.55,15.84 0,2.731 -2.73,22.93 -1.09,32.219 1.63,9.28 61.7,80.27 71.53,145.8 9.84,65.53 17.48,149.63 17.48,149.63 0,0 108.12,467.44 119.04,503.48 10.93,36.04 8.74,45.87 22.94,43.69 14.2,-2.19 19.66,-3.28 19.66,-3.28 0,0 36.04,150.72 38.23,169.29 2.18,18.56 23.2,252.83 31.94,311.81 8.74,58.98 16.38,87.37 16.38,87.37 0,0 -34.94,22.4 -40.95,33.32 -6.01,10.92 -6.55,10.92 -10.37,13.65 -3.83,2.73 -14.2,4.91 -16.93,10.92 -2.73,6.01 -6.56,6.55 -4.92,19.66 1.64,13.11 -16.93,44.79 -28.94,63.35 -12.01,18.57 -10.92,31.67 -19.66,40.41 -8.74,8.74 -19.66,25.12 -25.12,33.86 -5.46,8.73 -26.21,95.02 -25.12,125.6 1.1,30.58 52.43,371.35 64.44,440.15 12.02,68.81 43.69,150.72 70.99,160.55 27.31,9.83 87.83,14.36 87.83,14.36 17.47,43.69 62.25,45.87 67.71,80.82 5.46,34.95 -3.28,61.16 9.83,80.82 13.1,19.66 8.19,50.24 18.57,72.09 10.37,21.84 9.83,36.59 9.83,55.7 0,19.11 15.29,95.57 55.7,128.33 40.41,32.77 85.19,26.21 116.86,22.94 31.67,-3.28 64.44,-9.83 85.19,-32.77 20.75,-22.93 6.55,-65.53 34.95,-109.21 28.39,-43.69 30.58,-63.35 31.67,-93.93 1.09,-30.58 -34.95,-81.91 -17.47,-122.32 17.47,-40.41 24.03,-28.4 28.4,-76.45 4.36,-48.06 2.18,-101.57 2.18,-101.57 0,0 36.05,-25.12 52.43,-34.95 v 0" /><path
         id="path24"
         style="fill:#211c1d;fill-opacity:1;fill-rule:evenodd;stroke:none"
         d="m 1799.95,2126.37 c -0.83,43.09 -33.15,186.47 -33.15,186.47 0.3,-1.32 -12.7,-4.19 -18.09,-5.44 -5.39,-1.24 -19.89,42.69 -22.38,43.93 -2.48,1.24 -20.3,-39.78 -25.28,-53.87 -4.97,-14.09 -32.32,-2.07 -37.7,-3.32 -5.39,-1.24 -6.63,-9.94 -12.44,-26.93 -5.8,-16.99 -41.44,-133.85 -77.08,-189.38 -35.63,-55.53 -67.95,-232.89 -67.95,-232.89 l 5.8,-12.43 c 0,0 -2.49,-14.09 -16.58,-42.27 -14.09,-28.18 -145.04,-364.66 -150.84,-386.21 -5.8,-21.55 -18.23,-57.19 -26.52,-72.11 -8.29,-14.91 -9.12,-12.43 -14.92,-33.98 -5.8,-21.55 -19.47,-61.33 -22.38,-65.89 -2.9,-4.55 -3.73,-12.84 -3.31,-29.83 0.41,-16.99 0,-80.4 0,-80.4 0,0 3.1,-6.42 5.59,-11.19 2.49,-4.76 3.32,-5.59 2.69,-12.22 -0.62,-6.63 -1.24,-53.87 -1.66,-57.6 -0.41,-3.73 -7.87,-44.341 -7.87,-44.341 0,0 -0.42,-10.778 2.07,-13.68 2.49,-2.898 2.49,-23.199 2.07,-28.18 -0.41,-4.968 0.42,-9.937 -10.36,-12.429 -10.77,-2.481 -118.1,4.562 -123.49,5.812 -5.38,1.238 -2.07,16.567 -3.31,25.27 -1.24,8.707 4.56,14.508 4.56,14.508 0,0 3.72,17.4 4.14,20.3 0.41,2.9 -0.42,10.36 -3.73,27.77 -3.32,17.4 2.07,39.37 5.39,58.43 3.31,19.06 14.5,112.71 14.5,112.71 0,0 -2.49,9.11 -4.15,31.49 -1.65,22.38 4.15,59.67 4.98,71.28 0.83,11.6 7.46,10.77 11.6,22.37 4.14,11.61 4.14,32.33 9.12,67.96 4.97,35.64 109.39,472.4 112.71,480.69 3.31,8.29 32.32,-2.07 32.32,-2.07 0,0 6.63,17.4 19.47,52.63 12.85,35.22 27.77,85.36 31.5,147.93 3.73,62.58 27.35,207.61 27.35,207.61 0,0 -3.73,4.15 -5.8,6.22 -2.07,2.07 4.14,27.35 7.46,54.7 3.31,27.35 26.1,204.29 26.1,204.29 0,0 -6.63,4.15 -12.43,7.46 -5.8,3.32 -5.8,19.89 -11.6,62.16 -5.8,42.27 -27.35,201.39 -27.35,201.39 0,0 2.48,-32.32 1.66,-63.82 -0.83,-31.49 -9.95,-116.02 -9.95,-116.02 0,0 4.15,-44.76 4.97,-84.54 0.83,-39.78 -2.9,-154.56 -4.14,-160.78 -1.24,-6.21 -18.23,-6.63 -18.23,-6.63 0,0 3.73,-9.12 5.8,-33.15 2.07,-24.04 0,-37.71 -4.97,-49.32 -4.98,-11.6 2.48,-56.77 2.48,-56.77 0,0 5.8,-7.67 11.4,-13.88 5.59,-6.22 10.36,-15.13 5.18,-16.58 -5.18,-1.45 -15.65,6.01 -15.44,4.66 0.21,-1.35 6.94,-7.87 10.26,-12.12 3.31,-4.25 9.84,-20.2 9.01,-23.1 -0.83,-2.91 -12.85,4.33 -12.85,4.33 0,0 6.22,-8.9 6.63,-17.19 0.42,-8.29 -8.29,-1.25 -9.32,-1.25 -1.04,0 0.62,-7.25 -3.52,-12.01 -4.15,-4.77 -39.99,28.59 -48.28,36.46 -8.29,7.88 -25.28,58.85 -29.42,74.18 -4.15,15.33 -4.98,107.33 -4.98,107.33 0,0 -1.24,3.72 -4.55,5.38 -3.32,1.66 0.41,13.26 2.48,29.84 2.07,16.58 -6.63,334.83 -14.92,424.34 -8.28,89.51 6.63,391.18 6.63,391.18 0,0 6.63,38.96 18.24,58.85 11.6,19.89 68.37,44.76 84.94,59.26 16.58,14.5 19.07,19.89 28.6,34.39 9.53,14.51 52.21,47.25 54.7,51.39 2.48,4.14 6.63,18.24 11.6,53.87 4.97,35.64 -3.32,92 13.26,149.18 16.58,57.19 67.13,131.78 98.62,140.9 31.5,9.11 62.99,0 65.48,-5.81 2.48,-5.8 16.57,-0.82 37.29,-6.63 20.72,-5.8 59.67,-44.75 79.57,-93.65 19.89,-48.9 17.4,-116.86 22.37,-148.35 4.98,-31.49 -4.14,-65.47 -0.83,-128.46 3.32,-62.99 14.09,-62.16 21.55,-69.62 7.46,-7.46 41.44,-33.98 56.36,-38.95 14.92,-4.97 31.49,-21.55 33.98,-27.35 2.49,-5.8 6.63,-18.23 8.29,-37.3 1.66,-19.06 23.2,-99.45 27.35,-150 4.14,-50.56 29.83,-243.66 41.43,-274.33 11.61,-30.66 3.32,-20.72 4.15,-52.21 0.83,-31.49 9.12,-90.34 9.12,-90.34 0,0 5.8,-20.72 13.25,-47.24 7.46,-26.52 14.09,-81.22 29.84,-120.17 15.75,-38.95 23.21,-105.26 23.21,-105.26 0,0 0,-13.26 1.65,-19.06 1.66,-5.8 13.27,-28.18 10.78,-46.41 l -9.53,-69.62 c 0,0 -0.83,-5.39 -4.56,-14.51 -3.73,-9.11 -14.5,-27.76 -17.82,-32.73 -3.31,-4.98 -7.04,-13.26 -11.6,-23.21 -4.56,-9.94 -34.81,-27.35 -34.81,-27.35 0,0 -0.42,-20.31 -3.73,-86.61 -3.32,-66.3 -7.46,-166.17 -7.46,-166.17 l 45.58,-13.26 c 0,0 -100.29,-653.5 -103.6,-664.69 -3.32,-11.19 -7.05,-67.13 -7.05,-74.59 0,-7.46 30.67,-77.08 30.67,-84.13 0,-7.04 3.31,-19.89 -0.42,-29.83 -3.73,-9.95 -2.49,-29.84 -0.41,-31.91 2.07,-2.068 4.14,-29.841 0.41,-38.54 -3.73,-8.7 -112.3,-4.969 -121.42,-4.141 -9.11,0.832 -14.08,7.461 -15.74,16.57 -1.66,9.121 1.66,45.171 0.83,52.631 -0.83,7.46 -0.83,16.58 -4.98,36.47 -4.14,19.89 5.81,38.12 5.81,51.38 0,13.26 -1.66,12.43 -7.46,53.87 -5.8,41.44 11.6,124.32 11.6,124.32 0,0 3.31,41.44 -3.32,76.25 -6.63,34.81 4.98,96.13 4.98,175.7 0,79.56 -16.58,343.94 -15.75,350.57 0.83,6.63 12.43,6.62 12.43,6.62 0,0 -11.6,179.85 -12.43,222.95 z m 58.58,809.66 c 0,0 -9.12,-21.55 -7.46,-53.04 1.66,-31.5 28.18,-72.94 29.84,-82.05 1.65,-9.12 -3.32,32.32 -9.12,43.92 -5.8,11.61 -12.43,72.94 -13.26,91.17 v 0" /><path
         id="path26"
         style="fill:#211c1d;fill-opacity:1;fill-rule:evenodd;stroke:none"
         d="m 4930.36,2783.08 c 0,0 -25.46,135.81 -37.13,158.61 -11.67,22.81 -21.75,33.95 -28.64,54.11 -6.9,20.16 -9.54,30.75 -9.54,30.75 -20.16,-36.07 -132.09,-143.75 -137.39,-153.83 -5.31,-10.08 2.65,-21.75 2.65,-21.75 0,0 105.55,-142.15 124.12,-161.25 18.57,-19.1 38.73,-38.73 38.73,-38.73 0,0 23.34,24.41 30.76,26.53 7.43,2.12 12.2,4.24 12.2,4.24 0,0 -5.83,45.62 -11.14,61 -5.3,15.39 -1.59,22.28 2.12,25.99 3.72,3.72 13.26,14.33 13.26,14.33 z m 658.29,-541.59 c 0,0 -15.91,-22.81 -29.17,-55.69 -13.26,-32.89 -24.4,-106.63 -25.99,-120.42 0,0 -2.39,-9.41 -2.13,-10.61 0.27,-1.19 64.45,5.84 114.85,21.75 50.39,15.92 100.92,23.87 101.05,24.8 0.13,0.93 -2.78,12.2 -2.78,12.2 0,0 -2.26,1.86 -5.97,5.57 -3.71,3.72 -17.77,66.44 -25.73,79.44 -7.95,13 -37.66,45.09 -37.66,45.09 0,0 -2.39,0 -6.1,-1.33 -3.71,-1.33 -10.34,0.53 -10.34,0.53 0,0 -8.23,-3.98 -15.39,-3.45 -7.16,0.53 -9.28,3.98 -9.28,3.98 0,0 -2.39,0.27 -6.63,-0.8 -4.25,-1.06 -9.55,1.07 -9.55,1.07 0,0 -2.13,-1.06 -9.55,-3.72 -7.43,-2.65 -19.63,1.59 -19.63,1.59 z m -385.26,557.41 c -1.06,-14.85 2.12,-41.37 4.24,-48.8 2.12,-7.43 64.71,-82.74 89.11,-172.92 24.4,-90.18 -11.68,-334.18 -28.65,-333.12 -16.97,1.06 -29.7,-8.49 -29.7,-8.49 l -33.96,-72.14 c 0,0 -10.61,-80.63 -7.43,-151.71 3.18,-71.08 1.06,-118.82 12.74,-141.1 11.66,-22.28 29.7,-61.53 29.7,-61.53 0,0 7.94,6.89 14.31,1.06 6.36,-5.84 122.53,-161.79 156.48,-229.69 33.95,-67.9 41.38,-109.27 79.57,-153.83 38.19,-44.56 93.35,-117.23 101.31,-126.78 7.96,-9.55 11.67,-20.69 15.92,-37.13 4.24,-16.45 -2.66,-45.09 12.73,-81.16 15.38,-36.07 21.21,-58.35 18.56,-61.53 -2.65,-3.19 -10.61,-3.72 -10.61,-3.72 0,0 -39.78,76.39 -48.27,83.28 -8.49,6.9 -15.38,-2.12 -15.38,-2.12 0,0 -13.27,-41.37 -10.61,-70.02 2.65,-28.64 2.12,-51.98 -5.84,-61.53 -7.95,-9.55 -90.18,-53.04 -115.11,-58.35 -24.93,-5.3 -41.38,0.53 -44.03,5.31 -2.65,4.77 -3.18,9.01 4.24,19.62 7.43,10.61 60.48,55.7 62.6,68.96 2.12,13.26 -9.02,110.87 -20.69,140.57 -11.67,29.71 -94.96,175.6 -164.97,265.78 -70.03,90.17 -161.26,202.63 -155.96,211.11 5.31,8.49 6.37,12.74 6.37,12.74 0,0 -46.68,53.58 -56.76,66.84 -10.08,13.26 -14.86,20.69 -14.86,20.69 l -5.3,-50.4 c 0,0 8.49,-5.84 10.08,-10.08 1.59,-4.24 0.53,-42.96 0.53,-42.96 0,0 -30.77,-295.47 -56.24,-352.76 -25.46,-57.29 -32.88,-123.06 -29.7,-133.67 3.18,-10.61 27.57,-56.23 29.7,-84.34 2.12,-28.12 -16.45,-56.23 -21.22,-77.45 -4.78,-21.22 -14.32,-89.639 -13.79,-98.132 0.53,-8.488 -0.8,-9.019 -2.66,-9.277 -1.85,-0.269 -14.05,-0.801 -13.79,1.32 0.27,2.118 -1.86,100.259 -1.86,100.259 0,0 -13.79,-26.53 -29.18,-54.64 -15.38,-28.111 -21.75,-48.271 -35.54,-57.818 -13.79,-9.543 -150.12,-9.023 -168.16,-4.242 -18.03,4.77 -14.85,9.551 -15.91,13.789 -1.06,4.25 -2.65,15.922 13.79,24.402 16.45,8.489 71.09,28.109 81.69,54.109 10.61,25.99 18.04,100.79 32.89,143.23 14.86,42.44 25.46,86.99 27.59,103.97 2.12,16.98 24.4,150.13 31.82,259.41 7.43,109.27 -3.18,230.21 1.6,231.27 4.77,1.07 10.07,1.6 10.07,1.6 0,0 -5.83,74.8 3.72,118.82 9.54,44.03 39.77,259.4 49.32,298.66 9.56,39.25 9.56,46.68 9.56,46.68 l 3.18,14.85 c 0,0 -11.68,5.83 -11.14,9.01 0.53,3.19 9.01,210.07 3.18,257.28 -5.84,47.21 -5.31,66.31 -6.37,68.43 -1.06,2.12 -23.34,12.2 -25.99,9.55 -2.65,-2.66 -21.75,-18.57 -28.91,-21.22 -7.16,-2.65 -24.93,4.77 -25.73,7.69 -0.79,2.92 -134.48,132.88 -187.52,179.03 -53.05,46.15 -69.5,80.37 -72.68,90.71 -3.18,10.35 0.8,16.71 1.6,18.83 0.79,2.13 155.68,200.78 167.88,217.23 12.2,16.44 14.32,18.04 14.32,22.28 0,4.24 7.43,10.61 13.26,19.09 5.84,8.49 16.83,35.17 16.83,35.17 6.36,35.01 32.88,47.75 37.13,66.84 4.24,19.1 -12.73,8.49 -1.06,42.44 11.67,33.95 23.34,30.76 23.34,59.41 0,28.64 7.42,45.62 11.67,60.47 4.24,14.85 -3.19,12.73 18.03,41.37 21.22,28.65 33.95,56.23 33.95,56.23 0,0 -14.33,45.1 27.58,100.27 41.9,55.17 86.99,89.65 107.68,92.3 20.69,2.65 49.86,-7.42 55.17,-8.49 5.3,-1.06 27.58,-3.18 47.74,-10.61 20.16,-7.42 51.99,-31.3 71.08,-88.59 19.1,-57.29 9.55,-93.36 1.07,-129.43 -8.49,-36.07 5.3,-38.19 6.36,-70.02 1.06,-31.83 -15.91,-39.25 -19.1,-68.96 -3.18,-29.7 0,-49.86 0,-49.86 0,0 44.56,-8.5 60.48,-28.66 15.91,-20.15 57.82,-166.03 58.88,-175.58 1.06,-9.54 -4.78,-16.44 -4.78,-16.44 0,0 28.12,-160.72 50.4,-202.1 22.28,-41.37 39.25,-78.51 61.53,-124.13 22.28,-45.61 110.34,-216.42 120.94,-224.91 10.61,-8.49 28.65,-32.89 35.01,-43.5 6.37,-10.61 49.33,-116.7 53.58,-128.37 4.24,-11.67 0,-45.62 0,-45.62 0,0 49.86,-48.27 59.94,-65.24 10.08,-16.98 18.03,-66.84 21.21,-75.86 3.19,-9.02 -2.64,-15.38 -2.64,-15.38 l 5.83,-13.26 c 0,0 44.03,5.57 49.86,3.71 5.84,-1.86 9.55,-9.02 9.55,-9.02 0,0 23.61,-46.41 23.61,-58.08 0,-11.67 -4.78,-18.56 -4.78,-18.56 0,0 48.8,-84.34 61.53,-124.66 12.74,-40.31 44.56,-124.13 39.26,-134.74 -5.3,-10.6 -383.52,-109.27 -404.74,-115.1 -21.22,-5.84 -41.38,3.18 -57.29,5.3 -15.91,2.12 -44.56,4.77 -47.21,14.32 -2.65,9.55 -11.14,135.8 -0.53,179.3 10.61,43.49 18.03,106.09 18.03,106.09 0,0 0.53,72.14 10.08,79.57 9.55,7.42 44.56,20.15 44.56,20.15 0,0 16.97,113 33.41,150.66 16.45,37.66 17.51,40.31 17.51,40.31 0,0 -3.45,-2.39 -4.24,3.18 -0.8,5.57 5.04,11.67 5.3,13.79 0.27,2.13 1.85,26.53 -0.8,49.34 -2.65,22.81 3.72,67.37 3.72,68.96 0,1.59 -13.27,57.3 -37.67,91.25 -24.4,33.94 -120.95,148.53 -160.2,214.3 -39.25,65.78 -29.7,107.16 -50.92,149.59 -21.22,42.44 -63.66,150.65 -64.72,138.98 -1.06,-11.67 -38.19,-96.54 -41.37,-114.58 -3.19,-18.03 0,-30.76 0,-30.76 0,0 2.12,-12.74 1.06,-27.59 v 0" /><path
         id="path28"
         style="fill:#211c1d;fill-opacity:1;fill-rule:evenodd;stroke:none"
         d="m 5207.94,5941.1 c 0,0 -28.59,127.21 -57.19,163.69 -28.59,36.48 -45.36,51.27 -61.13,74.94 -15.78,23.67 -22.69,39.44 -22.69,39.44 -5.91,-7.89 -71.98,-58.18 -106.49,-100.58 -34.51,-42.4 -67.05,-82.83 -67.05,-82.83 0,0 51.27,-50.28 82.83,-76.91 31.55,-26.62 70.01,-45.36 70.01,-45.36 0,0 28.59,-0.98 40.43,-7.88 11.83,-6.91 38.45,-9.86 44.37,-12.82 5.91,-2.96 18.73,-0.99 39.44,17.75 20.71,18.73 37.47,30.56 37.47,30.56 z m 9.84,561.95 c 3.45,8.88 13.32,22.19 14.79,45.85 1.48,23.67 -0.49,25.64 -0.49,25.64 0,0 -27.61,21.2 -37.47,44.38 -9.86,23.17 -13.31,35 -13.31,35 0,0 -29.09,34.51 -34.51,62.61 -5.43,28.11 -13.31,86.78 4.44,120.31 17.75,33.52 17.75,18.73 21.69,42.4 3.95,23.66 14.8,26.62 29.59,43.38 14.79,16.77 52.26,15.78 101.56,22.68 49.3,6.9 106.98,-45.85 122.76,-78.88 15.78,-33.03 6.91,-50.78 15.29,-64.1 8.38,-13.31 35.5,-65.56 58.18,-94.16 22.68,-28.6 21.69,-16.76 24.65,-53.25 2.96,-36.48 -5.92,-58.17 15.77,-77.89 21.7,-19.73 19.72,-2.97 34.51,-47.34 14.8,-44.37 -9.85,-68.04 1.98,-83.81 11.83,-15.78 23.66,-28.6 21.69,-37.47 -1.97,-8.87 20.71,-19.72 34.52,-42.4 13.8,-22.68 13.8,-32.54 14.79,-38.46 0.98,-5.91 22.68,-53.24 32.54,-128.18 9.85,-74.94 35.49,-187.35 45.35,-210.03 9.86,-22.68 19.73,-66.06 13.81,-108.46 -5.92,-42.4 -77.9,-150.87 -77.9,-150.87 0,0 -2.96,-14.79 -6.41,-21.69 -3.45,-6.91 -8.87,-9.37 -17.75,-11.34 -8.87,-1.98 -22.19,-12.33 -25.64,-11.84 -3.45,0.5 -8.87,-267.21 -41.41,-409.2 -32.54,-141.99 -123.25,-366.81 -123.25,-366.81 0,0 33.52,-147.91 24.65,-151.85 -8.88,-3.95 -51.28,-13.81 -51.28,-13.81 0,0 14.79,-65.07 29.58,-181.42 14.79,-116.35 15.78,-280.04 23.67,-299.76 7.89,-19.72 33.52,-46.34 37.47,-74.94 3.94,-28.59 1.97,-36.48 5.91,-42.4 3.95,-5.91 18.74,-22.68 24.66,-48.32 5.91,-25.63 0.99,-92.68 5.92,-135.08 4.93,-42.4 5.91,-74.94 0.98,-100.58 -4.93,-25.64 -23.66,-51.27 -32.54,-55.22 -8.87,-3.94 -78.88,-7.89 -86.77,-0.98 -7.89,6.9 -31.55,53.24 -29.58,96.63 1.97,43.38 9.86,55.22 9.86,63.11 0,7.88 20.21,129.17 17.25,146.42 -2.95,17.26 -23.66,34.52 -28.1,69.52 -4.44,35.01 -3.45,47.33 -14.79,74.94 -11.34,27.61 -94.66,239.62 -94.66,239.62 l -74.94,-217.92 c -21.69,-63.1 -45.85,-196.71 -46.83,-218.9 -0.99,-22.19 0.49,-25.64 4.93,-35 4.43,-9.37 32.05,-64.59 35,-78.4 2.96,-13.8 -27.6,-48.81 -37.96,-54.23 -10.35,-5.42 -66.56,7.4 -94.66,29.09 -28.1,21.69 -26.62,37.96 -24.16,51.77 2.47,13.8 0.99,82.83 -5.92,110.44 -6.9,27.61 -3.94,33.52 -7.39,29.58 -3.45,-3.94 -32.54,-99.59 -41.42,-98.6 -8.87,0.98 -18.73,1.48 -15.77,10.35 2.95,8.87 26.62,75.44 32.53,135.59 5.92,60.15 -1.97,86.77 11.84,109.45 13.8,22.68 56.2,49.3 62.12,47.33 5.91,-1.97 34.01,35.99 48.8,119.81 14.79,83.81 8.87,164.67 37.47,249.47 28.6,84.8 48.32,132.14 43.39,134.11 -4.93,1.97 -15.78,15.77 -15.78,15.77 0,0 21.7,81.85 17.75,142.98 -3.94,61.14 -27.61,149.88 -51.27,224.82 -23.67,74.94 -77.91,222.86 -77.91,352.04 0,129.17 67.05,253.42 67.05,253.42 0,0 -78.88,-1.97 -100.57,-4.93 -21.69,-2.96 -35.5,-5.91 -35.5,-5.91 0,0 0.99,0.98 -2.96,15.77 -3.94,14.79 -4.93,22.68 -9.86,23.67 -4.93,0.99 -85.78,24.65 -135.08,52.26 -49.31,27.61 -82.83,53.25 -110.44,64.1 -27.61,10.84 -32.54,23.66 -34.51,32.54 -1.98,8.87 11.83,51.27 16.76,64.09 4.93,12.82 96.63,132.13 136.08,174.54 39.44,42.4 94.66,127.2 113.39,150.86 l 22.68,28.6 c 0,0 46.34,31.55 65.08,34.51 18.73,2.96 49.3,5.91 67.05,18.73 17.75,12.82 42.4,19.73 45.36,24.65 2.96,4.93 23.65,21.6 23.65,21.6 z m 351.06,-525.95 c -5.91,-35.49 1.97,-91.7 1.97,-91.7 0,0 23.17,-1.97 28.6,-4.44 5.42,-2.46 14.79,-22.68 14.79,-22.68 l 25.63,68.04 c 0,0 6.91,8.88 -3.94,35.5 -10.84,26.62 -31.55,89.73 -36.48,113.4 0,0 -1.48,-12.58 -5.42,-27.12 -3.95,-14.54 -19.23,-35.5 -25.15,-71 v 0" /><path
         id="path30"
         style="fill:#211c1d;fill-opacity:1;fill-rule:evenodd;stroke:none"
         d="m 4249.24,4698.97 c 5.05,27.78 1.9,50.5 0,56.19 l -12.63,38.51 c -1.26,3.78 -3.15,-62.5 -3.15,-84.6 0,-22.1 6.31,-67.55 6.31,-70.71 0,-3.16 4.42,32.83 9.47,60.61 z m -518.16,474.11 c 5.05,0.63 -31.56,89.65 -34.72,99.12 0,0 -14.52,-15.78 -18.94,-25.26 -4.42,-9.47 -26.51,-35.35 -26.51,-44.82 0,-9.47 17.04,-15.78 39.14,-19.57 22.09,-3.79 35.98,-10.1 41.03,-9.47 z m 10.74,49.24 c 0.63,5.68 10.1,64.4 10.1,64.4 0,0 -7.27,-1.9 -10.26,1.58 -3,3.47 -4.26,5.68 -5.84,5.99 -1.58,0.32 -6.79,0.16 -10.1,3 -3.32,2.84 -4.74,3 -4.74,3 0,0 -7.89,1.26 -7.74,0.48 0.16,-0.79 2.06,-4.58 2.06,-4.58 0.63,-12 25.88,-79.55 26.52,-73.87 z m 266.62,1214.94 c 13.89,5.05 29.68,23.99 38.52,41.03 8.83,17.05 -2.53,16.42 8.83,41.04 11.37,24.62 22.73,27.78 20.84,46.09 -1.9,18.3 -8.2,94.7 8.21,134.47 16.42,39.77 28.41,116.17 71.97,147.73 43.56,31.57 99.12,22.1 106.06,25.25 6.95,3.16 45.46,9.47 83.97,-16.41 38.51,-25.88 60.61,-87.75 57.46,-145.2 -3.16,-57.45 -27.78,-109.21 -22.73,-131.94 5.06,-22.73 18.32,-42.93 12,-70.08 -6.31,-27.14 -8.83,-39.14 4.43,-56.82 13.25,-17.68 17.04,-64.39 17.04,-64.39 0,0 99.13,-42.29 116.17,-51.76 17.05,-9.47 27.15,-14.52 26.52,-21.46 -0.63,-6.95 -9.47,-30.31 -9.47,-30.31 0,0 12.63,-57.45 17.68,-210.22 5.05,-152.78 -7.57,-133.84 0,-191.93 7.58,-58.08 30.31,-203.91 31.58,-246.21 1.26,-42.3 0.63,-62.5 0.63,-62.5 0,0 13.26,-39.77 11.37,-44.19 -1.9,-4.42 -10.11,-22.09 -10.11,-22.09 0,0 45.47,-222.23 47.99,-239.9 2.52,-17.68 5.68,-27.78 -0.63,-30.94 -6.32,-3.16 -61.24,-6.31 -61.24,-6.31 0,0 -5.99,-35.99 -5.68,-45.14 0.32,-9.16 -6.94,-8.21 -10.73,-12.63 -3.79,-4.42 -38.51,-21.15 -44.82,-24.62 -6.32,-3.47 -33.15,1.26 -33.15,5.37 0,4.1 14.21,7.25 14.21,7.25 0,0 -4.74,7.9 -1.27,9.16 3.48,1.26 3.64,2.84 9.32,0.47 5.68,-2.36 15.62,-2.21 15.62,-2.21 l 4.26,16.42 c 0,0 -14.67,2.53 -16.25,2.21 -1.58,-0.31 -10.73,-12.62 -18.62,-8.2 -7.89,4.41 5.05,28.09 5.05,28.09 l -22.1,2.21 c 0,0 -65.97,-248.42 -72.28,-283.15 -6.32,-34.72 14.52,-230.42 -4.42,-361.74 -18.94,-131.31 -78.28,-313.13 -88.38,-345.96 -10.1,-32.82 1.89,-72.6 5.05,-87.12 3.15,-14.52 -9.47,-33.46 -9.47,-44.19 0,-10.73 1.27,-118.06 5.06,-153.41 3.78,-35.36 -5.05,-53.03 -23.99,-59.98 -18.94,-6.94 -119.32,-14.52 -127.53,1.9 -8.21,16.41 4.42,51.14 6.31,71.97 1.9,20.83 15.15,75.14 15.15,96.61 v 40.4 c 0,0 -12.63,0 -20.2,31.56 -7.58,31.57 2.53,116.17 6.31,151.52 3.79,35.35 7.58,83.34 -1.26,103.55 -8.84,20.2 -80.81,188.14 -97.22,265.16 -16.41,77.02 1.26,126.26 -5.05,181.82 -6.32,55.55 -49.24,198.24 -56.82,251.27 -7.57,53.03 -17.67,66.92 -17.67,66.92 0,0 -39.15,3.79 -39.15,16.41 0,12.63 -8.84,59.35 -15.15,56.82 -6.31,-2.52 -59.34,-3.79 -74.49,0 -15.16,3.79 -13.89,15.16 -13.89,15.16 0,0 29.04,214.68 26.51,243.72 -2.52,29.04 -12.62,34.09 -12.62,34.09 0,0 11.36,22.73 15.15,39.14 3.79,16.41 64.39,229.81 71.97,274 7.58,44.2 10.1,78.29 10.1,78.29 0,0 18.31,20.84 14.52,34.72 -3.78,13.89 -23.99,165.41 -26.51,154.05 -2.53,-11.37 -11.36,-162.88 -25.25,-218.44 -13.89,-55.55 -146.47,-371.19 -144.58,-394.55 1.9,-23.36 6.32,-32.83 2.53,-56.82 -3.79,-23.99 -6.94,-40.41 -6.94,-40.41 0,0 7.26,-2.52 9.47,-8.52 2.21,-5.99 2.84,-7.89 4.41,-6.63 1.58,1.27 6.63,6.63 10.11,3.48 3.47,-3.16 1.89,-33.78 -7.58,-46.41 -9.47,-12.62 -13.25,-15.15 -12.62,-27.14 0.63,-12 -4.42,-53.67 -6.94,-73.87 -2.53,-20.2 2.52,-31.56 2.52,-31.56 0,0 65.02,13.26 70.71,-1.9 5.68,-15.15 30.3,-199.5 60.61,-265.15 30.3,-65.66 63.13,-103.54 49.24,-135.1 -13.89,-31.57 -146.47,-83.33 -167.93,-80.81 -21.47,2.53 -65.66,63.13 -138.89,53.03 -73.24,-10.1 -132.58,-20.2 -140.15,21.47 -7.58,41.66 -2.53,172.98 -2.53,172.98 0,0 -8.84,31.57 -11.36,68.18 -2.52,36.62 80.81,161.62 87.12,185.61 6.31,23.99 -11.36,55.56 0,60.61 11.37,5.05 41.67,-13.89 41.67,-13.89 0,0 42.92,22.1 47.98,45.45 5.05,23.36 11.99,46.09 11.99,46.09 0,0 -14.52,7.58 -10.73,27.78 3.78,20.2 34.09,58.09 40.4,74.5 6.31,16.41 18.94,84.61 32.83,189.41 13.89,104.8 40.41,217.17 56.82,270.2 16.42,53.03 15.15,107.33 26.51,176.77 11.37,69.45 28.42,220.97 29.05,237.38 0.63,16.42 -11.36,30.31 -6.94,43.56 4.41,13.26 53.02,53.67 68.18,61.87 15.15,8.21 87.33,17.97 87.33,17.97 z m 407.48,-516.05 c 0,-29.04 46.72,-82.07 50.51,-93.43 3.78,-11.37 -10.11,155.3 -16.42,198.23 l -3.79,39.14 c 0,0 3.79,-39.14 -18.94,-46.71 -22.73,-7.58 -3.79,-21.47 -3.79,-37.88 0,-16.42 -7.57,-30.31 -7.57,-59.35 v 0" /><path
         id="path32"
         style="fill:#211c1d;fill-opacity:1;fill-rule:evenodd;stroke:none"
         d="m 3086.55,5873.45 c 0,0 46.01,19.58 100.83,55.8 54.81,36.22 141.94,120.41 141.94,120.41 0,0 -4.89,6.85 -25.45,33.28 -20.56,26.43 -66.57,109.64 -75.38,128.24 l -7.83,16.64 c 0,0 -8.81,-19.58 -16.64,-35.24 -7.83,-15.66 -19.58,-36.22 -28.39,-50.9 -8.81,-14.69 -15.66,-25.45 -25.45,-47.97 -9.79,-22.52 -25.45,-46.99 -40.14,-67.55 -14.68,-20.56 -8.81,-28.39 -16.64,-50.9 -7.83,-22.52 -15.66,-39.16 -14.68,-58.74 0.98,-19.57 7.83,-43.07 7.83,-43.07 z m 10.22,-84.28 c 0,0 0.97,-6.85 16.64,-42.09 15.66,-35.25 33.28,-64.61 41.11,-74.4 7.83,-9.79 45.03,-29.37 66.57,-150.75 21.54,-121.39 -25.45,-180.13 -37.2,-244.73 -11.74,-64.61 18.6,-229.56 20.56,-269.7 1.96,-40.13 35.24,-130.19 38.18,-148.79 2.94,-18.6 1.96,-31.33 1.96,-31.33 l -4.9,-10.77 c 0,0 50.91,-109.63 42.1,-217.32 -8.81,-107.68 -62.65,-321.08 -63.63,-341.64 -0.98,-20.56 7.83,-30.34 7.83,-30.34 0,0 37.2,-33.29 39.16,-74.4 1.96,-41.12 -16.64,-51.89 -22.52,-80.27 -5.87,-28.39 -3.91,-164.47 -7.82,-168.87 -3.92,-4.4 -12.73,-4.89 -17.14,-4.4 -4.4,0.48 -7.34,2.44 -7.34,2.44 l -3.42,81.25 c 0,0 -14.69,-36.71 -16.65,-57.75 -1.95,-21.05 -4.89,-44.54 -14.19,-51.89 -9.3,-7.34 -129.7,-10.77 -139.49,-6.36 -9.79,4.41 -9.3,12.72 -13.22,21.05 -3.92,8.32 -21.54,38.66 -8.81,60.69 12.73,22.03 38.18,46.5 41.11,53.84 2.94,7.34 25.47,77.84 27.42,126.78 1.96,48.95 18.6,114.54 20.56,150.76 1.96,36.22 -9.78,259.42 -19.57,340.67 -9.79,81.25 -15.67,144.88 -22.52,160.55 -6.85,15.66 -8.81,25.45 -8.81,25.45 l -255.49,-8.81 c 0,0 42.09,-28.39 47.96,-141.94 5.87,-113.56 -7.83,-281.93 9.79,-348.5 17.62,-66.57 25.45,-72.44 25.45,-72.44 0,0 14.69,-3.43 21.05,-9.3 6.36,-5.87 31.33,-34.75 32.31,-63.63 0.97,-28.88 -13.71,-51.39 -14.2,-61.18 -0.49,-9.79 10.28,-166.67 6.61,-168.38 -3.67,-1.71 -14.19,-3.91 -14.44,-1.96 -0.24,1.96 -20.55,131.67 -26.91,143.42 -6.37,11.74 -43.08,-32.31 -55.32,-60.7 -12.23,-28.39 -18.59,-86.14 -21.04,-106.7 -2.45,-20.56 -104.75,-30.83 -139.01,-35.73 -34.26,-4.89 -39.16,12.73 -39.65,16.64 -0.49,3.92 -15.66,20.07 -15.17,38.18 0.49,18.11 83.7,86.15 83.7,86.15 0,0 37.2,79.78 35.24,166.91 -1.96,87.12 -21.54,162.5 -48.95,272.14 -27.41,109.64 -42.09,220.26 -57.75,287.81 -15.67,67.55 -46.01,156.63 -46.99,204.6 -0.98,47.97 83.21,341.65 96.91,406.26 13.71,64.61 21.54,99.85 21.54,99.85 0,0 45.03,123.34 46.99,154.67 1.95,31.33 5.87,52.86 1.95,66.57 -3.91,13.7 21.55,37.2 13.72,123.34 -7.84,86.15 -13.71,166.42 -5.88,223.2 7.83,56.78 7.83,78.31 7.83,78.31 0,0 -18.59,42.1 -17.61,81.26 0.97,39.16 65.58,102.79 80.27,116.49 14.68,13.71 66.57,72.45 75.38,96.92 8.81,24.47 8.81,32.31 26.43,53.84 17.62,21.54 31.33,27.41 31.33,40.14 0,12.73 -2.94,47.97 -5.88,59.71 -2.93,11.75 -4.89,11.75 -4.89,11.75 0,0 -16.16,-0.49 -27.41,15.18 -11.26,15.66 -15.18,29.85 -33.29,56.77 -18.11,26.92 -28.38,47.97 -28.38,70.49 0,22.52 3.43,34.26 -0.49,43.07 -3.92,8.81 -5.87,22.03 -5.38,27.41 0.48,5.39 -0.49,46.51 2.93,62.17 3.43,15.66 2.45,19.58 2.45,19.58 0,0 -3.91,25.45 10.77,52.86 14.68,27.41 39.16,46.01 68.53,52.86 29.36,6.85 56.77,15.66 87.12,13.7 30.35,-1.95 98.87,-50.9 110.62,-92.01 11.75,-41.11 0,-46.01 17.62,-68.52 17.62,-22.52 30.35,-32.31 36.22,-62.65 5.87,-30.35 0.98,-39.16 11.75,-59.72 10.77,-20.56 21.53,-20.56 21.53,-51.88 0,-31.33 4.9,-21.54 0,-57.76 -4.89,-36.22 4.9,-47.97 8.81,-60.69 3.92,-12.73 -7.4,-34.35 -7.4,-34.35 11.75,-7.83 64.61,-56.78 62.65,-76.36 -1.96,-19.58 9.79,-45.03 9.79,-45.03 0,0 32.3,-57.75 72.44,-104.74 40.14,-46.99 86.15,-115.51 110.62,-178.17 24.47,-62.65 23.49,-70.48 13.7,-81.25 -9.79,-10.76 -19.58,-14.68 -23.49,-19.58 -3.92,-4.89 -119.42,-79.28 -208.51,-118.44 -89.08,-39.16 -164.45,-69.51 -164.45,-69.51 v 0" /><path
         id="path34"
         style="fill:#211c1d;fill-opacity:1;fill-rule:evenodd;stroke:none"
         d="m 1426.89,6628.09 c -7.75,21.32 19.38,60.08 25.19,89.15 0,0 24.56,75.41 60.41,99.63 35.85,24.23 54.26,10.66 69.76,6.79 15.51,-3.88 36.82,7.75 68.8,1.94 31.98,-5.82 50.39,-18.41 65.89,-31.01 15.51,-12.6 10.66,-33.91 28.1,-51.36 17.44,-17.44 35.85,-53.29 38.76,-90.11 2.91,-36.82 -5.82,-70.74 -4.85,-75.58 0.97,-4.85 3.88,-9.69 7.75,-37.79 3.88,-28.1 -4.84,-27.14 -6.78,-55.23 -1.94,-28.1 19.38,-40.7 29.07,-77.52 9.69,-36.82 -0.97,-53.3 0.97,-74.61 1.94,-21.32 12.59,-13.57 30.04,-28.1 17.44,-14.54 67.82,-56.21 77.51,-69.78 9.69,-13.56 10.66,-75.58 10.66,-75.58 0,0 12.59,-25.19 23.25,-76.54 10.66,-51.36 54.26,-120.16 62.01,-144.39 7.75,-24.22 16.47,-31 22.28,-43.6 5.82,-12.6 1.94,-37.79 -5.81,-67.83 -7.75,-30.04 -73.64,-119.18 -73.64,-119.18 0,0 0.96,-10.66 -8.72,-23.26 -9.69,-12.6 -46.52,-20.35 -55.24,-18.41 -8.72,1.94 -34.88,-5.81 -34.88,-5.81 0,0 3.88,-15.51 31.98,-63.96 28.1,-48.44 448.63,-805.23 453.47,-813.95 4.85,-8.72 -56.2,-32.95 -66.86,-38.76 -10.66,-5.81 -11.62,-20.35 -11.62,-32.94 0,-12.6 -24.23,-17.45 -53.3,-45.55 -29.07,-28.1 -315.88,-96.9 -341.08,-103.68 -25.19,-6.78 -12.59,11.63 -17.44,11.63 -4.84,0 -15.5,-8.72 -15.5,-8.72 0,0 0,-0.97 -2.91,-22.29 -2.9,-21.31 -15.5,-97.86 -34.88,-212.2 -19.38,-114.34 -15.51,-169.58 -15.51,-169.58 0,0 8.72,-10.66 8.72,-24.22 0,-13.57 0.97,-103.68 2.9,-158.91 1.94,-55.23 7.76,-80.43 -1.93,-97.87 -9.69,-17.44 -122.09,-20.35 -139.54,2.91 -17.44,23.25 -4.84,52.32 -1.93,93.99 2.9,41.66 12.59,62.01 11.63,87.21 -0.97,25.19 0,40.69 1.93,66.85 1.94,26.17 7.75,22.29 17.44,37.79 9.7,15.51 17.44,47.48 17.44,138.57 0,91.08 -26.17,249.02 -26.17,249.02 0,0 -18.41,2.91 -24.22,-8.72 -5.82,-11.63 -51.36,-14.53 -91.08,-18.41 -39.73,-3.88 -47.48,5.81 -55.24,20.35 -7.75,14.53 -60.08,-9.7 -60.08,-9.7 0,0 0,0.97 -10.65,-20.35 -10.66,-21.31 -90.12,-145.34 -132.75,-229.64 -42.64,-84.3 -36.82,-123.07 -36.82,-123.07 0,0 9.69,-14.53 1.94,-29.07 -7.76,-14.53 -22.29,-43.6 -37.79,-76.55 -15.51,-32.94 -30.04,-52.32 -39.73,-76.55 -9.69,-24.22 -10.66,-75.58 -22.29,-93.99 -11.63,-18.41 -24.22,-7.75 -72.67,28.1 -48.45,35.86 -43.6,66.86 -47.48,78.49 -3.88,11.63 5.81,45.54 5.81,45.54 0,0 -4.84,4.84 -6.78,8.72 -1.94,3.88 40.69,57.17 46.51,71.22 5.81,14.05 17.44,47.48 25.19,76.55 7.75,29.07 42.15,38.27 47.97,41.18 5.81,2.91 14.04,1.94 14.04,1.94 0,0 18.9,33.43 32.47,93.02 13.56,59.59 64.42,237.4 64.42,237.4 l -21.8,4.6 c -12.6,2.67 -30.78,-1.45 -40.47,-0.48 -9.69,0.96 -24.22,0.72 -35.85,-3.64 -11.63,-4.36 -85.76,26.41 -96.42,33.19 -10.65,6.78 19.39,185.08 79.46,400.19 60.08,215.11 170.53,628.36 170.53,628.36 0,0 -9.69,-2.42 -24.71,-4.36 -15.02,-1.94 -20.35,6.3 -30.04,8.24 -9.69,1.93 -16.47,1.93 -30.04,8.23 -13.57,6.3 -19.86,20.84 -19.86,20.84 0,0 -20.35,6.78 -86.24,62.98 -65.89,56.2 -129.84,148.73 -136.14,153.58 -6.298,4.84 -9.204,13.56 -8.235,27.13 0.965,13.56 6.785,37.3 28.105,69.28 21.31,31.97 117.24,161.82 134.2,196.22 16.95,34.39 65.4,91.08 65.4,91.08 l -1.93,7.75 c 0,0 18.89,28.1 34.39,45.54 15.51,17.44 56.2,30.04 91.09,35.86 34.88,5.81 70.25,3.39 76.06,5.32 5.82,1.94 19.86,14.54 19.86,14.54 0,0 -4.84,25.19 -0.97,49.42 3.88,24.22 14.54,24.22 13.57,40.69 -0.97,16.47 -23.26,32.95 -16.47,58.14 6.78,25.19 2.9,26.16 5.81,48.45 2.91,22.28 -9.69,33.91 -17.44,55.23 z m 410.69,-836.38 c 2.43,-1.45 9.69,-2.9 18.9,-5.81 9.2,-2.91 30.04,-26.16 35.37,-29.07 5.32,-2.91 45.05,125 45.05,125 0,0 -2.91,10.66 -33.92,36.82 -31,26.16 -80.42,96.89 -85.26,109.49 0,0 -13.56,18.42 -15.02,21.81 -1.45,3.39 -2.42,-14.54 -14.53,-34.4 -12.11,-19.86 -11.14,-19.86 -16.96,-36.34 -5.81,-16.47 -1.94,-23.25 -2.91,-48.45 -0.97,-25.19 -9.68,-42.63 -5.81,-68.79 3.88,-26.16 7.75,-39.25 13.08,-39.73 5.33,-0.49 36.34,-16.48 36.34,-16.48 0,0 7.75,-2.42 14.05,-3.39 6.29,-0.97 9.2,-9.2 11.62,-10.66 z m -446.68,117.74 c -1.94,31.98 -28.1,108.04 -29.07,110.46 -0.97,2.42 -8.72,24.23 -19.87,27.14 -11.14,2.9 -42.63,39.24 -44.09,48.44 l -4.35,8.24 c 0,0 -34.4,-40.21 -69.28,-74.13 -34.88,-33.91 -100.77,-111.43 -100.77,-111.43 0,0 0.96,-16.47 39.72,-68.79 38.76,-52.33 89.15,-102.71 89.15,-102.71 0,0 3.87,-5.82 10.66,-6.79 6.78,-0.97 16.47,-8.72 25.19,-13.56 8.72,-4.85 15.5,-2.91 23.26,2.9 7.75,5.81 15.5,24.23 28.1,36.82 12.59,12.6 44.57,20.35 44.57,20.35 0,0 5.81,15.51 6.78,42.64 0.97,27.13 1.94,48.45 0,80.42 v 0" /><g
         transform="scale(10)"
         id="g36"><text
           id="text40"
           style="font-variant:normal;font-weight:normal;font-size:48.65579987px;font-family:'Amatic SC';-inkscape-font-specification:AmaticSC-Regular;writing-mode:lr-tb;fill:#100f0d;fill-opacity:1;fill-rule:nonzero;stroke:none"
           transform="matrix(1,0,0,-1,232.033,719.498)"><tspan
             id="tspan38"
             y="0"
             x="0 13.526313 26.614723 38.438084 52.840199 68.847954 84.320503 95.997894 108.94034 121.88278 133.56017 140.4693 150.71877 166.56548 178.18268 192.58017 205.64655 221.63585 242.11536 249.00499 269.34189 285.33121 300.84494 312.50992 324.3175">Silhouette Fashion Models</tspan></text>
</g><path
         id="path42"
         style="fill:#505256;fill-opacity:1;fill-rule:nonzero;stroke:none"
         d="m 2773.93,441.488 c 0,-7.027 1.07,-13.008 3.28,-17.949 2.18,-4.937 5.17,-8.66 8.96,-11.16 3.81,-2.5 7.95,-3.758 12.44,-3.758 4.57,0 8.71,1.18 12.5,3.57 3.77,2.36 6.78,6.02 9.03,10.911 2.24,4.91 3.36,11.046 3.36,18.386 0,6.903 -1.12,12.844 -3.36,17.825 -2.25,4.957 -5.3,8.757 -9.12,11.398 -3.83,2.598 -8.03,3.91 -12.58,3.91 -4.75,0 -8.99,-1.34 -12.74,-4.019 -3.75,-2.692 -6.61,-6.551 -8.69,-11.582 -2.07,-5.04 -3.08,-10.879 -3.08,-17.532 z m 51.01,-38.086 v 2.567 c -3.49,-3.981 -6.93,-7.239 -10.31,-9.739 -3.4,-2.5 -7.07,-4.398 -11.04,-5.679 -3.94,-1.332 -8.25,-1.961 -12.95,-1.961 -6.21,0 -11.95,1.301 -17.24,3.93 -5.29,2.632 -9.86,6.39 -13.71,11.25 -3.89,4.878 -6.8,10.609 -8.79,17.199 -2.01,6.59 -3.01,13.711 -3.01,21.371 0,16.211 3.97,28.851 11.88,37.91 7.91,9.039 18.34,13.57 31.25,13.57 7.46,0 13.77,-1.3 18.9,-3.84 5.14,-2.57 10.14,-6.519 15.02,-11.82 v 38.27 c 0,5.32 1.04,9.332 3.17,12.062 2.12,2.707 5.15,4.078 9.08,4.078 3.9,0 6.93,-1.238 9.04,-3.75 2.15,-2.511 3.2,-6.179 3.2,-11.058 v -114.36 c 0,-4.941 -1.15,-8.64 -3.41,-11.113 -2.29,-2.461 -5.24,-3.699 -8.83,-3.699 -3.56,0 -6.49,1.281 -8.79,3.832 -2.31,2.578 -3.46,6.226 -3.46,10.98 v 0" /><path
         id="path44"
         style="fill:#505256;fill-opacity:1;fill-rule:nonzero;stroke:none"
         d="m 2888.55,449.652 h 47.02 c -0.63,8.86 -3.05,15.508 -7.17,19.899 -4.16,4.41 -9.61,6.597 -16.39,6.597 -6.46,0 -11.78,-2.218 -15.9,-6.679 -4.16,-4.469 -6.66,-11.078 -7.56,-19.817 z m 50.71,-14.73 h -50.71 c 0.06,-5.883 1.25,-11.07 3.56,-15.563 2.32,-4.5 5.39,-7.89 9.22,-10.168 3.83,-2.281 8.05,-3.41 12.67,-3.41 3.09,0 5.94,0.348 8.5,1.078 2.58,0.743 5.06,1.86 7.48,3.43 2.38,1.543 4.61,3.211 6.64,4.981 2.01,1.781 4.65,4.21 7.87,7.23 1.33,1.129 3.22,1.711 5.71,1.711 2.65,0 4.8,-0.742 6.44,-2.199 1.64,-1.461 2.48,-3.5 2.48,-6.172 0,-2.34 -0.92,-5.07 -2.75,-8.211 -1.86,-3.141 -4.61,-6.141 -8.3,-9.02 -3.73,-2.89 -8.36,-5.269 -13.97,-7.168 -5.6,-1.91 -12.05,-2.851 -19.33,-2.851 -16.66,0 -29.61,4.75 -38.85,14.242 -9.24,9.496 -13.87,22.387 -13.87,38.656 0,7.672 1.15,14.774 3.42,21.321 2.28,6.562 5.62,12.171 9.98,16.863 4.37,4.687 9.75,8.269 16.15,10.777 6.39,2.5 13.48,3.742 21.27,3.742 10.12,0 18.81,-2.121 26.06,-6.402 7.26,-4.269 12.69,-9.797 16.28,-16.57 3.62,-6.77 5.43,-13.688 5.43,-20.699 0,-6.532 -1.87,-10.75 -5.6,-12.7 -3.71,-1.918 -8.99,-2.898 -15.78,-2.898 v 0" /><path
         id="path46"
         style="fill:#505256;fill-opacity:1;fill-rule:nonzero;stroke:none"
         d="m 3057.4,422.5 c 0,-7.16 -1.72,-13.289 -5.21,-18.391 -3.48,-5.089 -8.62,-8.957 -15.43,-11.589 -6.82,-2.629 -15.08,-3.93 -24.83,-3.93 -9.31,0 -17.3,1.422 -23.94,4.269 -6.64,2.852 -11.56,6.422 -14.73,10.68 -3.16,4.281 -4.74,8.563 -4.74,12.883 0,2.848 1.01,5.269 3.04,7.297 2.03,2.019 4.59,3.031 7.7,3.031 2.71,0 4.8,-0.648 6.25,-1.98 1.46,-1.329 2.87,-3.211 4.18,-5.598 2.65,-4.641 5.86,-8.063 9.55,-10.363 3.71,-2.27 8.75,-3.418 15.15,-3.418 5.2,0 9.48,1.16 12.78,3.468 3.32,2.321 4.98,4.973 4.98,7.942 0,4.558 -1.72,7.871 -5.18,9.949 -3.45,2.102 -9.12,4.102 -17.05,6 -8.92,2.211 -16.19,4.559 -21.78,6.992 -5.62,2.418 -10.09,5.637 -13.45,9.637 -3.36,3.98 -5.04,8.891 -5.04,14.711 0,5.191 1.56,10.101 4.65,14.742 3.12,4.598 7.67,8.289 13.75,11.047 6.03,2.762 13.32,4.141 21.87,4.141 6.72,0 12.76,-0.7 18.09,-2.098 5.37,-1.371 9.82,-3.274 13.4,-5.613 3.59,-2.321 6.3,-4.93 8.16,-7.758 1.88,-2.86 2.81,-5.641 2.81,-8.379 0,-2.973 -1.01,-5.41 -2.99,-7.32 -1.99,-1.872 -4.82,-2.852 -8.51,-2.852 -2.66,0 -4.92,0.762 -6.78,2.309 -1.87,1.5 -4,3.781 -6.42,6.812 -1.96,2.527 -4.26,4.559 -6.92,6.098 -2.65,1.511 -6.27,2.261 -10.84,2.261 -4.69,0 -8.57,-0.98 -11.68,-3 -3.1,-1.98 -4.65,-4.46 -4.65,-7.429 0,-2.738 1.14,-4.969 3.42,-6.711 2.29,-1.738 5.35,-3.188 9.22,-4.32 3.87,-1.129 9.16,-2.52 15.96,-4.168 8.02,-1.973 14.59,-4.321 19.7,-7.032 5.08,-2.718 8.95,-5.941 11.59,-9.648 2.63,-3.692 3.92,-7.922 3.92,-12.672 v 0" /><path
         id="path48"
         style="fill:#505256;fill-opacity:1;fill-rule:nonzero;stroke:none"
         d="m 3096.72,479.289 v -74.93 c 0,-5.199 -1.23,-9.129 -3.69,-11.789 -2.48,-2.672 -5.61,-3.98 -9.42,-3.98 -3.79,0 -6.87,1.351 -9.25,4.082 -2.39,2.719 -3.56,6.617 -3.56,11.687 v 74.192 c 0,5.097 1.17,8.969 3.56,11.578 2.38,2.59 5.46,3.891 9.25,3.891 3.81,0 6.94,-1.301 9.42,-3.891 2.46,-2.609 3.69,-6.219 3.69,-10.84 z m -12.81,26.781 c -3.61,0 -6.7,1.11 -9.26,3.328 -2.56,2.204 -3.85,5.344 -3.85,9.403 0,3.679 1.31,6.699 3.95,9.07 2.61,2.391 5.68,3.578 9.16,3.578 3.36,0 6.32,-1.09 8.92,-3.238 2.6,-2.152 3.89,-5.289 3.89,-9.41 0,-3.992 -1.27,-7.11 -3.79,-9.352 -2.54,-2.25 -5.55,-3.379 -9.02,-3.379 v 0" /><path
         id="path50"
         style="fill:#505256;fill-opacity:1;fill-rule:nonzero;stroke:none"
         d="m 3135.18,442.152 c 0,-10.511 2.3,-18.461 6.89,-23.843 4.59,-5.387 10.53,-8.071 17.81,-8.071 4.3,0 8.36,1.164 12.19,3.473 3.85,2.309 6.95,5.789 9.38,10.437 2.4,4.661 3.61,10.301 3.61,16.961 0,10.563 -2.33,18.801 -6.99,24.68 -4.67,5.891 -10.78,8.832 -18.38,8.832 -7.4,0 -13.34,-2.808 -17.8,-8.449 -4.47,-5.621 -6.71,-13.641 -6.71,-24.02 z m 75.13,32.86 v -75.313 c 0,-8.609 -0.93,-16.027 -2.77,-22.238 -1.8,-6.191 -4.77,-11.332 -8.81,-15.379 -4.06,-4.043 -9.35,-7.062 -15.92,-9.012 -6.54,-1.968 -14.68,-2.949 -24.45,-2.949 -8.93,0 -16.91,1.25 -23.93,3.75 -7.03,2.508 -12.44,5.731 -16.25,9.688 -3.8,3.953 -5.7,8.023 -5.7,12.203 0,3.168 1.07,5.758 3.24,7.738 2.15,2 4.75,3 7.78,3 3.8,0 7.13,-1.68 9.98,-5.031 1.38,-1.707 2.81,-3.449 4.32,-5.188 1.48,-1.75 3.14,-3.23 4.93,-4.468 1.8,-1.223 3.97,-2.141 6.51,-2.754 2.54,-0.579 5.45,-0.887 8.75,-0.887 6.7,0 11.91,0.918 15.62,2.797 3.69,1.863 6.29,4.48 7.8,7.84 1.48,3.343 2.34,6.929 2.59,10.773 0.26,3.84 0.45,9.988 0.57,18.488 -3.98,-5.59 -8.59,-9.84 -13.81,-12.75 -5.23,-2.91 -11.44,-4.359 -18.67,-4.359 -8.67,0 -16.25,2.219 -22.75,6.648 -6.49,4.442 -11.47,10.629 -14.96,18.61 -3.48,7.992 -5.22,17.191 -5.22,27.64 0,7.782 1.05,14.821 3.16,21.082 2.15,6.278 5.16,11.559 9.11,15.868 3.9,4.3 8.43,7.55 13.55,9.742 5.14,2.179 10.78,3.269 16.91,3.269 7.35,0 13.72,-1.422 19.11,-4.218 5.37,-2.832 10.39,-7.243 15,-13.262 v 3.519 c 0,4.5 1.09,7.973 3.32,10.461 2.23,2.45 5.07,3.7 8.55,3.7 5,0 8.34,-1.641 9.96,-4.899 1.66,-3.262 2.48,-7.973 2.48,-14.109 v 0" /><path
         id="path52"
         style="fill:#505256;fill-opacity:1;fill-rule:nonzero;stroke:none"
         d="m 3251.52,479.672 v -3.133 c 4.55,6.012 9.55,10.43 14.96,13.25 5.41,2.813 11.63,4.231 18.66,4.231 6.85,0 12.97,-1.5 18.34,-4.481 5.37,-2.98 9.41,-7.18 12.05,-12.609 1.72,-3.18 2.83,-6.61 3.32,-10.258 0.51,-3.692 0.78,-8.371 0.78,-14.07 v -48.243 c 0,-5.199 -1.19,-9.129 -3.58,-11.789 -2.38,-2.66 -5.44,-3.98 -9.23,-3.98 -3.89,0 -7.02,1.351 -9.42,4.082 -2.42,2.719 -3.61,6.617 -3.61,11.687 v 43.211 c 0,8.551 -1.19,15.09 -3.56,19.621 -2.38,4.508 -7.1,6.789 -14.19,6.789 -4.63,0 -8.85,-1.378 -12.64,-4.128 -3.81,-2.762 -6.6,-6.563 -8.36,-11.36 -1.27,-3.871 -1.91,-11.082 -1.91,-21.652 v -32.481 c 0,-5.257 -1.22,-9.207 -3.66,-11.839 -2.42,-2.629 -5.58,-3.93 -9.43,-3.93 -3.75,0 -6.82,1.351 -9.22,4.082 -2.4,2.719 -3.61,6.617 -3.61,11.687 v 74.93 c 0,4.953 1.07,8.633 3.22,11.07 2.17,2.43 5.1,3.661 8.83,3.661 2.29,0 4.35,-0.54 6.19,-1.629 1.82,-1.082 3.3,-2.692 4.41,-4.84 1.12,-2.153 1.66,-4.781 1.66,-7.879 v 0" /><path
         id="path54"
         style="fill:#505256;fill-opacity:1;fill-rule:nonzero;stroke:none"
         d="m 3358.55,449.652 h 47.02 c -0.63,8.86 -3.03,15.508 -7.17,19.899 -4.16,4.41 -9.59,6.597 -16.39,6.597 -6.44,0 -11.76,-2.218 -15.92,-6.679 -4.14,-4.469 -6.66,-11.078 -7.54,-19.817 z m 50.73,-14.73 h -50.73 c 0.06,-5.883 1.25,-11.07 3.58,-15.563 2.3,-4.5 5.37,-7.89 9.22,-10.168 3.81,-2.281 8.04,-3.41 12.65,-3.41 3.11,0 5.94,0.348 8.52,1.078 2.54,0.743 5.04,1.86 7.46,3.43 2.38,1.543 4.61,3.211 6.64,4.981 2.01,1.781 4.65,4.21 7.87,7.23 1.33,1.129 3.22,1.711 5.71,1.711 2.65,0 4.82,-0.742 6.48,-2.199 1.62,-1.461 2.46,-3.5 2.46,-6.172 0,-2.34 -0.94,-5.07 -2.77,-8.211 -1.84,-3.141 -4.61,-6.141 -8.3,-9.02 -3.71,-2.89 -8.36,-5.269 -13.97,-7.168 -5.6,-1.91 -12.05,-2.851 -19.33,-2.851 -16.64,0 -29.61,4.75 -38.85,14.242 -9.24,9.496 -13.87,22.387 -13.87,38.656 0,7.672 1.15,14.774 3.42,21.321 2.28,6.562 5.62,12.171 9.98,16.863 4.35,4.687 9.75,8.269 16.15,10.777 6.39,2.5 13.5,3.742 21.27,3.742 10.12,0 18.81,-2.121 26.08,-6.402 7.24,-4.269 12.67,-9.797 16.28,-16.57 3.6,-6.77 5.41,-13.688 5.41,-20.699 0,-6.532 -1.87,-10.75 -5.6,-12.7 -3.73,-1.918 -8.99,-2.898 -15.76,-2.898 v 0" /><path
         id="path56"
         style="fill:#505256;fill-opacity:1;fill-rule:nonzero;stroke:none"
         d="m 3463.96,441.488 c 0,-7.027 1.08,-13.008 3.29,-17.949 2.18,-4.937 5.17,-8.66 8.98,-11.16 3.79,-2.5 7.95,-3.758 12.44,-3.758 4.55,0 8.71,1.18 12.48,3.57 3.77,2.36 6.78,6.02 9.03,10.911 2.24,4.91 3.37,11.046 3.37,18.386 0,6.903 -1.13,12.844 -3.37,17.825 -2.25,4.957 -5.3,8.757 -9.13,11.398 -3.82,2.598 -8.02,3.91 -12.57,3.91 -4.75,0 -8.99,-1.34 -12.74,-4.019 -3.73,-2.692 -6.62,-6.551 -8.69,-11.582 -2.07,-5.04 -3.09,-10.879 -3.09,-17.532 z m 51.02,-38.086 v 2.567 c -3.5,-3.981 -6.93,-7.239 -10.33,-9.739 -3.38,-2.5 -7.01,-4.398 -11,-5.679 -3.94,-1.332 -8.28,-1.961 -12.97,-1.961 -6.21,0 -11.95,1.301 -17.22,3.93 -5.3,2.632 -9.89,6.39 -13.73,11.25 -3.87,4.878 -6.8,10.609 -8.79,17.199 -1.99,6.59 -2.99,13.711 -2.99,21.371 0,16.211 3.94,28.851 11.87,37.91 7.91,9.039 18.32,13.57 31.25,13.57 7.47,0 13.77,-1.3 18.89,-3.84 5.14,-2.57 10.14,-6.519 15.02,-11.82 v 38.27 c 0,5.32 1.06,9.332 3.16,12.062 2.13,2.707 5.16,4.078 9.09,4.078 3.92,0 6.93,-1.238 9.06,-3.75 2.11,-2.511 3.18,-6.179 3.18,-11.058 v -114.36 c 0,-4.941 -1.13,-8.64 -3.4,-11.113 -2.28,-2.461 -5.23,-3.699 -8.84,-3.699 -3.54,0 -6.47,1.281 -8.79,3.832 -2.31,2.578 -3.46,6.226 -3.46,10.98 v 0" /><path
         id="path58"
         style="fill:#505256;fill-opacity:1;fill-rule:nonzero;stroke:none"
         d="m 3622.19,440.719 c 0,-10.321 2.36,-18.239 7.07,-23.77 4.72,-5.547 10.9,-8.328 18.59,-8.328 6.51,0 12.13,2.828 16.84,8.5 4.72,5.68 7.07,13.789 7.07,24.367 0,6.832 -0.98,12.731 -2.93,17.66 -1.97,4.942 -4.75,8.762 -8.36,11.454 -3.61,2.679 -7.83,4.019 -12.62,4.019 -4.96,0 -9.37,-1.34 -13.22,-4.019 -3.87,-2.692 -6.9,-6.582 -9.12,-11.68 -2.23,-5.09 -3.32,-11.16 -3.32,-18.203 z m -1.25,77.043 V 478.16 c 4.88,5.051 9.86,8.942 14.92,11.629 5.06,2.68 11.33,4.031 18.81,4.031 8.61,0 16.15,-2.039 22.65,-6.109 6.49,-4.102 11.53,-10.02 15.1,-17.781 3.58,-7.739 5.38,-16.95 5.38,-27.59 0,-7.86 -1,-15.039 -3,-21.61 -1.99,-6.55 -4.9,-12.238 -8.69,-17.039 -3.79,-4.812 -8.41,-8.539 -13.81,-11.171 -5.42,-2.629 -11.4,-3.93 -17.91,-3.93 -4,0 -7.75,0.461 -11.25,1.422 -3.53,0.949 -6.52,2.187 -8.98,3.75 -2.46,1.539 -4.57,3.148 -6.33,4.797 -1.74,1.64 -4.04,4.121 -6.89,7.41 v -2.567 c 0,-4.871 -1.15,-8.562 -3.52,-11.074 -2.32,-2.5 -5.29,-3.738 -8.92,-3.738 -3.68,0 -6.59,1.238 -8.77,3.738 -2.19,2.512 -3.28,6.203 -3.28,11.074 v 113.219 c 0,5.258 1.05,9.238 3.18,11.918 2.11,2.691 5.08,4.031 8.87,4.031 4,0 7.07,-1.281 9.23,-3.84 2.13,-2.589 3.21,-6.218 3.21,-10.968 v 0" /><path
         id="path60"
         style="fill:#505256;fill-opacity:1;fill-rule:nonzero;stroke:none"
         d="m 3731.41,385.352 2.38,5.796 -31.91,80.364 c -1.98,4.609 -2.95,7.968 -2.95,10.058 0,2.219 0.56,4.27 1.7,6.168 1.15,1.903 2.71,3.422 4.7,4.563 1.99,1.148 4.06,1.719 6.23,1.719 3.74,0 6.53,-1.2 8.44,-3.571 1.91,-2.367 3.59,-5.758 5.04,-10.199 l 21.95,-63.82 20.81,59.351 c 1.63,4.801 3.12,8.578 4.45,11.301 1.32,2.719 2.73,4.559 4.21,5.5 1.51,0.957 3.62,1.438 6.34,1.438 1.97,0 3.84,-0.52 5.64,-1.579 1.81,-1.039 3.22,-2.449 4.18,-4.23 0.97,-1.762 1.48,-3.621 1.48,-5.59 -0.27,-1.191 -0.66,-2.91 -1.23,-5.141 -0.6,-2.199 -1.27,-4.468 -2.09,-6.742 l -33.83,-88.519 c -2.9,-7.778 -5.76,-13.887 -8.53,-18.317 -2.79,-4.441 -6.49,-7.851 -11.08,-10.222 -4.59,-2.379 -10.78,-3.559 -18.57,-3.559 -7.6,0 -13.28,0.82 -17.07,2.461 -3.83,1.66 -5.7,4.66 -5.7,9.027 0,2.973 0.88,5.289 2.69,6.883 1.8,1.617 4.47,2.438 8.03,2.438 1.39,0 2.75,-0.2 4.08,-0.59 1.64,-0.371 3.07,-0.559 4.26,-0.559 2.97,0 5.33,0.438 7.05,1.34 1.7,0.867 3.22,2.41 4.61,4.598 1.35,2.172 2.93,5.402 4.69,9.633 v 0" /><path
         id="path62"
         style="fill:#505256;fill-opacity:1;fill-rule:nonzero;stroke:none"
         d="m 4107.03,491.77 h 6.19 v 7.781 c 0,8.148 1,14.57 3.05,19.379 2.05,4.769 5.57,8.261 10.49,10.449 4.9,2.172 11.64,3.262 20.15,3.262 15.22,0 22.74,-3.672 22.74,-11.141 0,-2.391 -0.78,-4.449 -2.4,-6.16 -1.57,-1.68 -3.44,-2.551 -5.57,-2.551 -1.02,0 -2.79,0.18 -5.29,0.59 -2.39,0.34 -4.53,0.551 -6.23,0.551 -4.67,0 -7.66,-1.399 -9.05,-4.141 -1.27,-2.758 -1.95,-6.687 -1.95,-11.848 v -6.171 h 6.33 c 9.88,0 14.8,-2.969 14.8,-8.961 0,-4.188 -1.27,-6.899 -3.92,-8.039 -2.6,-1.141 -6.23,-1.7 -10.88,-1.7 h -6.33 v -68.718 c 0,-5.11 -1.21,-9.012 -3.69,-11.68 -2.42,-2.731 -5.55,-4.063 -9.43,-4.063 -3.68,0 -6.7,1.332 -9.18,4.063 -2.45,2.668 -3.64,6.57 -3.64,11.68 v 68.718 h -7.15 c -3.86,0 -6.81,0.832 -8.92,2.61 -2.09,1.699 -3.15,3.992 -3.15,6.769 0,6.242 4.34,9.321 13.03,9.321 v 0" /><path
         id="path64"
         style="fill:#505256;fill-opacity:1;fill-rule:nonzero;stroke:none"
         d="m 4191.93,426.031 v -21.679 c 0,-5.243 -1.34,-9.192 -3.75,-11.801 -2.46,-2.66 -5.58,-3.942 -9.37,-3.942 -3.81,0 -6.88,1.301 -9.26,4 -2.38,2.641 -3.61,6.551 -3.61,11.743 v 72.218 c 0,11.66 4.2,17.489 12.61,17.489 4.34,0 7.43,-1.34 9.34,-4.09 1.88,-2.719 2.95,-6.731 3.15,-12.078 3.1,5.347 6.26,9.359 9.51,12.078 3.3,2.75 7.59,4.09 13.1,4.09 5.49,0 10.71,-1.34 15.84,-4.09 5.16,-2.719 7.7,-6.348 7.7,-10.84 0,-3.137 -1.1,-5.82 -3.24,-7.809 -2.21,-2.09 -4.56,-3.109 -7.07,-3.109 -1,0 -3.33,0.621 -6.92,1.781 -3.65,1.137 -6.89,1.727 -9.61,1.727 -3.83,0 -6.93,-1.008 -9.33,-2.977 -2.43,-2.031 -4.3,-4.961 -5.63,-8.863 -1.31,-3.938 -2.21,-8.66 -2.75,-14.039 -0.47,-5.43 -0.71,-12.031 -0.71,-19.809 v 0" /><path
         id="path66"
         style="fill:#505256;fill-opacity:1;fill-rule:nonzero;stroke:none"
         d="m 4260.39,449.699 h 47.01 c -0.6,8.852 -2.97,15.5 -7.15,19.86 -4.18,4.429 -9.59,6.589 -16.38,6.589 -6.47,0 -11.78,-2.179 -15.92,-6.679 -4.14,-4.457 -6.68,-11.039 -7.56,-19.77 z m 50.74,-14.75 h -50.74 c 0.1,-5.89 1.23,-11.097 3.54,-15.578 2.38,-4.473 5.41,-7.859 9.25,-10.172 3.85,-2.269 8.03,-3.398 12.7,-3.398 3.1,0 5.94,0.328 8.49,1.121 2.52,0.687 5.02,1.848 7.45,3.387 2.44,1.543 4.61,3.203 6.64,5 2.03,1.761 4.66,4.171 7.91,7.203 1.33,1.129 3.24,1.738 5.68,1.738 2.7,0 4.81,-0.738 6.49,-2.219 1.66,-1.468 2.44,-3.5 2.44,-6.172 0,-2.347 -0.88,-5.078 -2.7,-8.187 -1.85,-3.184 -4.61,-6.16 -8.36,-9.063 -3.73,-2.871 -8.38,-5.277 -13.94,-7.14 -5.61,-1.91 -12.07,-2.86 -19.34,-2.86 -16.7,0 -29.65,4.723 -38.87,14.211 -9.23,9.532 -13.9,22.43 -13.9,38.692 0,7.668 1.17,14.777 3.47,21.34 2.25,6.589 5.57,12.16 9.98,16.878 4.38,4.711 9.69,8.282 16.14,10.782 6.36,2.488 13.45,3.738 21.27,3.738 10.09,0 18.81,-2.141 26.05,-6.449 7.25,-4.231 12.76,-9.77 16.31,-16.551 3.59,-6.801 5.41,-13.68 5.41,-20.738 0,-6.481 -1.88,-10.703 -5.63,-12.66 -3.71,-1.93 -8.96,-2.903 -15.74,-2.903 v 0" /><path
         id="path68"
         style="fill:#505256;fill-opacity:1;fill-rule:nonzero;stroke:none"
         d="m 4368.28,449.699 h 47.01 c -0.64,8.852 -3.04,15.5 -7.15,19.86 -4.21,4.429 -9.62,6.589 -16.42,6.589 -6.47,0 -11.76,-2.179 -15.94,-6.679 -4.12,-4.457 -6.66,-11.039 -7.5,-19.77 z m 50.72,-14.75 h -50.72 c 0.06,-5.89 1.25,-11.097 3.54,-15.578 2.32,-4.473 5.39,-7.859 9.2,-10.172 3.82,-2.269 8.06,-3.398 12.73,-3.398 3.09,0 5.92,0.328 8.46,1.121 2.58,0.687 5.04,1.848 7.5,3.387 2.42,1.543 4.59,3.203 6.64,5 1.99,1.761 4.63,4.171 7.87,7.203 1.35,1.129 3.26,1.738 5.68,1.738 2.7,0 4.85,-0.738 6.51,-2.219 1.66,-1.468 2.4,-3.5 2.4,-6.172 0,-2.347 -0.86,-5.078 -2.74,-8.187 -1.75,-3.184 -4.55,-6.16 -8.3,-9.063 -3.71,-2.871 -8.4,-5.277 -13.94,-7.14 -5.59,-1.91 -12.09,-2.86 -19.36,-2.86 -16.68,0 -29.61,4.723 -38.88,14.211 -9.22,9.532 -13.87,22.43 -13.87,38.692 0,7.668 1.15,14.777 3.46,21.34 2.28,6.589 5.6,12.16 9.98,16.878 4.33,4.711 9.7,8.282 16.13,10.782 6.37,2.488 13.51,3.738 21.31,3.738 10.08,0 18.77,-2.141 26.13,-6.449 7.19,-4.231 12.66,-9.77 16.19,-16.551 3.6,-6.801 5.47,-13.68 5.47,-20.738 0,-6.481 -1.93,-10.703 -5.62,-12.66 -3.75,-1.93 -9.01,-2.903 -15.77,-2.903 v 0" /><path
         id="path70"
         style="fill:#505256;fill-opacity:1;fill-rule:nonzero;stroke:none"
         d="m 4526.64,441.801 c 0,6.828 -1.05,12.73 -3.12,17.629 -2.09,4.922 -5,8.672 -8.7,11.281 -3.67,2.621 -7.81,3.961 -12.28,3.961 -7.17,0 -13.22,-2.84 -18.11,-8.442 -4.92,-5.66 -7.4,-13.949 -7.4,-24.929 0,-10.262 2.44,-18.332 7.36,-24.059 4.89,-5.73 10.84,-8.594 18.15,-8.594 4.28,0 8.28,1.25 11.93,3.731 3.71,2.519 6.66,6.25 8.87,11.25 2.21,5.019 3.3,11.09 3.3,18.172 z m -50.84,37.668 v -3.098 c 4.86,6.008 9.94,10.418 15.25,13.238 5.18,2.84 11.2,4.27 17.82,4.27 7.95,0 15.37,-2.078 22.07,-6.168 6.72,-4.141 11.99,-10.16 15.9,-18.07 3.88,-7.95 5.84,-17.289 5.84,-28.129 0,-7.961 -1.12,-15.321 -3.34,-22.012 -2.25,-6.691 -5.38,-12.27 -9.28,-16.801 -3.95,-4.5 -8.58,-8.019 -13.93,-10.457 -5.41,-2.414 -11.09,-3.633 -17.26,-3.633 -7.37,0 -13.66,1.493 -18.66,4.473 -5.01,2.93 -9.82,7.328 -14.41,13.047 v -38.918 c 0,-11.359 -4.16,-17.102 -12.42,-17.102 -4.9,0 -8.11,1.45 -9.73,4.379 -1.5,3.004 -2.34,7.254 -2.34,12.91 v 111.954 c 0,4.949 1.05,8.589 3.2,11.078 2.17,2.379 5.12,3.629 8.87,3.629 3.67,0 6.66,-1.25 8.92,-3.739 2.39,-2.531 3.5,-6.101 3.5,-10.851 v 0" /><path
         id="path72"
         style="fill:#505256;fill-opacity:1;fill-rule:nonzero;stroke:none"
         d="m 4591.64,479.352 v -75.02 c 0,-5.16 -1.23,-9.082 -3.69,-11.723 -2.5,-2.699 -5.63,-4 -9.41,-4 -3.81,0 -6.84,1.321 -9.28,4.063 -2.35,2.758 -3.56,6.641 -3.56,11.66 v 74.277 c 0,5.09 1.21,8.942 3.56,11.543 2.44,2.649 5.47,3.907 9.28,3.907 3.78,0 6.91,-1.258 9.41,-3.907 2.46,-2.601 3.69,-6.222 3.69,-10.8 z m -12.83,26.777 c -3.61,0 -6.7,1.152 -9.22,3.351 -2.62,2.231 -3.89,5.329 -3.89,9.36 0,3.691 1.29,6.723 3.97,9.109 2.62,2.352 5.66,3.563 9.14,3.563 3.4,0 6.35,-1.071 8.92,-3.203 2.6,-2.18 3.91,-5.348 3.91,-9.469 0,-3.981 -1.27,-7.098 -3.77,-9.352 -2.54,-2.207 -5.57,-3.359 -9.06,-3.359 v 0" /><path
         id="path74"
         style="fill:#505256;fill-opacity:1;fill-rule:nonzero;stroke:none"
         d="m 4675.25,400.441 -22.83,37.661 -14.1,-13.282 v -20.66 c 0,-4.988 -1.33,-8.82 -3.96,-11.488 -2.58,-2.731 -5.67,-4.063 -9.07,-4.063 -3.98,0 -7.15,1.301 -9.41,4 -2.25,2.629 -3.44,6.563 -3.44,11.743 V 514.98 c 0,5.731 1.15,10.11 3.32,13.141 2.21,3.039 5.45,4.52 9.53,4.52 4.01,0 7.13,-1.371 9.5,-4.11 2.34,-2.711 3.53,-6.742 3.53,-12.011 v -62.942 l 29.16,30.621 c 3.61,3.762 6.33,6.41 8.28,7.781 1.88,1.391 4.18,2.079 6.88,2.079 3.26,0 5.93,-1.028 8.16,-3.079 2.11,-2.058 3.2,-4.66 3.2,-7.742 0,-3.777 -3.53,-8.879 -10.54,-15.207 l -13.77,-12.621 26.58,-41.832 c 1.95,-3.137 3.4,-5.43 4.24,-7.058 0.84,-1.598 1.31,-3.2 1.31,-4.622 0,-4.128 -1.14,-7.347 -3.42,-9.757 -2.23,-2.36 -5.24,-3.532 -8.85,-3.532 -3.16,0 -5.64,0.821 -7.32,2.551 -1.72,1.731 -4.11,4.852 -6.98,9.281 v 0" /><path
         id="path76"
         style="fill:#505256;fill-opacity:1;fill-rule:nonzero;stroke:none"
         d="m 4731.58,388.609 c -3.9,0 -7.26,1.262 -10.12,3.801 -2.85,2.488 -4.29,6.059 -4.29,10.653 0,3.859 1.37,7.187 4.12,9.949 2.73,2.777 6.05,4.187 10.08,4.187 3.96,0 7.36,-1.41 10.21,-4.117 2.79,-2.762 4.22,-6.121 4.22,-10.019 0,-4.524 -1.43,-8.083 -4.22,-10.602 -2.85,-2.59 -6.19,-3.852 -10,-3.852 v 0" /><path
         id="path78"
         style="fill:#505256;fill-opacity:1;fill-rule:nonzero;stroke:none"
         d="m 4860.57,420.711 c 0,-3.211 -0.96,-6.68 -2.91,-10.352 -1.9,-3.699 -4.87,-7.168 -8.85,-10.488 -3.95,-3.32 -8.91,-6.019 -14.94,-8.039 -6.02,-2.023 -12.82,-3.07 -20.3,-3.07 -16.07,0 -28.59,4.699 -37.59,14.019 -8.95,9.348 -13.46,21.879 -13.46,37.59 0,10.68 2.05,20.059 6.21,28.25 4.06,8.141 10.02,14.469 17.81,18.93 7.78,4.48 17.15,6.711 27.95,6.711 6.72,0 12.85,-0.992 18.52,-2.961 5.6,-1.949 10.31,-4.512 14.24,-7.59 3.86,-3.141 6.85,-6.43 8.9,-9.922 2.07,-3.508 3.07,-6.801 3.07,-9.867 0,-3.082 -1.15,-5.711 -3.42,-7.871 -2.36,-2.149 -5.16,-3.25 -8.4,-3.25 -2.19,0 -3.98,0.57 -5.41,1.66 -1.44,1.129 -3.04,2.91 -4.78,5.418 -3.17,4.781 -6.47,8.422 -9.98,10.801 -3.42,2.429 -7.8,3.621 -13.11,3.621 -7.62,0 -13.85,-2.981 -18.55,-8.981 -4.69,-5.949 -7.03,-14.191 -7.03,-24.539 0,-4.879 0.62,-9.379 1.83,-13.472 1.19,-4.079 2.91,-7.559 5.2,-10.438 2.3,-2.859 5.04,-5.051 8.26,-6.551 3.24,-1.531 6.81,-2.25 10.66,-2.25 5.18,0 9.63,1.2 13.34,3.602 3.79,2.41 7.03,6.078 9.87,11.027 1.58,2.91 3.26,5.172 5.09,6.832 1.82,1.629 4.1,2.489 6.76,2.489 3.16,0 5.8,-1.231 7.85,-3.618 2.11,-2.402 3.17,-4.992 3.17,-7.691 v 0" /><path
         id="path80"
         style="fill:#505256;fill-opacity:1;fill-rule:nonzero;stroke:none"
         d="m 4946.45,441.309 c 0,10.589 -2.33,18.812 -6.98,24.691 -4.63,5.949 -10.9,8.879 -18.73,8.879 -5.1,0 -9.55,-1.32 -13.44,-3.938 -3.88,-2.621 -6.81,-6.492 -8.9,-11.64 -2.09,-5.141 -3.15,-11.129 -3.15,-17.992 0,-6.789 1.02,-12.68 3.09,-17.731 2.09,-5.109 5.04,-8.976 8.87,-11.656 3.84,-2.672 8.34,-4.043 13.53,-4.043 7.83,0 14.1,2.953 18.73,8.91 4.65,5.91 6.98,14.113 6.98,24.52 z m 26.03,0 c 0,-7.7 -1.21,-14.84 -3.55,-21.387 -2.48,-6.52 -5.92,-12.133 -10.49,-16.781 -4.57,-4.692 -10.04,-8.282 -16.33,-10.801 -6.39,-2.481 -13.48,-3.75 -21.37,-3.75 -7.87,0 -14.94,1.269 -21.23,3.82 -6.23,2.488 -11.7,6.149 -16.25,10.82 -4.61,4.762 -8.1,10.348 -10.53,16.77 -2.28,6.441 -3.51,13.551 -3.51,21.309 0,7.871 1.25,15.062 3.61,21.582 2.4,6.55 5.88,12.121 10.39,16.73 4.49,4.621 9.92,8.168 16.29,10.699 6.43,2.489 13.5,3.739 21.23,3.739 7.83,0 14.96,-1.25 21.37,-3.809 6.37,-2.512 11.84,-6.148 16.44,-10.801 4.57,-4.738 8.03,-10.289 10.4,-16.711 2.34,-6.519 3.53,-13.597 3.53,-21.429 v 0" /><path
         id="path82"
         style="fill:#505256;fill-opacity:1;fill-rule:nonzero;stroke:none"
         d="m 5071.41,439.41 v -34.469 c 0,-5.472 -1.2,-9.511 -3.7,-12.269 -2.5,-2.731 -5.7,-4.082 -9.78,-4.082 -3.91,0 -7.13,1.351 -9.49,4.082 -2.48,2.758 -3.75,6.797 -3.75,12.269 v 41.309 c 0,6.539 -0.18,11.621 -0.63,15.25 -0.45,3.531 -1.66,6.551 -3.63,8.82 -1.95,2.36 -5.06,3.52 -9.28,3.52 -8.53,0 -14.08,-2.899 -16.78,-8.809 -2.67,-5.761 -4.04,-14.129 -4.04,-25.07 v -35.02 c 0,-5.382 -1.25,-9.461 -3.63,-12.23 -2.5,-2.742 -5.66,-4.121 -9.65,-4.121 -3.94,0 -7.17,1.379 -9.67,4.121 -2.52,2.769 -3.75,6.848 -3.75,12.23 v 74.188 c 0,4.902 1.1,8.609 3.34,11.121 2.29,2.559 5.26,3.809 8.89,3.809 3.57,0 6.52,-1.227 8.93,-3.547 2.34,-2.383 3.53,-5.66 3.53,-9.84 v -2.461 c 4.53,5.359 9.36,9.309 14.45,11.809 5.14,2.589 10.82,3.859 17.13,3.859 6.51,0 12.11,-1.309 16.78,-3.899 4.69,-2.601 8.53,-6.55 11.6,-11.769 4.4,5.289 9.08,9.23 14.1,11.809 5.02,2.57 10.51,3.859 16.62,3.859 7.05,0 13.21,-1.43 18.34,-4.188 5.1,-2.793 8.93,-6.8 11.47,-11.953 2.21,-4.726 3.3,-12.097 3.3,-22.168 v -50.629 c 0,-5.472 -1.21,-9.511 -3.67,-12.269 -2.46,-2.731 -5.74,-4.082 -9.79,-4.082 -3.94,0 -7.13,1.379 -9.65,4.121 -2.5,2.769 -3.75,6.848 -3.75,12.23 v 43.618 c 0,5.582 -0.25,10.031 -0.7,13.382 -0.47,3.36 -1.76,6.2 -3.83,8.457 -2.11,2.282 -5.31,3.442 -9.53,3.442 -3.42,0 -6.66,-1.059 -9.73,-3.078 -3.08,-1.981 -5.48,-4.762 -7.22,-8.133 -1.84,-4.379 -2.83,-12.117 -2.83,-23.219 v 0" /><path
         id="path84"
         style="fill:#505256;fill-opacity:1;fill-rule:nonzero;stroke:none"
         d="m 3864.36,447.59 c 0,0.051 0,0.101 0,0.18 0,-0.079 0,-0.129 0,-0.18 v 0" /><path
         id="path86"
         style="fill:#505256;fill-opacity:1;fill-rule:nonzero;stroke:none"
         d="m 3865.66,439.301 h 0.02 c -0.48,2.359 -0.86,4.711 -1.19,7.019 0.33,-2.332 0.71,-4.691 1.17,-7.019 v 0" /><path
         id="path88"
         style="fill:#505256;fill-opacity:1;fill-rule:nonzero;stroke:none"
         d="m 3874.26,415.238 c -0.06,0.094 -0.12,0.203 -0.18,0.332 0.06,-0.129 0.12,-0.238 0.18,-0.332 v 0" /><path
         id="path90"
         style="fill:#505256;fill-opacity:1;fill-rule:nonzero;stroke:none"
         d="m 3873.44,416.84 c -0.24,0.441 -0.45,0.898 -0.67,1.34 0.22,-0.469 0.43,-0.899 0.67,-1.34 v 0" /><path
         id="path92"
         style="fill:#505256;fill-opacity:1;fill-rule:nonzero;stroke:none"
         d="m 3868.07,430.031 c 1.29,-4 2.81,-7.879 4.57,-11.582 -1.8,3.781 -3.28,7.672 -4.53,11.582 h -0.04" /><path
         id="path94"
         style="fill:#505256;fill-opacity:1;fill-rule:nonzero;stroke:none"
         d="m 3964.73,546.961 c 5.02,0 8.71,-0.41 12.97,-1.121 l 1.19,7.629 c 0,0 -11.72,3.601 -27.11,2.34 l -1.21,4.152 c 4.78,1.008 8.38,5.269 8.38,10.34 0,5.828 -4.75,10.539 -10.59,10.539 -5.82,0 -10.55,-4.711 -10.55,-10.539 0,-5.071 3.6,-9.332 8.38,-10.34 l 1.33,-4.629 c -16.35,-2.242 -29.36,-8.621 -29.36,-8.621 l 2.31,-7.051 c 9.88,3.289 18.46,5.289 26.25,6.129 7.6,0.813 13.34,1.172 18.01,1.172 v 0" /><path
         id="path96"
         style="fill:#505256;fill-opacity:1;fill-rule:nonzero;stroke:none"
         d="m 3874.06,508.379 0.06,0.07 c 0.37,0.5 0.76,0.981 1.13,1.43 l -3.14,2.25 -4.86,3.57 c -0.3,-0.39 -7.97,-7.437 -14.03,-20.48 -0.25,0.41 -0.56,0.82 -0.9,1.191 -1.81,1.981 -4.35,3 -7.57,2.942 h -0.16 c -1.99,0 -3.36,0.66 -4.26,1.468 0.9,1.141 1.43,2.559 1.43,4.129 0,3.68 -2.99,6.692 -6.7,6.692 -3.69,0 -6.68,-3.012 -6.68,-6.692 0,-3.699 2.99,-6.687 6.68,-6.687 0.58,0 1.13,0.097 1.68,0.207 1.64,-1.84 4.24,-3.418 8.08,-3.34 1.96,0.012 3.38,-0.488 4.36,-1.551 1.12,-1.207 1.48,-2.949 1.6,-4.277 0,-0.02 0,-0.051 -0.02,-0.051 -4.37,-11.891 -3.12,-26.711 -3.12,-26.711 l 10.58,-0.41 c 0.22,5.391 0.98,14.832 3.71,22.312 5.28,14.489 11.86,23.551 12.13,23.938 v 0" /><path
         id="path98"
         style="fill:#505256;fill-opacity:1;fill-rule:nonzero;stroke:none"
         d="m 4056.72,538.121 c -3.67,0 -6.68,-2.992 -6.68,-6.691 0,-0.578 0.1,-1.129 0.23,-1.649 -1.83,-1.66 -3.41,-4.281 -3.36,-8.121 0.02,-1.949 -0.46,-3.39 -1.56,-4.351 -0.84,-0.758 -1.89,-1.161 -2.97,-1.407 -7.87,11.028 -17.54,17.746 -17.54,17.746 l -7.59,-8.128 c 5.74,-5.219 11.6,-11.739 17.28,-19.899 3.95,-5.652 7.99,-12.902 11.37,-20.152 l 10.23,4.871 c 0,0 -4.67,11.551 -11.27,21.91 1.16,0.402 2.33,1.02 3.32,1.91 2.02,1.82 2.99,4.379 2.93,7.59 -0.02,2.082 0.69,3.488 1.51,4.41 1.13,-0.859 2.56,-1.418 4.1,-1.418 3.71,0 6.7,2.996 6.7,6.688 0,3.699 -2.99,6.691 -6.7,6.691 v 0" /><path
         id="path100"
         style="fill:#505256;fill-opacity:1;fill-rule:nonzero;stroke:none"
         d="m 4030.16,446.102 c -14.09,-6.872 -37.29,-15.942 -67.82,-20.2 -11.99,-1.66 -23.59,-2.273 -34.29,-2.273 -13.91,0 -26.17,1.031 -35.61,2.23 -10.76,1.352 -19.18,3.012 -24.33,4.161 1.23,-3.899 2.73,-7.79 4.55,-11.571 0.02,-0.097 0.05,-0.211 0.11,-0.269 0.22,-0.442 0.43,-0.899 0.67,-1.34 0.19,-0.438 0.43,-0.871 0.64,-1.27 0.06,-0.121 0.12,-0.238 0.18,-0.332 3.01,-5.707 6.66,-10.949 10.8,-15.488 14.41,-15.75 29.06,-18.238 29.2,-18.262 l 0.23,-0.027 0.22,-0.082 c 0.13,-0.059 13.14,-4.238 32.91,-4.238 19.45,0 38.55,3.918 56.76,11.66 13.47,6.898 26.21,17.359 32.51,26.699 4.89,7.23 8.42,14.93 10.51,22.941 1.12,4.258 1.99,11.071 1.47,18.239 -3.97,-2.66 -10.22,-6.45 -18.71,-10.578 v 0" /><path
         id="path102"
         style="fill:#505256;fill-opacity:1;fill-rule:nonzero;stroke:none"
         d="m 3918.87,512.391 c 15.56,0 28.16,-12.61 28.16,-28.172 0,-15.559 -12.6,-28.141 -28.16,-28.141 -15.57,0 -28.17,12.582 -28.17,28.141 0,15.562 12.6,28.172 28.17,28.172 z m 82.4,-0.692 c 9.63,0 17.44,-7.797 17.44,-17.429 0,-9.618 -7.81,-17.438 -17.44,-17.438 -9.59,0 -17.42,7.82 -17.42,17.438 0,9.632 7.83,17.429 17.42,17.429 z m -122.7,-6.668 c -0.41,-0.59 -6.52,-9.25 -11.32,-22.539 -3.62,-9.933 -3.46,-24.422 -3.46,-24.594 v -0.027 c 0,-3.402 0.16,-6.762 0.57,-10.101 0,-0.079 0,-0.118 0,-0.18 0.03,-0.43 0.11,-0.84 0.15,-1.27 0.31,-2.308 0.69,-4.66 1.21,-7.007 6.98,-1.793 48.75,-11.532 95.45,-5.032 29.28,4.071 51.51,12.719 65,19.27 11.21,5.437 18.42,10.359 21.19,12.379 -2.77,10.281 -10.43,26.41 -17.42,36.468 -20.06,28.653 -41.66,36.004 -52.77,37.832 -4.24,0.692 -7.62,1.09 -12.44,1.09 -4.48,0 -10.02,-0.351 -17.43,-1.14 -7.42,-0.77 -15.72,-2.731 -25.33,-5.961 -13.47,-4.5 -25.66,-11.598 -35.25,-20.477 l -0.33,-0.301 c -1.43,-1.312 -4.4,-4.062 -7.82,-8.41 v 0" /></g></g></svg>