<?xml version="1.0" encoding="utf-8"?>
<!-- Generator: Adobe Illustrator 19.2.1, SVG Export Plug-In . SVG Version: 6.00 Build 0)  -->
<svg version="1.1" id="Layer_1" xmlns="http://www.w3.org/2000/svg" xmlns:xlink="http://www.w3.org/1999/xlink" x="0px" y="0px"
	 viewBox="0 0 513 125" style="enable-background:new 0 0 513 125;" xml:space="preserve">
<style type="text/css">
	.st0{fill:#FE69B2;}
	.st1{fill:#FE69B3;}
</style>
<g>
	<path class="st0" d="M199.6,63.4c0-17.7,0-35.4,0-53.2c0-2.1,0-2.1-2.2-2.1c-3.8,0-7.5,0-11.3,0c-0.8,0-1.5,0.2-1.5-1.1
		c0-1.2,0.6-1.1,1.4-1.1c7.3,0,14.6,0,21.8,0c5.2,0,10.5-0.1,15.7-0.3c5.3-0.2,10.6-0.4,15.8-0.1c8.4,0.4,16.6,1.8,23.9,6.3
		c5.4,3.3,9.7,7.7,11.3,14c2.2,8.6,1,16.5-5.8,22.9c-4.2,3.9-9.3,6.1-14.8,7.6c-3.1,0.8-6.3,1.4-9.5,1.7c-0.3,0-0.8-0.1-0.8,0.4
		s0.5,0.5,0.8,0.5c4.9,0.9,9.7,1.8,14.5,3.1c4.7,1.2,9.1,3.1,12.6,6.5c3.7,3.6,5.6,8,6.5,12.9c0.9,4.6,1,9.2,1.4,13.8
		c0.6,6.3,0.7,12.6,2.1,18.8c1.2,5.1,4.7,6.2,9.3,5.1c2.4-0.6,3.9-2.5,5.6-4c0.7-0.7,1.2-1,2-0.1c0.5,0.5,0.5,0.8,0,1.3
		c-3.1,3.3-6.7,5.6-11.3,6.3c-5.7,0.8-11.3,0.9-16.9-0.7c-7.8-2.3-12.5-7.6-14.1-15.5c-0.6-3-0.8-6-1-9c-0.4-6.6-0.4-13.3-1.7-19.9
		c-0.8-4.1-2.2-8.1-5-11.4c-2.8-3.3-6.4-5-10.7-5.5c-4.7-0.6-9.4-0.1-14.1-0.3c-0.6,0-0.9,0.2-0.8,0.8c0,0.2,0,0.4,0,0.6
		c0,18.5,0,37,0,55.5c0,1.1,0.3,1.4,1.4,1.4c4.2-0.1,8.3,0,12.5,0c0.9,0,1.1,0.3,1.1,1.1c0,0.9-0.2,1.2-1.1,1.2c-17,0-34,0-51,0
		c-0.8,0-1.2-0.1-1.2-1.1s0.4-1.2,1.3-1.2c4,0,8.1,0,12.1,0c1.2,0,1.5-0.2,1.5-1.5C199.6,99.4,199.6,81.4,199.6,63.4z M223.2,33.1
		c0,8,0,15.9,0,23.9c0,0.5-0.3,1.2,0.7,1.2c4.2-0.1,8.5,0.2,12.7-0.5c7.3-1.3,11.9-5.4,13.3-12.6c1.5-8,1.3-16-0.4-23.9
		c-1.7-7.5-6.3-12-14-13c-3.7-0.5-7.3-0.3-11,0c-1,0.1-1.2,0.4-1.2,1.3C223.2,17.3,223.2,25.2,223.2,33.1z"/>
	<path class="st1" d="M23.2,63.4c0-17.9,0-35.8,0-53.8c0-1.2-0.3-1.5-1.5-1.5c-4.1,0.1-8.2,0-12.2,0.1C8.6,8.2,8.3,8,8.3,7.1
		S8.6,6,9.5,6c9,0,18.1,0.1,27.1,0C44.8,5.8,53,5.3,61.2,5.5c8.5,0.2,16.7,1.5,24.3,5.6c5.6,3,10,7.1,12,13.2
		c1.8,5.4,1.9,10.9-0.4,16.2c-1.9,4.4-5.2,7.5-9,10.2c-5.6,3.9-11.9,6-18.6,7.4c-0.9,0.2-1.8,0.3-2.7,0.5c-0.3,0-0.6,0-0.6,0.4
		s0.4,0.3,0.7,0.3c4.3,0.4,8.6,1.1,12.7,2.2c8.7,2.2,16.2,6.3,21.3,14c3,4.6,3.8,9.7,3.8,15.1c0,9.3-4.4,16.2-11.7,21.5
		c-6.3,4.6-13.4,6.9-21,8.2c-5,0.8-10,1.3-15,1.1c-4.7-0.1-9.4-0.1-14.1-0.2c-11.1-0.4-22.1-0.1-33.2-0.2c-1,0-1.3-0.2-1.3-1.2
		c0-0.8,0.3-1,1-1c4.2,0,8.3,0,12.5,0c1.1,0,1.4-0.3,1.4-1.4C23.2,99.4,23.2,81.4,23.2,63.4z M53.1,60.5c-1.6,0-3.3,0.1-4.9,0
		c-1.2-0.1-1.5,0.3-1.5,1.5c0,18.4,0,36.9,0,55.3c0,0.2,0,0.5,0,0.7c0,0.5,0.2,0.8,0.7,0.8c4.7,0.3,9.3,0.7,14,0
		c3.2-0.5,6.2-1.3,8.8-3.4c3.4-2.7,5.1-6.5,6.3-10.5c1.6-5.8,1.8-11.7,1.7-17.6c-0.1-4.9-0.5-9.7-2.5-14.3
		c-2.7-6-6.8-10.4-13.5-11.9C59.3,60.4,56.2,60.4,53.1,60.5z M46.7,33.1c0,4.8,0,9.5,0,14.3c0,3.2,0,6.5,0,9.7c0,0.6,0,1,0.8,1
		c4.2-0.1,8.5,0.2,12.7-0.5c7.5-1.2,12.7-6.7,13.5-14.1c0.5-4.5,0.7-8.9,0.5-13.4C74,27,73.7,23.9,73,20.9c-1.6-6.5-5.2-11-12-12.4
		c-4.1-0.9-8.2-0.9-12.4-0.4c-1.8,0.3-1.8,0.3-1.8,2C46.7,17.8,46.7,25.4,46.7,33.1z"/>
	<path class="st1" d="M422.6,103c0-5.5,0-11,0-16.6c0-0.5-0.3-1.4,0.7-1.3c0.7,0.1,1.7-0.5,2,0.9c1.4,7.5,4.2,14.5,8.8,20.7
		c5,6.7,11.3,11.7,19.7,13.6c4.1,0.9,8.3,0.7,12.4,0.5c5.7-0.2,11-1.7,15.5-5.2c4.9-3.7,8.1-8.6,9.3-14.7c0.8-4.2,0.9-8.4-1-12.5
		c-1.6-3.5-4.4-6-7.6-7.9c-4.4-2.7-9.3-4.3-14.3-5.8c-8-2.3-16-4.4-23.6-7.9c-8.4-3.9-15.1-9.6-17.9-18.8c-2.5-8-2.4-16,1.2-23.7
		c1.7-3.7,4.1-6.9,7.1-9.8C440.6,9,447.4,5.6,455.1,4c6.8-1.3,13.6-1.2,20.4,0.7c4,1.1,7.9,2.6,11.8,4c1.1,0.4,2.3,0.6,3.5,0.5
		c1.5-0.1,2.7-0.8,3.3-2.3c0.4-1,1.8-1.5,2.8-1c0.5,0.3,0.3,0.8,0.3,1.2c0,6.4,0,12.9,0,19.3c0,3,0,5.9,0,8.9c0,0.5,0.4,1.2-0.6,1.3
		c-0.8,0.1-1.5,0.2-1.9-1c-1.6-4.7-3.2-9.5-5.5-14c-1.4-2.9-3.2-5.7-5.5-8c-3.8-4-8.4-6.7-14-7.5c-6.2-0.9-12.2-0.7-18.1,1.5
		c-6.2,2.4-11.1,6.3-13.6,12.7c-1.9,4.9-1.2,11.6,2.8,15.8c3.9,4,8.6,6.6,13.7,8.5c7.4,2.8,15,4.7,22.4,7.4c5.5,2,11,3.9,15.8,7.2
		c5.4,3.7,9.8,8.4,11.9,14.7c1.4,4.2,1.7,8.6,1.4,13c-0.5,6.9-2.9,13-6.8,18.5c-3.3,4.6-7.4,8.2-12.3,11.1
		c-5.5,3.3-11.4,5.3-17.7,6.2c-3.5,0.5-7,0.8-10.5,0.5c-6.2-0.5-12.3-1.9-18.3-3.5c-3-0.8-5.9-1.5-8.9-2.3c-1-0.3-2.1-0.2-3.1-0.1
		c-1.7,0.2-2.6,1.2-3.2,2.7c-0.3,0.8-2.2,1.3-2.8,0.8c-0.4-0.3-0.2-0.7-0.2-1.1C422.6,114.2,422.6,108.6,422.6,103z"/>
	<path class="st0" d="M318.2,63.4c0-17.9,0-35.8,0-53.8c0-1.2-0.3-1.5-1.5-1.5c-4.1,0.1-8.2,0-12.2,0c-0.9,0-1.2-0.2-1.2-1.1
		s0.3-1.1,1.2-1.1c17,0,33.9,0,50.9,0c0.9,0,1.1,0.3,1.2,1.2c0,1-0.4,1.1-1.2,1.1c-4,0-8.1,0-12.1,0c-1.6,0-1.6,0-1.6,1.6
		c0,24.4,0,48.7,0,73.1c0,11.5,0,23,0,34.4c0,1.2,0.3,1.6,1.5,1.5c8-0.1,16.1,0,24.1,0c12.1,0,21.5-5.1,28.4-15
		c3.8-5.5,6.2-11.7,7.8-18.2c0.3-1.1,0.9-1.4,2-1.1c0.3,0.1,0.4,0.2,0.4,0.5s0,0.6,0,1c0,11.2,0,22.4,0,33.6c0,1.1-0.2,1.5-1.4,1.5
		c-33.2,0-66.5,0-99.7,0c-0.9,0-1.5-0.1-1.4-1.3c0.1-0.8,0.3-1,1.1-1c4.2,0,8.3,0,12.5,0c1.1,0,1.4-0.3,1.4-1.4
		C318.2,99.4,318.2,81.4,318.2,63.4z"/>
	<path class="st0" d="M134.6,63.4c0-17.9,0-35.8,0-53.8c0-1.2-0.3-1.5-1.5-1.4c-4.1,0.1-8.2,0-12.4,0.1c-1,0-1.1-0.3-1.1-1.2
		s0.3-1.1,1.1-1.1c17,0,34,0,51,0c0.8,0,1.1,0.3,1.1,1.1c0,0.9-0.2,1.2-1.1,1.2c-4.1,0-8.2,0-12.4,0c-1.1,0-1.4,0.3-1.4,1.4
		c0.1,5.2,0,10.3,0,15.5c0,30.7,0,61.4,0,92c0,1.7,0,1.7,1.7,1.7c4,0,8.1,0,12.1,0c0.9,0,1.1,0.3,1.1,1.2c0,0.9-0.3,1.1-1.1,1.1
		c-17,0-34,0-51,0c-0.8,0-1.1-0.3-1.1-1.1c0-0.9,0.2-1.2,1.1-1.2c4.2,0,8.3,0,12.5,0c1.1,0,1.3-0.3,1.3-1.3
		C134.6,99.4,134.6,81.4,134.6,63.4z"/>
</g>
</svg>
