<?xml version="1.0" encoding="iso-8859-1"?>
<!-- Generator: Adobe Illustrator 19.0.0, SVG Export Plug-In . SVG Version: 6.00 Build 0)  -->
<svg version="1.1" id="Layer_1" xmlns="http://www.w3.org/2000/svg" xmlns:xlink="http://www.w3.org/1999/xlink" x="0px" y="0px"
	 viewBox="0 0 511.999 511.999" style="enable-background:new 0 0 511.999 511.999;" xml:space="preserve">
<polygon style="fill:#F1F2F2;" points="314.857,10.451 256.001,128.176 256.001,215.25 326.052,215.25 390.799,44.813 "/>
<polygon style="fill:#FF4444;" points="359.699,30.741 256.001,128.176 314.857,10.451 "/>
<polygon style="fill:#FFFFFF;" points="197.144,10.451 256,128.176 256,215.25 185.95,215.25 121.201,44.813 "/>
<polygon style="fill:#FF4444;" points="152.301,30.741 256,128.176 197.144,10.451 "/>
<path style="fill:#FFD41D;" d="M185.95,215.25L64.232,407.888c0,0,72.976,93.663,191.767,93.663s191.767-93.663,191.767-93.663
	L326.052,215.25H185.95z"/>
<path d="M456.601,402.306L337.673,214.082l62.893-165.557c1.961-5.162-0.43-10.955-5.461-13.23L319.163,0.932
	c-5.117-2.315-11.144-0.173-13.653,4.847l-49.511,99.032L206.49,5.779c-1.884-3.767-5.745-5.913-9.715-5.773
	c-1.325,0.046-2.66,0.347-3.938,0.926l-75.944,34.362c-5.029,2.276-7.422,8.07-5.461,13.23l62.894,165.556L55.399,402.306
	c-2.354,3.726-2.117,8.527,0.59,12.004c0.784,1.006,19.582,24.908,53.544,48.939c7.487,5.297,16.09,10.834,25.704,16.2
	c0.08,0.047,0.16,0.093,0.242,0.137c30.72,17.107,71.808,32.414,120.519,32.414H256l0,0l0,0c48.634,0,89.669-15.259,120.374-32.333
	c0.205-0.107,0.404-0.218,0.599-0.335c9.527-5.329,18.061-10.823,25.491-16.082c33.962-24.03,52.761-47.932,53.544-48.939
	C458.718,410.834,458.955,406.033,456.601,402.306z M318.843,204.801h-52.394v-72.105l95.31-89.555l15.783,7.142L318.843,204.801z
	 M341.161,33.821l-49.61,46.615l28.158-56.322L341.161,33.821z M192.293,24.114l28.158,56.322l-49.61-46.615L192.293,24.114z
	 M150.242,43.142l95.31,89.555v72.105h-52.394L134.456,50.284L150.242,43.142z M376.48,455.306l-67.626-157.881
	c-2.273-5.305-8.411-7.76-13.719-5.491c-5.304,2.273-7.764,8.415-5.491,13.719l68.534,160c-25.521,13.09-56.406,23.442-91.729,25.18
	V346.636c0-5.77-4.679-10.449-10.449-10.449c-5.771,0-10.449,4.679-10.449,10.449v144.202
	c-35.886-1.781-66.969-12.512-91.728-25.145l68.531-160.039c2.272-5.305-0.187-11.447-5.492-13.718
	c-5.308-2.272-11.448,0.187-13.718,5.492L135.507,455.38c-4.789-2.956-9.25-5.914-13.341-8.794
	c-22.273-15.676-37.73-31.536-44.988-39.626l114.527-181.26h128.586l114.524,181.257
	C426.219,416.522,406.087,436.967,376.48,455.306z"/>
<path d="M256.001,297.705c-5.771,0-10.449,4.678-10.449,10.449v4.678c0,5.77,4.678,10.449,10.449,10.449
	c5.77,0,10.449-4.679,10.449-10.449v-4.678C266.45,302.385,261.771,297.705,256.001,297.705z"/>
<g>
</g>
<g>
</g>
<g>
</g>
<g>
</g>
<g>
</g>
<g>
</g>
<g>
</g>
<g>
</g>
<g>
</g>
<g>
</g>
<g>
</g>
<g>
</g>
<g>
</g>
<g>
</g>
<g>
</g>
</svg>
