<?xml version="1.0" encoding="utf-8"?>
<!-- Generator: Adobe Illustrator 19.2.1, SVG Export Plug-In . SVG Version: 6.00 Build 0)  -->
<svg fill="#000000" version="1.1" id="Layer_1" xmlns="http://www.w3.org/2000/svg" xmlns:xlink="http://www.w3.org/1999/xlink" x="0px" y="0px"
	 viewBox="0 0 246 150" style="enable-background:new 0 0 246 150;" xml:space="preserve">
<g>

	<path d="M88.6,19.7v1.2c0,4.8-1.5,10.4-4.4,16.6c-2.9,6.2-6.5,11.6-10.8,16.3c-2.3,2.5-5,4.7-8.1,6.5c-3.1,1.8-6.2,2.7-9.4,2.7
		c-6,0-8.9-4.5-8.9-13.4c0-3.3,0.4-7.1,1.3-11.4c-3.9,7.7-7.6,13.6-11.2,17.7c-4.5,5.2-9.2,7.8-14.2,7.8c-2.3,0-4.1-0.8-5.6-2.5
		c-1.5-1.7-2.2-4.4-2.2-8.1c0-4.8,1.7-10.8,5.1-18c3.4-7.1,7.5-12.8,12.3-17c0.9-0.8,1.9-1.5,3.2-1.9c-1.8,0.4-4.6,0.8-8.4,1.2
		c-3.8,0.4-6.3,0.8-7.6,1c-5.1,1.2-7.7,4.2-7.7,9.2c-1.5-1.5-2.2-3.2-2.2-5c0-6.3,6.1-9.5,18.3-9.5h14.8c0.1,0,0.1,0.1,0.1,0.3
		c0,0.2-0.3,0.6-0.9,1.3c-0.6,0.7-1.2,1.2-1.7,1.5c-2.1,1.2-4.4,3.8-7.1,7.8c-2.7,3.9-5.1,8.6-7.3,14c-2.2,5.4-3.3,10.2-3.3,14.5
		c0,4.3,1.5,6.4,4.5,6.4c3.4,0,8.7-5.4,16-16.1c1.5-2.3,3.2-5.6,5.1-10.1c1.9-4.5,3.3-7.5,4-8.9c0.8-1.5,2.1-3,4.1-4.5
		c2-1.5,3.8-2.3,5.5-2.3c1.7,0,2.5,0.2,2.5,0.7c-2.5,3.5-4.9,8.1-7.2,14c-2.3,5.9-3.4,11.5-3.4,16.9c0,6.6,1.9,10,5.8,10.2
		c2.5,0,5-1.2,7.4-3.6c2.4-2.4,4.5-5.2,6.1-8.3c1.7-3.1,3.2-6.7,4.6-10.6c2.4-6.6,3.7-11.8,3.7-15.7c0-3.9-1.3-5.8-3.8-5.8
		c-0.8,0-1.6,0.2-2.6,0.5c0.1-0.9,0.7-1.6,1.8-2.1c1.1-0.6,2.5-0.8,4.2-0.8c1.8,0,3.4,0.6,4.9,1.8C87.6,15.4,88.4,17.3,88.6,19.7z"
		/>
	<path d="M112.6,44.7c0.3,0,0.4,0.5,0.4,1.4s-0.4,2.1-1.2,3.3c-0.8,1.3-1.5,2.5-2.3,3.7c-0.7,1.2-1.7,2.5-3,4
		c-1.2,1.5-2.5,2.8-3.7,3.7c-3,2.2-6.1,3.3-9.1,3.3c-3,0-5.5-0.8-7.4-2.3c-1.9-1.6-2.8-3.9-2.8-7.2c0-4.9,1.8-9.4,5.4-13.6
		c3.6-4.2,7.8-6.3,12.6-6.3c2.2,0,3.9,0.6,5.2,1.7c1.3,1.1,1.9,2.5,1.9,4.1c0,2.7-1.3,4.8-3.8,6.5c-2.5,1.6-5.5,2.4-9,2.4
		c-2,0-3.5-0.3-4.5-0.8c-0.9,2.4-1.4,4.6-1.4,6.5c0,4,1.7,6,5.1,6c2,0,4.1-0.8,6.2-2.3c2.1-1.6,4-3.3,5.5-5.3
		c1.5-1.9,3.2-4.7,5.1-8.4C112.3,44.9,112.4,44.7,112.6,44.7z M104.9,39c0-1.4-0.7-2.1-2-2.1c-1.9,0-4,1.2-6.3,3.5s-3.5,4.2-3.5,5.6
		c0,1,0.9,1.4,2.7,1.4c1.8,0,3.7-0.9,5.7-2.7C103.6,43,104.7,41.1,104.9,39z"/>
	<path d="M120.3,34.6l3.6,0.1h0.7c-0.8,0.6-1.8,2.1-3.1,4.7c-1.3,2.5-2.2,4.5-2.8,5.8c-0.6,1.3-1.3,3-2.1,5.3
		c-0.8,2.2-1.2,4-1.2,5.4c0,1.4,0.5,2.1,1.4,2.1c0.6,0,1.5-0.4,2.6-1.3c1.1-0.8,2.1-1.7,2.8-2.7c0.7-0.9,1.5-2.1,2.4-3.6
		c0.9-1.4,1.7-2.7,2.3-3.7c0.6-1.1,1-1.6,1.1-1.6c0.3,0,0.4,0.4,0.4,1.3c0,0.9-0.2,1.7-0.7,2.6c-1.8,3-3.4,5.5-4.9,7.5
		c-1.5,2-3.1,3.7-5,5.2c-1.9,1.5-3.6,2.2-5.1,2.2c-2.7,0-4-1.9-4-5.6c0-5.8,2-12.2,6-19.3C116.4,36.1,118.3,34.6,120.3,34.6z
		 M130.1,25.1h-0.3c-1,0-1.9,0.4-2.8,1.2c-0.9,0.8-1.5,1.7-1.9,2.5c-1.2-0.5-1.9-1.3-1.9-2.6c0-1.2,0.6-2.5,1.7-3.8
		c1.2-1.3,2.3-1.9,3.3-1.9c1.1,0,1.8,0.2,2.4,0.7c0.5,0.5,0.8,1.1,0.8,1.8C131.5,23.9,131,24.5,130.1,25.1z"/>
	<path d="M144.5,34.5l3.7,0.1h0.7c-0.7,0.5-1.7,2.1-3.1,4.7c-1.3,2.6-2.3,4.5-3,5.9c-0.6,1.3-1.4,3.1-2.2,5.3s-1.2,4-1.2,5.4
		c0,1.4,0.5,2.1,1.4,2.1c0.6,0,1.5-0.5,2.6-1.3c1.1-0.8,2.1-1.7,2.8-2.7c0.7-0.9,1.6-2.1,2.4-3.6c0.9-1.5,1.7-2.7,2.3-3.8
		c0.6-1.1,1-1.6,1.1-1.6c0.3,0,0.5,0.4,0.5,1.3c0,0.9-0.2,1.7-0.7,2.6c-2.1,3.4-3.8,6-5.1,7.8c-1.3,1.8-3,3.5-4.9,5
		c-1.9,1.5-3.6,2.3-5.1,2.3c-2.7,0-4.1-2-4.1-6c0-2.7,0.5-5.8,1.6-9.3c1.1-3.5,2.6-6.8,4.7-10c-1.7,1.3-3.4,2-5,2
		c-0.5,0-1.1-0.1-1.7-0.4c-3.4,6.7-5.2,10.1-5.5,10.1c-0.3,0-0.4-0.4-0.4-1.2s0.3-1.9,0.9-3.3c0.6-1.4,1.2-2.8,1.9-4.1
		c0.7-1.3,1.1-2,1.1-2.2c-1.7-0.9-2.6-2.3-2.6-4.2c0-1,0.3-1.8,0.9-2.6c0.6-0.8,1.4-1.2,2.5-1.2c1.1,0,1.9,0.3,2.6,1
		c-0.1,0.3-0.1,0.7-0.1,1.3c0,1.3,0.5,2.3,1.4,3.1c0.9,0.7,2.1,1.1,3.4,1.1c0.4,0,0.7,0,0.9-0.1C141,35.7,142.7,34.5,144.5,34.5z"/>
	<path d="M190,16.3c-1.6,1.2-3.7,4.4-6.2,9.7c-2.6,5.3-4.8,10.9-6.8,16.8c-2,5.9-3,10.1-3,12.8c0,1.5,0.4,2.3,1.2,2.3
		c0.8,0,1.8-0.5,3.1-1.6c1.2-1.1,2.1-1.9,2.6-2.7c0.5-0.7,1.2-1.8,2.1-3.3c0.9-1.5,1.7-2.7,2.3-3.8c0.6-1.1,1-1.6,1.1-1.6
		c0.3,0,0.5,0.5,0.5,1.4c0,1.7-2,5.2-6,10.5c-1.3,1.7-2.9,3.3-4.7,4.8c-1.8,1.5-3.5,2.2-5,2.2c-2.5,0-3.8-1.9-3.8-5.7
		c0-2.8,0.7-6.4,2.1-10.7c-2.2,4.4-4.7,8.2-7.6,11.4c-2.8,3.2-5.7,4.8-8.5,4.8c-3.2,0-4.8-2.2-4.8-6.6c0-3.4,0.7-6.8,2.2-10.2
		c1.5-3.5,3.6-6.4,6.3-8.8c2.7-2.4,5.7-3.6,8.9-3.6c3.2,0,5.4,1.1,6.6,3.2c1.3-2.6,2.7-5.7,4.1-9.1c1.4-3.5,2.4-5.7,2.8-6.7
		c0.5-1,0.8-1.8,1-2.3c0.2-0.5,0.5-0.9,0.8-1.4c0.5-0.7,1.2-1.1,1.9-1.3c0.7-0.2,1.9-0.3,3.6-0.3C188.7,16.4,189.7,16.4,190,16.3z
		 M172.4,38.4c-0.6-0.9-1.5-1.3-2.9-1.3c-2.2,0-4.3,1.1-6.5,3.3c-2.2,2.2-3.9,4.7-5.3,7.6c-1.3,2.9-2,5.4-2,7.5
		c0,1.5,0.6,2.2,1.7,2.2C161.4,57.7,166.3,51.2,172.4,38.4z"/>
	<path d="M208.9,39l-3.2-0.5c-4.4,0-8.1,1.7-11.2,5c-3.1,3.3-4.6,6.7-4.6,10c0,2.6,0.9,4.8,2.6,6.6c1.7,1.8,4.2,2.7,7.3,2.7
		c5.1,0,9.2-1.4,12.3-4.1c3.1-2.7,4.6-5.6,4.6-8.6c0-3-1.3-4.5-4-4.5c-0.8,0-1.5,0.5-2.2,1.5c-0.6,1-1,1.9-1,2.7
		c-0.8-0.9-1.2-2-1.2-3.1c0-1.2,0.7-2.4,2-3.6c1.3-1.2,3-2.1,5.1-2.8l10.9-3.3c4.8-1.4,7.6-2.9,8.2-4.4c0.1,0.3,0.2,0.7,0.2,1.4
		c0,2.1-0.7,3.7-2.2,4.9c-1.4,1.2-3.1,1.9-5,2.2c-6.9,1.2-11.4,2.4-13.7,3.5c1.1-0.3,1.9-0.4,2.4-0.4c1.7,0,3,0.5,3.9,1.6
		c0.9,1.1,1.4,2.3,1.4,3.8c0,3.3-1.4,6.2-4.1,8.7c-2.8,2.6-5.9,4.4-9.4,5.6c-3.5,1.2-6.4,1.7-8.9,1.7c-2.4,0-4.6-0.2-6.4-0.5
		c-1.8-0.3-3.6-0.9-5.3-1.7c-1.7-0.8-3.1-1.9-4.2-3.3c-1.1-1.5-1.6-3.2-1.6-5.2c0-4.9,2-9.1,6-12.5c4-3.5,8.6-5.3,13.8-5.5
		c-1.7-0.9-3.1-2-4.1-3.5c-1-1.4-1.5-3-1.5-4.6c0-2.9,1.1-5.5,3.2-7.7c2.1-2.2,4.6-3.8,7.5-4.8c2.9-1,5.7-1.5,8.5-1.5
		c2.8,0,5.1,0.7,6.9,2.1c1.8,1.4,2.8,3,2.8,4.9c0,1.9-0.6,3.5-1.9,4.7c-1.2,1.2-2.6,1.8-4.1,1.8c-0.6,0-1.1-0.1-1.4-0.4
		c2.2-1.2,3.2-2.9,3.2-5.2c0-2.8-1.9-4.2-5.7-4.2c-3.8,0-7,1.2-9.6,3.7c-2.6,2.4-4,5-4,7.8c0,2,0.6,3.6,1.9,4.6
		c1.2,1.1,2.6,1.6,4.2,1.7h1.4c1.3,0,1.9,0.3,1.9,0.8c0,0.4-0.3,0.8-0.8,1.3C209.9,38.8,209.4,39,208.9,39z"/>
	<path d="M71.8,102.5c-3.8,8.7-9.4,15.2-16.6,19.4c0.4,0.9,0.8,2.3,1.3,4.4c0.5,2,0.9,3.9,1.3,5.4c0.4,1.6,1,3,1.9,4.3
		c0.9,1.3,1.9,1.9,3,1.9c1.1,0,2.1-0.4,2.8-1.2c0.4,0.8,0.6,1.5,0.6,2.2c0,1.6-0.7,2.9-2.1,4c-1.4,1.1-3,1.6-4.8,1.6
		c-1.8,0-3.3-0.4-4.6-1.3c-1.2-0.9-2.1-2.2-2.7-3.8c-0.6-1.7-0.9-3.2-1.2-4.7c-0.2-1.5-0.4-3.3-0.6-5.5c-0.2-2.2-0.3-3.7-0.5-4.6
		c-3.6,1.4-7.5,2.1-11.6,2.1c-11.9,0-17.9-5.3-17.9-15.8c0-4.8,1-9.4,3-14c2-4.6,4.6-8.6,7.9-12c3.3-3.4,7.1-6.2,11.6-8.3
		c4.5-2.1,9-3.2,13.7-3.2c6.1,0,10.7,1.5,13.8,4.5c3,3,4.5,6.7,4.5,11.2C74.8,93.6,73.8,98.1,71.8,102.5z M68.8,88.4
		c0-7.8-3.4-11.7-10.1-11.7c-3.7,0-7.5,1.1-11.2,3.2c-3.7,2.2-6.9,4.9-9.6,8.3c-2.7,3.4-4.9,7.1-6.5,11.3c-1.7,4.2-2.5,8.1-2.5,11.8
		c0,3.7,0.8,6.7,2.5,9c1.7,2.2,4.2,3.3,7.5,3.3c3.4,0,6.7-0.8,10-2.4c-0.5-1.3-1.2-2.3-2-3c-0.9-0.7-1.8-1-2.7-1l-1.9,0.3
		c-0.4,0-0.6-0.1-0.6-0.4c0-0.6,0.5-1.1,1.4-1.4c0.9-0.3,1.9-0.5,2.9-0.5c2.7,0,5,1.1,7.1,3.4c4.7-3.5,8.4-8.1,11.3-13.8
		C67.3,99.1,68.8,93.6,68.8,88.4z"/>
	<path d="M99.2,95.3l3.5,0.1c0.7,0,1.2,0,1.4-0.1c-1.3,0.9-3.3,4.1-5.8,9.5c-2.5,5.4-3.8,9.4-3.8,11.8c0,1.4,0.5,2.2,1.4,2.2
		c0.6,0,1.5-0.4,2.6-1.2c1.1-0.8,2-1.7,2.8-2.7c0.8-1,1.6-2.2,2.5-3.6c0.9-1.4,1.7-2.7,2.3-3.7c0.6-1.1,1-1.6,1.1-1.6
		c0.3,0,0.4,0.5,0.4,1.4c0,0.9-0.3,1.8-0.8,2.6c-6,9.9-10.9,14.9-14.9,14.9c-2.7,0-4-2-4-6c0-1.2,0.1-2.4,0.3-3.6
		c-4.5,6.4-8.8,9.6-12.9,9.6c-1.2,0-2.2-0.5-2.9-1.5c-0.7-1-1.1-2.5-1.1-4.5c0-2,0.7-5.2,2.1-9.8c1.4-4.5,3.1-8.3,5.1-11.2
		c0.5-0.7,1-1.2,1.5-1.3c0.6-0.2,1.6-0.3,3.1-0.3h3.5c-1.2,1.6-2.5,3.8-3.9,6.6c-3.2,6.6-4.8,11.4-4.8,14.5c0,1.8,0.7,2.7,2,2.7
		c1.3,0,2.9-1.3,4.7-3.8c1.8-2.5,3.8-5.8,5.9-9.9c2.1-4.1,3.3-6.3,3.6-6.9C95.9,96.7,97.6,95.3,99.2,95.3z"/>
	<path d="M115,95.5l3.6,0.1h0.7c-0.8,0.6-1.8,2.1-3.1,4.7c-1.3,2.5-2.2,4.5-2.8,5.8c-0.6,1.3-1.3,3-2.1,5.3c-0.8,2.2-1.2,4-1.2,5.4
		c0,1.4,0.5,2.1,1.4,2.1c0.6,0,1.5-0.4,2.6-1.3c1.1-0.8,2.1-1.7,2.8-2.7c0.7-0.9,1.5-2.1,2.4-3.6c0.9-1.4,1.7-2.7,2.3-3.7
		c0.6-1.1,1-1.6,1.1-1.6c0.3,0,0.4,0.4,0.4,1.3c0,0.9-0.2,1.7-0.7,2.6c-1.8,3-3.4,5.5-4.9,7.5c-1.5,2-3.1,3.7-5,5.2
		c-1.9,1.5-3.6,2.2-5.1,2.2c-2.7,0-4-1.9-4-5.6c0-5.8,2-12.2,6-19.3C111.1,97,112.9,95.5,115,95.5z M124.8,86h-0.3
		c-1,0-1.9,0.4-2.8,1.2c-0.9,0.8-1.5,1.7-1.9,2.5c-1.2-0.5-1.9-1.3-1.9-2.6c0-1.2,0.6-2.5,1.7-3.8c1.2-1.3,2.3-1.9,3.3-1.9
		s1.8,0.2,2.4,0.7c0.5,0.5,0.8,1.1,0.8,1.8C126.2,84.8,125.7,85.5,124.8,86z"/>
	<path d="M139.1,95.4l3.7,0.1h0.7c-0.7,0.5-1.7,2.1-3.1,4.7c-1.3,2.6-2.3,4.5-3,5.9c-0.6,1.3-1.4,3.1-2.2,5.3s-1.2,4-1.2,5.4
		c0,1.4,0.5,2.1,1.4,2.1c0.6,0,1.5-0.5,2.6-1.3c1.1-0.8,2.1-1.7,2.8-2.7c0.7-0.9,1.6-2.1,2.4-3.6c0.9-1.5,1.7-2.7,2.3-3.8
		c0.6-1.1,1-1.6,1.1-1.6c0.3,0,0.5,0.4,0.5,1.3c0,0.9-0.2,1.7-0.7,2.6c-2.1,3.4-3.8,6-5.1,7.8c-1.3,1.8-3,3.5-4.9,5
		c-1.9,1.5-3.6,2.3-5.1,2.3c-2.7,0-4.1-2-4.1-6c0-2.7,0.5-5.8,1.6-9.3c1.1-3.5,2.6-6.8,4.7-10c-1.7,1.3-3.4,2-5,2
		c-0.5,0-1.1-0.1-1.7-0.4c-3.4,6.7-5.2,10.1-5.5,10.1c-0.3,0-0.4-0.4-0.4-1.2s0.3-1.9,0.9-3.3c0.6-1.4,1.2-2.8,1.9-4.1
		c0.7-1.3,1.1-2,1.1-2.2c-1.7-0.9-2.6-2.3-2.6-4.2c0-1,0.3-1.8,0.9-2.6c0.6-0.8,1.4-1.2,2.5-1.2c1.1,0,1.9,0.3,2.6,1
		c-0.1,0.3-0.1,0.7-0.1,1.3c0,1.3,0.5,2.3,1.4,3.1c0.9,0.7,2.1,1.1,3.4,1.1c0.4,0,0.7,0,0.9-0.1C135.7,96.6,137.4,95.4,139.1,95.4z"
		/>
	<path d="M176.1,110c-1.7,2.8-3.4,5.4-5.1,7.7c-3.7,4.8-7.3,7.2-10.9,7.2c-2,0-3.4-1-4.4-3c-1-2-1.5-4.2-1.5-6.6
		c0-4.8,0.7-7.2,2.2-7.2c2.3,0,4.3-0.5,6.3-1.5c1.9-1,2.9-2.4,2.9-4.1c0-1.3-0.8-2-2.3-2c-3.3,0-7,3.6-11,10.8
		c-0.4,0.7-1.2,2.4-2.4,5c-1.2,2.6-2.3,4.6-3.2,5.9c-0.9,1.3-1.9,2-2.8,2h-4.4c1.5-2.8,3.7-8.4,6.6-16.9c2.9-8.5,5.1-14.1,6.4-17
		c0-0.1,0.3-0.7,0.9-1.9c0.6-1.2,0.9-1.9,1.2-2.4c0.2-0.4,0.6-1.2,1.3-2.4c0.6-1.2,1.1-2.1,1.5-2.7c0.4-0.6,0.9-1.4,1.6-2.5
		c0.7-1.1,1.3-1.9,1.8-2.5c0.5-0.6,1.2-1.3,1.9-2.1s1.4-1.4,2-1.8c1.6-1,3.1-1.4,4.5-1.4c2.6,0,4,1.2,4,3.6c0,3.4-2,7.8-6.1,13.4
		c-4.1,5.5-8.6,10.8-13.7,15.7l-1.3,3.6c2.3-3,4.9-5.6,7.8-7.8s5.6-3.3,8.1-3.3c1.4,0,2.5,0.3,3.3,1c0.8,0.7,1.2,1.6,1.2,2.7
		c0,2.6-1.2,4.8-3.5,6.4c-2.3,1.6-5,2.7-8,3.1c0.4,5,1.1,8,2.1,9.1c0.5,0.5,1.1,0.8,1.8,0.8s1.7-0.4,3-1.3c1.2-0.9,2.3-1.8,3.1-2.8
		c0.8-1,1.6-2.3,2.5-3.7c0.9-1.4,1.7-2.7,2.3-3.7c0.6-1.1,1-1.6,1.1-1.6c0.3,0,0.4,0.5,0.4,1.4S176.7,109.2,176.1,110z M169.1,72.7
		c-2.7,0-7.4,8.6-14.1,25.9c6.1-7.2,10.5-13.3,13-18.2c1.4-2.6,2.2-4.7,2.2-6.4C170.1,73.1,169.8,72.7,169.1,72.7z"/>
	<path d="M202.7,96.3h3c-1.5,0.9-3,3.2-4.5,6.8c-1.2,3-2.3,5.8-3.2,8.2c-0.9,2.5-1.4,4-1.6,4.5c-0.2,0.5-0.6,1.8-1.3,3.9
		c-0.7,2-1.3,3.6-1.7,4.7c-1.2,3.4-2.6,6-4.2,8c-1.6,2-3.6,3.5-5.9,4.7c-2.4,1.2-4.7,1.8-7.1,1.8c-2.4,0-4.5-0.5-6.2-1.4
		c-1.7-0.9-2.6-2.4-2.6-4.4c0-1.1,0.3-2,1-2.8c0.6-0.8,1.4-1.3,2.2-1.3c0.8,0,1.5,0.2,2.1,0.6c0.6,0.4,1,0.8,1.2,1.3
		c-0.9,0.3-1.3,1.3-1.3,3c0,0.9,0.3,1.6,1,2.2c0.6,0.6,1.5,0.8,2.5,0.8c3.9,0,7.2-3.5,9.8-10.4l4.1-10.9c-2.3,2.8-4.2,5-5.9,6.4
		c-1.7,1.4-3,2.3-3.9,2.6c-0.9,0.3-2,0.4-3.3,0.4c-1.3,0-2.3-0.5-3.1-1.5c-0.8-1-1.1-2.5-1.1-4.5c0-2,0.6-4.8,1.7-8.5
		c1.1-3.7,2.4-6.6,3.7-8.8c1.4-2.2,2.8-3.6,4.2-4.2c1.5-0.6,3.5-0.9,6-0.9c0.2,0,0.3,0.1,0.3,0.3c0,0.2-0.1,0.4-0.4,0.7
		c-2,1.7-4,4.8-6,9.3c-2,4.5-3.1,8.2-3.1,11.3c0,1.6,0.5,2.4,1.4,2.4c1.7,0,3.9-1.7,6.6-5.2c2.7-3.5,4.8-6.9,6.2-10.4
		c0.2-0.5,0.5-1.2,0.8-2.1c0.4-0.9,0.6-1.5,0.8-1.9c0.1-0.3,0.4-0.8,0.7-1.4c0.3-0.6,0.6-1,0.8-1.2c0.2-0.2,0.6-0.5,1-0.8
		c0.4-0.3,0.8-0.6,1.3-0.6C200.2,96.4,201.5,96.3,202.7,96.3z"/>
</g>
</svg>
