<?xml version="1.0" encoding="utf-8"?>
<!-- Generator: Adobe Illustrator 21.0.2, SVG Export Plug-In . SVG Version: 6.00 Build 0)  -->
<svg version="1.1" xmlns="http://www.w3.org/2000/svg" xmlns:xlink="http://www.w3.org/1999/xlink" x="0px" y="0px"
	 viewBox="0 0 204 430.5" style="enable-background:new 0 0 204 430.5;" xml:space="preserve">
<style type="text/css">
	.st0{display:none;}
	.st1{display:inline;}
	.st2{fill:#211C1D;}
	.st3{fill:#FFFFFF;}
</style>
<g id="svg2" xmlns:cc="http://creativecommons.org/ns#" xmlns:dc="http://purl.org/dc/elements/1.1/" xmlns:rdf="http://www.w3.org/1999/02/22-rdf-syntax-ns#" xmlns:svg="http://www.w3.org/2000/svg" class="st0">
	<g id="g10" transform="matrix(1.3333333,0,0,-1.3333333,0,1066.6667)" class="st1">
		<g id="g12" transform="scale(0.1)">
			<path id="path16" class="st2" d="M2806.8,2582.7c2.1-12.8,13.8-52.6,13.8-52.6s20.2,3.7,45.1,6.9c25,3.2,35.1,14.3,40.4,22.8
				s43.6,251.8,45.7,293.2c2.1,41.4-38.2,139.1-64.8,196c-26.6,56.8-62.7,137-63.7,130.7c-1.1-6.4-14.3-35.1-10.6-42
				c3.7-6.9,14.9-28.1,13.8-30.8c-1.1-2.7-1.6,1.1-2.1-5.3c-0.5-6.4-8-38.8-11.1-60.6c-3.2-21.8-17-108.9-15.9-138.6
				c1.1-29.7,24.4-107.3,29.7-129.6c5.3-22.3,27.6-168.4,27.1-174.2c-0.5-5.8-19.6-13.8-28.1-16.5
				C2817.5,2579.5,2806.8,2582.7,2806.8,2582.7L2806.8,2582.7z M2067.1,2783.3c-16.5,53.1-15.7,106-17.3,112.1
				c-1.6,6.1,3.2,15.9,4.5,18.1c1.3,2.1,147.9,228.6,181.9,273.8c34,45.1,54.2,97.7,79.7,117.4c25.5,19.6,68.5,21.2,68.5,21.2
				s-4.2,107.3,10.6,235.8c14.9,128.5,41.4,187,82.9,219.9c41.4,32.9,95.1,18.9,101.2,19.4c6.1,0.5,33.5-0.9,51-7.2
				c17.5-6.3,51.5-63.1,68-132.6c16.5-69.6,4.5-177.2,25.2-224.5c20.7-47.3,56.8-53.1,61.6-53.6c4.8-0.5,40.4-2.7,71.7-28.1
				c31.3-25.5,70.6-178.5,88.2-214.1c17.5-35.6,102-224.7,102.5-247c0.5-22.3-9.6-40.9-11.7-55.2c-2.1-14.4-61.6-301.7-63.2-319.2
				c-1.6-17.5-23.4-43.6-43.6-52.6c-20.2-9-21.8-10.1-24.4-14.9c-2.6-4.8-12.6-17.1-12.9-18.3c-0.3-1.2-3.6-11.6-6-15.4
				c-2.4-3.9-2.9-4.6-3.2-7.6c-0.3-2.9,0.4-11.8-3.7-17.1c-4.1-5.3-11.3-2.7-11.8,1.9c-0.5,4.5,1.6,35.4,2.4,38.6
				c0.8,3.2,10.1,28.4,10.1,28.4s-6.9-12.2-14.1-17.8c-7.2-5.6-9.3-7.7-9.3-7.7s0.8-19.9-1.6-31.6c-2.4-11.7-12.9-9.8-12.9-9.8
				c0-8.5,27.6-322.9,40.4-378.2c12.8-55.2,37.2-99.8,41.4-114.7c4.2-14.9,154-617.2,171-667.1c17-49.9,35.1-73.3,27.1-79.1
				c-8-5.8-54.7-45.7-54.7-45.7s5.1-30.3-4.5-55c-9.6-24.7-18.1-29.7-18.6-32.4c-0.5-2.7-6.4-10.6-9-12.8
				c-2.6-2.1-77.8-7.2-94.8-1.9c-17,5.3-14.9,17.5-14.9,17.5s-2.6,20.2-2.6,25.5c0,5.3-1.6,5.8-1.6,5.8s-43,4.8-71.7,16.5
				c-28.7,11.7-45.7,37.2-45.7,37.2s-47.3,488.6-62.1,585.3c-14.9,96.7-58.4,277.3-80.7,363.3c-22.3,86.1-95.6,313.9-105.7,329.3
				c-10.1,15.4-22.3,14.9-26,7.4c-3.7-7.4-45.1-277.3-51.5-346.3c-6.4-69.1-19.1-174.2-18.1-180.6c1.1-6.4-13.3-706.9-9.6-744.7
				c3.7-37.7,3.7-38.8-2.1-45.2c-5.9-6.4-14.9-10.6-14.3-13.8c0.5-3.2,16.5-27.6,10.1-44.6c-6.4-17-70.1-13.3-100.4-13.3
				c-30.3,0-40.4,26.6-42,30.8c-1.6,4.2-4.8,14.3-5.8,21.8c-1.1,7.4-0.5,10.6-0.5,10.6s-51-6.9-109.4,18.6
				c-58.4,25.5-71.2,45.7-71.2,45.7s120,694.7,122.2,837.1c2.1,142.3,24.4,438.2,26,469c1.6,30.8,0.5,32.4,0.5,32.4
				s-3.2,0.3-4.2,9.8c-1.1,9.6-1.6,22.6-1.6,22.6s-1.2-10.4-5.6-13.6c-4.4-3.2-8.1-3.5-9.8-1.2s-3.3,12.6-3.3,13.6
				s0.4,32.9-3.3,35.9c-3.7,2.9-11.1,10.1-12.2,11.4c-1.1,1.3-42-4-61.9,4.2c-19.9,8.2-25,36.4-26,38
				C2133.5,2596.4,2083.5,2730.2,2067.1,2783.3L2067.1,2783.3z M2364.4,2844.5c35.1,43.6,44.6,61.6,48.9,72.2
				c4.2,10.6,9.6,11.7,7.4,19.1c-2.1,7.4,5.3,51,4.2,70.1s-19.1,68-25,95.6c-5.8,27.6-8.5,38.8-10.1,41.4
				c-1.6,2.7-20.7,9.6-29.7,7.4c-9-2.1-159.9-189.6-187.5-225.7c-27.6-36.1-30.8-34-31.9-62.7c-1.1-28.7,38.2-191.2,45.7-213
				c7.4-21.8,10.6-25,10.6-25s33.7,4,48.9,7.4c15.1,3.4,26,5.6,30.5,5.6c4.5,0,9.8-0.8,9.8-0.8c1.1,5.9,5.3,22.3,5.3,22.3
				s-10.1,8-9.6,10.6C2282.6,2671.9,2329.4,2801,2364.4,2844.5L2364.4,2844.5"/>
			<path id="path18" class="st2" d="M6538.2,5428.9c0,0-6.4-1.2-8.7-3.2c0,0-4.1-8.7-4.4-10.2s-2-15.4-0.9-30.3
				c1.2-14.9-1.2-34.4-1.2-34.4s16.3,12.2,17.5,23.6c1.2,11.4,5,30.6,4.4,34.1C6544.4,5412,6538.2,5428.9,6538.2,5428.9
				L6538.2,5428.9z M5709.1,5298.7c0.9,3.6,3.4,19.2,3.1,23c0,0-3.6,0.1-5.2-3.6s-1.5-13.1-1.2-17.6
				C5706.1,5295.9,5708.2,5295,5709.1,5298.7z M5964.3,5598.9c-1.2,33.2,37.3,300.1,31.5,357.2c-5.8,57.1-31.5,160.8-31.5,160.8
				s-7.6-40.2-9.3-65.3s-11.1-76.9-10.5-84.5c0.6-7.6-3.5-15.1-7.6-47.8c-4.1-32.6-13.4-45.5-27.4-85.7l-79.8-230.2
				c0,0-1.2-2.9-1.5-7.9c-0.3-5-13.4-1.7-14.9-1.7s-3.2-2.6-4.7-7.9c-1.5-5.2-40.8-109-44.9-121.8s-0.6-42.5,4.1-78.1
				c4.6-35.5-24.2-74-27.1-83c-2.9-9-5.1-29.6-5.1-29.6s6.3-0.1,11.5-3.1c5.2-2.9,5-4.8,5.7-6c0.7-1.2,4.1,0.1,4.4-3.6
				c0.3-3.8-20.2-7.6-20.2-7.6s6.7-0.1,13.4-1.2c6.7-1,10.6,0.1,14-3.2s2.6-5.4,2.6-5.4s2.2-0.3,3-1.8c0.9-1.5-8.9-6.1-8.9-6.1
				s2.8-1.5,5.7-4.2s0.7-7,1.5-8c0.7-1,2.9-2.9-2.3-5c-5.2-2-48.8-0.9-48.8-0.9s1.9-2.9,7-7.6s5.7-9.5,6.8-12.8
				c1.2-3.4-1.5-7.9-1.8-8.9s2.2-3.1-0.7-5.4c-2.9-2.3-60.6,42.8-60.6,42.8s-18.6,72.3-16.3,90.9c2.3,18.6,42,81.6,49,104.9
				c7,23.3,11.7,42,16.3,76.9c4.7,35,13.4,115.4,13.4,115.4s-7.6,15.7-7.6,18.6c0,2.9-16.3,17.5-19.2,22.7
				c-2.9,5.2,42.5,134,49.5,173.7c7,39.6,33.8,116.6,38.5,136.4c4.7,19.8,4.7,49,12.8,79.3c8.2,30.3,1.2,60.6,11.7,88.6
				s6.4,68.8,7,81.6s-0.6,26.2,0,49c0.6,22.7,4.7,33.2,9.9,57.7c5.2,24.5,2.3,82.2,5.2,95.6c2.9,13.4,16.9,23.9,31.5,32
				c14.6,8.2,37.3,18.7,37.3,18.7s24.5,31.5,29.1,68.8c4.7,37.3-10.5,49,4.7,87.4c15.1,38.5,24.5,37.3,45.5,110.7
				s12.8,197,64.1,236.6c51.3,39.6,92.1,21.6,94.4,18.6c2.3-2.9,75.8,0,119.5-43.1c43.7-43.1,40.2-99.1,39.6-120
				c-0.6-21,12.2-36.7,16.9-80.4c4.7-43.7-23.9-94.4-21-126.5c2.9-32,36.1-92.7,42-97.3c0,0,34.9-18.3,55.9-21.8
				c21-3.5,49,0,67.6-14s22.1-54.8,35-111.9c12.8-57.1,36.1-247.1,38.5-257.6c2.3-10.5-1.2-75.8-2.3-97.9
				c-1.2-22.1,21-113,23.3-150.4c2.3-37.3,1.2-62.9,9.3-89.8c8.2-26.8,42-141.6,42-141.6l-39-18.1c0,0,1.2-21.6,5.2-42
				c4.1-20.4,5.8-36.7,9.3-65.3c3.5-28.5,11.9-82.5,11.9-82.5s1.7-8.7,3.8-14.9c2-6.1-2-14.3-8.7-25.9c-6.7-11.7-28-58.6-32.4-61.2
				c-4.4-2.6-35-18.9-39.3-20.4c-4.4-1.5-14.3-1.2-22.1-2.9c-7.9-1.8-20.7,0.9-21,6.7c-0.3,5.8,5.2,8.5,6.4,10.5
				c1.2,2,11.4,5.2,13.7,6.1c2.3,0.9,7.9,6.7,7.9,6.7l-10.2,7.9c-5,3.8-0.6,22.4,0.3,34.4c0.9,12,6.7,75.8,6.1,100.2
				c-0.6,24.5,13.4,44.3,15.1,50.7c1.8,6.4,3.5,46.6,3.5,46.6s-4.1,2.9-8.7,6.4s-25.1,61.8-25.1,61.8s7-50.1,9.3-59.4
				c2.3-9.3-46.6-2.3-46.6-2.3s3.5-12.8,1.2-83.9s-42-242.4-43.1-250.6c-1.2-8.1,49-193.5,65.3-256.4
				c16.3-62.9-17.5-233.1-17.5-233.1l15.1-5.8c0,0,8.2-11.7,10.5-52.5c2.3-40.8,60.6-440.6,60.6-440.6s10.5-14,22.1-78.1
				c11.7-64.1,12.8-123.6,47.8-192.3c35-68.8,63.5-56,69-65c5.5-9,0.6-26.2,0.6-27.7c0-1.5,0.3-2.3,0.3-5c0-2.6-4.1-4.9-24.8-6.4
				c-20.7-1.4-142.8,8.2-142.8,8.2s-13.1,10.2-22.1,26.2c-9,16-18.4,49.2-18.4,49.2s-5.5-42.2-7.9-45.2c-2.3-2.9-24.8-1.2-28.3,0
				c-3.5,1.2-3.5,21.6-9.3,64.1c-5.8,42.5-18.1,80.4-20.4,101.4s5.2,43.7,5.2,43.7s-0.6,10.5-2.9,18.6c-2.3,8.2-7,38.5-12.2,58.3
				c-5.2,19.8-131.4,533.5-132,535.3s13.4,8.7,13.4,8.7s1.5,1.2,0.3,8.2c-1.2,7-7.9,134.3-7.9,134.3s-8.7-22.1-22.7-57.1
				c-14-35-60-113.6-60-113.6s-0.6-14,4.7-18.6c5.2-4.7,0.6-11.1-9.9-25.6c-10.5-14.6-141.6-186.5-163.8-233.1
				c-22.1-46.6-53.6-62.9-61.8-115.4c-8.2-52.5-43.7-97.9-43.7-97.9s-6.4-16.9-5.8-35.5c0.6-18.6-16.9-45.5-26.2-75.2
				c-9.3-29.7,4.7-93.9,5.8-96.8c1.2-2.9,51.9-51.3,61.8-63.5c9.9-12.2,1.8-19.2,1.8-19.2s2.3-4.1,2.3-9.3s-9.9-8.7-57.1-4.1
				c-47.2,4.7-92.1,24.5-100.8,34.4c-8.7,9.9-6.4,26.2-8.2,62.4c-1.8,36.1-29.7,109-36.1,106.1c-6.4-2.9-38.2-91.5-42.5-94.1
				c-4.4-2.6-20.1,7.3-22.1,11.1s-0.3,6.4,2.6,16c2.9,9.6,20.7,97.3,23,128.8s16.3,50.1,35,75.8c18.6,25.6,19.8,30.3,32.6,57.1
				c12.8,26.8,32.6,76.9,60.6,156.2c28,79.2,144.5,295.5,150.9,304.8c6.4,9.3,8.7,15.7,12.8,25.1c4.1,9.3,22.7,8.7,22.7,8.7
				l18.6,12.2c0,0,25.6,36.1,38.5,53.6c12.8,17.5,26.8,76.9,30.3,138.7c3.5,61.8,23.3,197.5,21,204c-2.3,6.4-73.4,179.5-103.7,218.5
				c-30.3,39-36.1,87.4-36.1,87.4s-25.6,0-29.7-1.2C5962.6,5533.6,5965.5,5565.7,5964.3,5598.9L5964.3,5598.9"/>
			<path id="path20" class="st2" d="M6594.7,2689.3c2.4-1.9,3.4-0.2,1.3,2.9c-2.1,3.1-6.8,9.3-9.8,11c-3,1.7-5.3-0.3-5.3-0.3
				C6582.7,2700.2,6592.3,2691.2,6594.7,2689.3z M5918,3212.8c1,1.8,2.1,3.5,3.2,5.2l0.4,0.6l1.4,2.2l0.2,0.4l1.5,2.3l0.2,0.3
				l0.3,0.5l1.3,2l0.2,0.3l0.2,0.3l1.4,2.1l0.2,0.4l0,0.1l0.2,0.3l1.5,2.1v0l0.1,0.1l0.2,0.2l1.4,2.1l0.2,0.3l0.2,0.3l1.5,2.1
				l0.3,0.5l1.3,1.9l0.6,0.8l1.5,2l0.2,0.2l0.2,0.3l1.3,1.8l0.7,0.9l1.2,1.7l0.7,1l1.1,1.4l0.8,1.1l1.2,1.7l0.3,0.4l0.6,0.7l0.9,1.2
				l0.1,0.1l0.6,0.8l0.2,0.2l0.9,1.2l0.2,0.3l0.7,0.9l0.9,1.1l0.8,1l0.1,0.2l0.9,1.1l0.9,1.1l0,0l0.9,1.1l0.9,1.1l0.7,0.9l0.2,0.3
				l0.9,1.1l0.9,1.1l0,0.1l0.9,1.1l0.9,1.1l0.9,1.1l0.1,0.1l0.8,1l0.9,1.1l0,0l0.9,1.1l0.9,1.1l0.9,1l0.1,0.1l0.9,1.1l1.8,2.1l0.9,1
				l0.9,1l0.9,1l0.1,0.1l0.8,0.9l0.9,1l0.9,1l0,0l0.9,1c22.6,24.6,43.9,43.2,55.6,51.3c21.9,15.1,30.6,18.5,30.6,20.9
				s-3.4,4.9,7.3,15.6c10.7,10.7,24.9,24.7,24.9,24.7c4.9,12.6,6.8,61.2,3.9,73.9c-2.9,12.6-34,30.1-38.9,96.3
				c-4.9,66.1-21.4,112.8,11.7,145.8c33.1,33.1,87.5,37.9,87.5,37.9s12.6,17.5,55.4,21.4s91.4-55.4,98.2-86.5
				c6.8-31.1,7.8-62.2,27.2-82.6c19.5-20.4-3.9-52.5,1-80.7c4.9-28.2-1-29.2,11.7-64.2c12.6-35-17.5-53.5-13.6-73.9
				s18.5-37.4,22.4-67.1c3.9-29.6-10.2-41.3-9.2-56.4c2.6-40,65.9-102.7,69-155.6c1.9-32.6-28.7-147.8-28.7-155.6
				c0-4.4,10.2-28.6,22.1-58.8c3.9-4.8,6.7-8.2,6.7-8.2s47.1-48.4,68.1-69c21-20.6,33.7-30.4,50.2-42.2c16.6-11.7,75-32.8,86.1-43.8
				s36-68.1,36-68.1s-14.7-59.3-17.8-59.3c-3.1,0-2.5,2.6-3.2,3.2c-0.7,0.5-4.8,2.1-5.7,4.9c-1,2.8-3,6.3-2.1,11.9s0.7,8.6,0.7,8.6
				s-28-23.1-32.5-24.5c-4.5-1.4-4,1-4.1,2.1c0,1-3.6,2.7-3.1,6c0.5,3.3,1.6,5.7,1.6,5.7s-8.8-1.9-9-0.5c-0.2,1.4,1.1,2.7,1.1,2.7
				s-1.5,1-1,4.9c0.5,3.9,3.7,5.2,7.5,9.3c3.9,4.1,8.2,7.6,8.2,7.6s-15.5-8.1-17.2-5.4c-1.8,2.6,1.1,3.5,1,4.6s-1.3,2.2,0.7,6.8
				c2,4.6,6,7.9,6,7.9s-12,12.4-18.5,16.8c-6.6,4.4-45.3,14.9-60.5,40.7c-15.2,25.8-28.2,47.1-37.4,53.4
				c-2.8,1.9-11.8,7.5-23.1,14.5c60.3-171,317.3-865.9,332.3-898.5c16.5-36,27.2-47.6,20.4-55.4c-6.8-7.8-102.1-50.6-111.8-51.5
				c-9.7-1-19.4,12.6-28.2,11.7c-8.8-1-12.6-16.5-50.6-25.3s-104-10.7-104-10.7s-8.8-135.2-35-247c-26.3-111.8-35-240.2-31.6-270.8
				c3.4-30.6,4.9-26.2,11.2-64.2c6.3-37.9,19.9-81.2,21.9-83.6c1.9-2.4,39.4-24.8,44-36.9c4.6-12.2-2.2-29.9-5.6-36.2
				c-3.4-6.3-93.4-10.4-111.8-5.8c-18.5,4.6-20.2,12.6-20.2,16c0,3.4,0,34.3-8.8,59.1c-8.8,24.8-26.2,45.7-26.2,45.7
				s-2.2-106.7-5.8-107.9c-3.6-1.2-13.1-1.5-13.4,0.7c-0.2,2.2,0.5,104.3-8.3,134.9c-8.8,30.6-21.9,39.9-16,72.4
				c5.8,32.6,22.4,59.3,26.7,60.3c4.4,1,23.8,51.1,23.8,169.7c0,118.6-5.8,218.8-7.8,242.1c-1.9,23.3-1.9,32.1-1.9,32.1
				s-55.4-12.6-70-8.8c-14.6,3.9-34,13.6-34,13.6s-16.5-9.7-27.2-14.6s-14.6-5.8-14.6-5.8s-21.4-303.4-9.7-360.7
				s33.1-89.4,32.1-124.4c-1-35,6.8-71,12.6-86.5c5.8-15.6,14.1-52,18-55.9s16-24.8,16.5-46.7c0.5-21.9-12.6-34.5-18.5-36.5
				c-5.8-1.9-111.3-7.8-118.6,7.3c-7.3,15.1-5.4,59.8-6.8,76.3s-27.7,90.9-22.9,130.8c4.9,39.9,13.6,25.3,13.6,61.2
				c0,36,1.9,52.5-2.9,80.7c-4.9,28.2-43.8,190.6-56.4,270.3c-12.6,79.7-16.5,99.2-16.5,99.2s-23.3-15.6-64.2-8.8
				c-40.8,6.8-47.6,27.2-69,22.4c-21.4-4.9-36-11.7-58.3-7.8c-22.4,3.9-26.2,10.7-36,10.7c-9.7,0-71,2.9-108.9,15.6
				s-72.9,38.9-72,43.8c1,4.9,335.4,796.3,386,876.1c50.6,79.7,67.1,113.8,67.1,113.8c-149.2,18-209.5,57.1-288.8,90.4
				c-22.2,9.3-27.2,20.4-26.2,32.1c1,11.7,7.7,79.7,53.4,149.7C5867.4,3142.8,5883,3153.5,5918,3212.8L5918,3212.8z M6083.7,2878.8
				l8.8,11.7c0,0-4.9,14.6-11.7,30.1c-6.8,15.6-9.7,18.5-14.6,33.1c-4.9,14.6-9.7,21.4-17.5,40.8c-7.8,19.4-9.7,37.9-9.7,37.9
				s-32.1,66.1-34,80.7l-2.4,9.2c0,0-19-31.1-30.9-45c-11.9-13.9-75.1-108.2-75.1-108.2s23.3-11.7,71-37.4
				C6015.2,2906,6083.7,2878.8,6083.7,2878.8L6083.7,2878.8"/>
			<path id="path22" class="st2" d="M3638.5,2920.3c-12,43.7-33.9,170.4-40.4,210.8c0,0-6-13.1-9.3-41.5
				c-3.3-28.4-9.8-39.3-14.2-73.2c-4.4-33.9-9.8-66.6-9.8-80.8s-3.3-16.4,3.3-47s-7.1-78.6-7.1-78.6s-5.5-24.6,1.1-40.4
				c6.6-15.8,6-50.2,7.1-69.9s28.4-58.4,30-61.7c1.6-3.3,9.3,12,14.7,31.1s34.7,92.6,36,99.4c1.4,6.8,6,60.1,7.1,67.7
				C3658.1,2843.8,3650.5,2876.6,3638.5,2920.3L3638.5,2920.3z M4221.8,3338.9c-1.1-0.7-0.5-13.5,1-18.3s10.2-3.3,11.2,1.1
				c1,4.4-6.1,12.3-7.8,14.5C4226.2,3336.2,4222.9,3339.6,4221.8,3338.9z M4134.8,3301.1c16.4-9.8,26.8-21.8,26.8-21.8l20.8,30.3
				c4.6,6.8,6.3,11.5,6.3,11.5l-10.6,3.3c0,0-12.8-1.1-13.1,1.6s5.2,8.7,5.7,10.1l3.3,8.2c0,0-1.9,9.6-0.5,11.5
				c1.4,1.9,22.9,25.4,25.1,27.3c2.2,1.9-2.7,5.5-3.3,8.7c-0.5,3.3,2.5,7.4,5.2,7.4s16.1,1.1,16.1,1.1s1.6,5.7,6.3,4.9
				c4.6-0.8,44.2-12.6,48.9-16.6c4.6-4.1,9.6-41.8,12-45.9c2.5-4.1,12.6-28.7,8.2-41.5c-4.4-12.8-57.3-59.8-57.3-59.8
				s-10.9-19.6-10.4-28.4c0.5-8.7,7.1-18,9.8-21.3c2.7-3.3,1.1-12-0.5-22.4c-1.6-10.4-24.6-173.1-25.7-213.5
				c-1.1-40.4-19.7-61.2-21.8-85.2c-2.2-24,0-29.5-7.6-43.7c-7.6-14.2-42.6-37.1-42.6-37.1l-33.9-16.9c0,0,11.5-32.2,21.8-62.2
				c10.4-30,26.8-131.6,35-148c8.2-16.4,11.5-22.9,9.3-26.2c-2.2-3.3-16.9-24-16.9-24s-8.2-212.4-30-315.1
				c-21.8-102.7-28.4-191.1-27.3-221.7c1.1-30.6,6.5-52.4,5.5-67.7c-1.1-15.3-8.7-37.1-8.7-37.1s24-3.3,24-12s-17.5-131.1-24-140.3
				c-6.5-9.3-9.8-10.9-9.8-13.7s-93.4-355.5-93.4-374.1c0-18.6,1.1-28.4-7.6-43.7c-8.7-15.3-14.2-22.9-15.3-34.9
				c-1.1-12-9.8-26.2-10.9-42.6s-1.1-21.8-1.1-36c0-14.2-9.3-83.6-7.6-94.5c1.6-10.9,1.6-36.6,0-53c-1.6-16.4-144.7-24-152.4-16.9
				c-7.6,7.1-2.7,18.6-2.7,21.3c0,2.7,5.5,45.9,9.3,58.4s26.8,48.1,33.3,98.3s14.2,140.9,16.4,161.6c2.2,20.8,45.3,413.4,49.1,440.1
				c3.8,26.8,1.1,66.6,7.6,71c6.6,4.4,11.5,6.6,11.5,6.6s-8.2,41.5-6,80.8c2.2,39.3-1.1,77.5-2.2,131.1
				c-1.1,53.5-4.4,124.5-5.5,136.5c-1.1,12-3.3,180.2-17.5,179.1c-14.2-1.1-26.2-24-31.7-31.7c-5.5-7.6-95-182.4-100.5-221.7
				c-5.5-39.3-27.3-85.2-43.7-139.8c-16.4-54.6-14.2-67.7-28.4-97.2c-14.2-29.5-13.1-39.3-28.4-55.7c-15.3-16.4-21.9-33.9-21.9-33.9
				s6.6-10.4,1.1-24.6s-24.6-42.6-28.4-59.5c-3.8-16.9-124.5-345.7-136.5-375.2c-12-29.5-20.8-41.5-18.6-47
				c2.2-5.5-15.3-69.9-26.2-109.2c-10.9-39.3-17.5-44.8-17.5-75.4s-5.5-57.9-12-75.4c-6.6-17.5-1.1-14.2-5.5-24
				c-4.4-9.8-118.5-7.1-129.4-3.8c-10.9,3.3-6.6,13.1-6.6,15.8c0,2.7-2.7,22.9-1.1,32.2c1.6,9.3,61.7,80.3,71.5,145.8
				c9.8,65.5,17.5,149.6,17.5,149.6s108.1,467.4,119,503.5c10.9,36,8.7,45.9,22.9,43.7c14.2-2.2,19.7-3.3,19.7-3.3
				s36,150.7,38.2,169.3c2.2,18.6,23.2,252.8,31.9,311.8s16.4,87.4,16.4,87.4s-34.9,22.4-40.9,33.3c-6,10.9-6.6,10.9-10.4,13.6
				c-3.8,2.7-14.2,4.9-16.9,10.9s-6.6,6.6-4.9,19.7c1.6,13.1-16.9,44.8-28.9,63.4c-12,18.6-10.9,31.7-19.7,40.4
				c-8.7,8.7-19.7,25.1-25.1,33.9c-5.5,8.7-26.2,95-25.1,125.6c1.1,30.6,52.4,371.4,64.4,440.1c12,68.8,43.7,150.7,71,160.6
				c27.3,9.8,87.8,14.4,87.8,14.4c17.5,43.7,62.2,45.9,67.7,80.8c5.5,34.9-3.3,61.2,9.8,80.8c13.1,19.7,8.2,50.2,18.6,72.1
				c10.4,21.8,9.8,36.6,9.8,55.7c0,19.1,15.3,95.6,55.7,128.3c40.4,32.8,85.2,26.2,116.9,22.9c31.7-3.3,64.4-9.8,85.2-32.8
				c20.8-22.9,6.5-65.5,35-109.2c28.4-43.7,30.6-63.4,31.7-93.9c1.1-30.6-35-81.9-17.5-122.3c17.5-40.4,24-28.4,28.4-76.5
				c4.4-48.1,2.2-101.6,2.2-101.6S4118.4,3310.9,4134.8,3301.1L4134.8,3301.1"/>
			<path id="path24" class="st2" d="M1544.1,2191c-0.8,43.1-33.2,186.5-33.2,186.5c0.3-1.3-12.7-4.2-18.1-5.4
				c-5.4-1.2-19.9,42.7-22.4,43.9c-2.5,1.2-20.3-39.8-25.3-53.9c-5-14.1-32.3-2.1-37.7-3.3c-5.4-1.2-6.6-9.9-12.4-26.9
				c-5.8-17-41.4-133.9-77.1-189.4c-35.6-55.5-67.9-232.9-67.9-232.9l5.8-12.4c0,0-2.5-14.1-16.6-42.3s-145-364.7-150.8-386.2
				c-5.8-21.6-18.2-57.2-26.5-72.1c-8.3-14.9-9.1-12.4-14.9-34c-5.8-21.6-19.5-61.3-22.4-65.9c-2.9-4.6-3.7-12.8-3.3-29.8
				c0.4-17,0-80.4,0-80.4s3.1-6.4,5.6-11.2c2.5-4.8,3.3-5.6,2.7-12.2c-0.6-6.6-1.2-53.9-1.7-57.6c-0.4-3.7-7.9-44.3-7.9-44.3
				s-0.4-10.8,2.1-13.7c2.5-2.9,2.5-23.2,2.1-28.2c-0.4-5,0.4-9.9-10.4-12.4c-10.8-2.5-118.1,4.6-123.5,5.8
				c-5.4,1.2-2.1,16.6-3.3,25.3c-1.2,8.7,4.6,14.5,4.6,14.5s3.7,17.4,4.1,20.3c0.4,2.9-0.4,10.4-3.7,27.8
				c-3.3,17.4,2.1,39.4,5.4,58.4c3.3,19.1,14.5,112.7,14.5,112.7s-2.5,9.1-4.2,31.5c-1.7,22.4,4.2,59.7,5,71.3
				c0.8,11.6,7.5,10.8,11.6,22.4c4.1,11.6,4.1,32.3,9.1,68c5,35.6,109.4,472.4,112.7,480.7c3.3,8.3,32.3-2.1,32.3-2.1
				s6.6,17.4,19.5,52.6c12.8,35.2,27.8,85.4,31.5,147.9c3.7,62.6,27.3,207.6,27.3,207.6s-3.7,4.1-5.8,6.2
				c-2.1,2.1,4.1,27.4,7.5,54.7c3.3,27.4,26.1,204.3,26.1,204.3s-6.6,4.1-12.4,7.5c-5.8,3.3-5.8,19.9-11.6,62.2
				c-5.8,42.3-27.3,201.4-27.3,201.4s2.5-32.3,1.7-63.8c-0.8-31.5-9.9-116-9.9-116s4.2-44.8,5-84.5c0.8-39.8-2.9-154.6-4.1-160.8
				c-1.2-6.2-18.2-6.6-18.2-6.6s3.7-9.1,5.8-33.1c2.1-24,0-37.7-5-49.3c-5-11.6,2.5-56.8,2.5-56.8s5.8-7.7,11.4-13.9
				c5.6-6.2,10.4-15.1,5.2-16.6c-5.2-1.4-15.7,6-15.4,4.7c0.2-1.4,6.9-7.9,10.3-12.1c3.3-4.2,9.8-20.2,9-23.1
				c-0.8-2.9-12.8,4.3-12.8,4.3s6.2-8.9,6.6-17.2c0.4-8.3-8.3-1.2-9.3-1.2c-1,0,0.6-7.2-3.5-12c-4.2-4.8-40,28.6-48.3,36.5
				c-8.3,7.9-25.3,58.9-29.4,74.2c-4.2,15.3-5,107.3-5,107.3s-1.2,3.7-4.6,5.4c-3.3,1.7,0.4,13.3,2.5,29.8s-6.6,334.8-14.9,424.3
				c-8.3,89.5,6.6,391.2,6.6,391.2s6.6,39,18.2,58.9c11.6,19.9,68.4,44.8,84.9,59.3c16.6,14.5,19.1,19.9,28.6,34.4
				c9.5,14.5,52.2,47.2,54.7,51.4c2.5,4.1,6.6,18.2,11.6,53.9c5,35.6-3.3,92,13.3,149.2c16.6,57.2,67.1,131.8,98.6,140.9
				c31.5,9.1,63,0,65.5-5.8c2.5-5.8,16.6-0.8,37.3-6.6c20.7-5.8,59.7-44.8,79.6-93.6c19.9-48.9,17.4-116.9,22.4-148.4
				c5-31.5-4.1-65.5-0.8-128.5c3.3-63,14.1-62.2,21.6-69.6c7.5-7.5,41.4-34,56.4-38.9s31.5-21.6,34-27.4s6.6-18.2,8.3-37.3
				c1.7-19.1,23.2-99.4,27.3-150c4.1-50.6,29.8-243.7,41.4-274.3c11.6-30.7,3.3-20.7,4.2-52.2c0.8-31.5,9.1-90.3,9.1-90.3
				s5.8-20.7,13.2-47.2c7.5-26.5,14.1-81.2,29.8-120.2s23.2-105.3,23.2-105.3s0-13.3,1.6-19.1c1.7-5.8,13.3-28.2,10.8-46.4
				l-9.5-69.6c0,0-0.8-5.4-4.6-14.5c-3.7-9.1-14.5-27.8-17.8-32.7c-3.3-5-7-13.3-11.6-23.2c-4.6-9.9-34.8-27.4-34.8-27.4
				s-0.4-20.3-3.7-86.6c-3.3-66.3-7.5-166.2-7.5-166.2l45.6-13.3c0,0-100.3-653.5-103.6-664.7c-3.3-11.2-7.1-67.1-7.1-74.6
				s30.7-77.1,30.7-84.1c0-7,3.3-19.9-0.4-29.8c-3.7-10-2.5-29.8-0.4-31.9c2.1-2.1,4.1-29.8,0.4-38.5c-3.7-8.7-112.3-5-121.4-4.1
				c-9.1,0.8-14.1,7.5-15.7,16.6c-1.7,9.1,1.7,45.2,0.8,52.6c-0.8,7.5-0.8,16.6-5,36.5c-4.1,19.9,5.8,38.1,5.8,51.4
				s-1.7,12.4-7.5,53.9c-5.8,41.4,11.6,124.3,11.6,124.3s3.3,41.4-3.3,76.3c-6.6,34.8,5,96.1,5,175.7c0,79.6-16.6,343.9-15.8,350.6
				c0.8,6.6,12.4,6.6,12.4,6.6S1544.9,2147.9,1544.1,2191L1544.1,2191z M1602.7,3000.7c0,0-9.1-21.6-7.5-53
				c1.7-31.5,28.2-72.9,29.8-82.1c1.7-9.1-3.3,32.3-9.1,43.9C1610.1,2921.1,1603.5,2982.4,1602.7,3000.7L1602.7,3000.7"/>
			<path id="path26" class="st2" d="M4674.5,2847.7c0,0-25.5,135.8-37.1,158.6c-11.7,22.8-21.8,33.9-28.6,54.1
				c-6.9,20.2-9.5,30.8-9.5,30.8c-20.2-36.1-132.1-143.8-137.4-153.8c-5.3-10.1,2.6-21.8,2.6-21.8s105.5-142.1,124.1-161.2
				c18.6-19.1,38.7-38.7,38.7-38.7s23.3,24.4,30.8,26.5c7.4,2.1,12.2,4.2,12.2,4.2s-5.8,45.6-11.1,61c-5.3,15.4-1.6,22.3,2.1,26
				C4665,2837.1,4674.5,2847.7,4674.5,2847.7L4674.5,2847.7z M5332.8,2306.1c0,0-15.9-22.8-29.2-55.7
				c-13.3-32.9-24.4-106.6-26-120.4c0,0-2.4-9.4-2.1-10.6c0.3-1.2,64.5,5.8,114.9,21.8c50.4,15.9,100.9,23.9,101,24.8
				s-2.8,12.2-2.8,12.2s-2.3,1.9-6,5.6c-3.7,3.7-17.8,66.4-25.7,79.4c-8,13-37.7,45.1-37.7,45.1s-2.4,0-6.1-1.3s-10.3,0.5-10.3,0.5
				s-8.2-4-15.4-3.4s-9.3,4-9.3,4s-2.4,0.3-6.6-0.8c-4.2-1.1-9.5,1.1-9.5,1.1s-2.1-1.1-9.5-3.7
				C5345,2301.9,5332.8,2306.1,5332.8,2306.1L5332.8,2306.1z M4947.5,2863.5c-1.1-14.9,2.1-41.4,4.2-48.8s64.7-82.7,89.1-172.9
				s-11.7-334.2-28.6-333.1c-17,1.1-29.7-8.5-29.7-8.5l-34-72.1c0,0-10.6-80.6-7.4-151.7c3.2-71.1,1.1-118.8,12.7-141.1
				c11.7-22.3,29.7-61.5,29.7-61.5s7.9,6.9,14.3,1.1c6.4-5.8,122.5-161.8,156.5-229.7s41.4-109.3,79.6-153.8
				c38.2-44.6,93.4-117.2,101.3-126.8s11.7-20.7,15.9-37.1c4.2-16.4-2.7-45.1,12.7-81.2c15.4-36.1,21.2-58.3,18.6-61.5
				c-2.6-3.2-10.6-3.7-10.6-3.7s-39.8,76.4-48.3,83.3c-8.5,6.9-15.4-2.1-15.4-2.1s-13.3-41.4-10.6-70c2.6-28.6,2.1-52-5.8-61.5
				c-8-9.6-90.2-53-115.1-58.3c-24.9-5.3-41.4,0.5-44,5.3c-2.6,4.8-3.2,9,4.2,19.6c7.4,10.6,60.5,55.7,62.6,69s-9,110.9-20.7,140.6
				c-11.7,29.7-95,175.6-165,265.8c-70,90.2-161.3,202.6-156,211.1c5.3,8.5,6.4,12.7,6.4,12.7s-46.7,53.6-56.8,66.8
				c-10.1,13.3-14.9,20.7-14.9,20.7l-5.3-50.4c0,0,8.5-5.8,10.1-10.1s0.5-43,0.5-43s-30.8-295.5-56.2-352.8
				c-25.5-57.3-32.9-123.1-29.7-133.7c3.2-10.6,27.6-56.2,29.7-84.3c2.1-28.1-16.5-56.2-21.2-77.4c-4.8-21.2-14.3-89.6-13.8-98.1
				c0.5-8.5-0.8-9-2.7-9.3c-1.9-0.3-14-0.8-13.8,1.3c0.3,2.1-1.9,100.3-1.9,100.3s-13.8-26.5-29.2-54.6
				c-15.4-28.1-21.8-48.3-35.5-57.8c-13.8-9.5-150.1-9-168.2-4.2c-18,4.8-14.9,9.6-15.9,13.8c-1.1,4.2-2.6,15.9,13.8,24.4
				c16.5,8.5,71.1,28.1,81.7,54.1c10.6,26,18,100.8,32.9,143.2c14.9,42.4,25.5,87,27.6,104c2.1,17,24.4,150.1,31.8,259.4
				c7.4,109.3-3.2,230.2,1.6,231.3c4.8,1.1,10.1,1.6,10.1,1.6s-5.8,74.8,3.7,118.8c9.5,44,39.8,259.4,49.3,298.7
				c9.6,39.2,9.6,46.7,9.6,46.7l3.2,14.9c0,0-11.7,5.8-11.1,9c0.5,3.2,9,210.1,3.2,257.3c-5.8,47.2-5.3,66.3-6.4,68.4
				c-1.1,2.1-23.3,12.2-26,9.6c-2.6-2.7-21.8-18.6-28.9-21.2s-24.9,4.8-25.7,7.7c-0.8,2.9-134.5,132.9-187.5,179
				c-53,46.1-69.5,80.4-72.7,90.7c-3.2,10.4,0.8,16.7,1.6,18.8c0.8,2.1,155.7,200.8,167.9,217.2c12.2,16.4,14.3,18,14.3,22.3
				s7.4,10.6,13.3,19.1c5.8,8.5,16.8,35.2,16.8,35.2c6.4,35,32.9,47.8,37.1,66.8c4.2,19.1-12.7,8.5-1.1,42.4s23.3,30.8,23.3,59.4
				c0,28.6,7.4,45.6,11.7,60.5c4.2,14.9-3.2,12.7,18,41.4c21.2,28.7,34,56.2,34,56.2s-14.3,45.1,27.6,100.3
				c41.9,55.2,87,89.6,107.7,92.3c20.7,2.6,49.9-7.4,55.2-8.5c5.3-1.1,27.6-3.2,47.7-10.6c20.2-7.4,52-31.3,71.1-88.6
				c19.1-57.3,9.5-93.4,1.1-129.4c-8.5-36.1,5.3-38.2,6.4-70s-15.9-39.2-19.1-69c-3.2-29.7,0-49.9,0-49.9s44.6-8.5,60.5-28.7
				c15.9-20.1,57.8-166,58.9-175.6c1.1-9.5-4.8-16.4-4.8-16.4s28.1-160.7,50.4-202.1c22.3-41.4,39.2-78.5,61.5-124.1
				c22.3-45.6,110.3-216.4,120.9-224.9c10.6-8.5,28.6-32.9,35-43.5c6.4-10.6,49.3-116.7,53.6-128.4c4.2-11.7,0-45.6,0-45.6
				s49.9-48.3,59.9-65.2c10.1-17,18-66.8,21.2-75.9c3.2-9-2.6-15.4-2.6-15.4l5.8-13.3c0,0,44,5.6,49.9,3.7c5.8-1.9,9.5-9,9.5-9
				s23.6-46.4,23.6-58.1c0-11.7-4.8-18.6-4.8-18.6s48.8-84.3,61.5-124.7c12.7-40.3,44.6-124.1,39.3-134.7
				c-5.3-10.6-383.5-109.3-404.7-115.1c-21.2-5.8-41.4,3.2-57.3,5.3s-44.6,4.8-47.2,14.3c-2.6,9.6-11.1,135.8-0.5,179.3
				c10.6,43.5,18,106.1,18,106.1s0.5,72.1,10.1,79.6c9.5,7.4,44.6,20.1,44.6,20.1s17,113,33.4,150.7c16.5,37.7,17.5,40.3,17.5,40.3
				s-3.5-2.4-4.2,3.2c-0.8,5.6,5,11.7,5.3,13.8c0.3,2.1,1.9,26.5-0.8,49.3s3.7,67.4,3.7,69c0,1.6-13.3,57.3-37.7,91.2
				c-24.4,33.9-121,148.5-160.2,214.3c-39.2,65.8-29.7,107.2-50.9,149.6c-21.2,42.4-63.7,150.6-64.7,139s-38.2-96.5-41.4-114.6
				c-3.2-18,0-30.8,0-30.8S4948.6,2878.4,4947.5,2863.5L4947.5,2863.5"/>
			<path id="path28" class="st2" d="M4952.1,6005.7c0,0-28.6,127.2-57.2,163.7c-28.6,36.5-45.4,51.3-61.1,74.9
				c-15.8,23.7-22.7,39.4-22.7,39.4c-5.9-7.9-72-58.2-106.5-100.6c-34.5-42.4-67-82.8-67-82.8s51.3-50.3,82.8-76.9
				c31.5-26.6,70-45.4,70-45.4s28.6-1,40.4-7.9c11.8-6.9,38.5-9.9,44.4-12.8c5.9-3,18.7-1,39.4,17.8
				C4935.3,5993.9,4952.1,6005.7,4952.1,6005.7L4952.1,6005.7z M4961.9,6567.7c3.5,8.9,13.3,22.2,14.8,45.9
				c1.5,23.7-0.5,25.6-0.5,25.6s-27.6,21.2-37.5,44.4c-9.9,23.2-13.3,35-13.3,35s-29.1,34.5-34.5,62.6
				c-5.4,28.1-13.3,86.8,4.4,120.3c17.8,33.5,17.8,18.7,21.7,42.4c4,23.7,14.8,26.6,29.6,43.4c14.8,16.8,52.3,15.8,101.6,22.7
				c49.3,6.9,107-45.9,122.8-78.9s6.9-50.8,15.3-64.1c8.4-13.3,35.5-65.6,58.2-94.2c22.7-28.6,21.7-16.8,24.7-53.2
				c3-36.5-5.9-58.2,15.8-77.9c21.7-19.7,19.7-3,34.5-47.3c14.8-44.4-9.9-68,2-83.8c11.8-15.8,23.7-28.6,21.7-37.5
				s20.7-19.7,34.5-42.4c13.8-22.7,13.8-32.5,14.8-38.5c1-5.9,22.7-53.2,32.5-128.2c9.9-74.9,35.5-187.4,45.4-210
				c9.9-22.7,19.7-66.1,13.8-108.5s-77.9-150.9-77.9-150.9s-3-14.8-6.4-21.7c-3.5-6.9-8.9-9.4-17.8-11.3c-8.9-2-22.2-12.3-25.6-11.8
				c-3.5,0.5-8.9-267.2-41.4-409.2c-32.5-142-123.3-366.8-123.3-366.8s33.5-147.9,24.6-151.9c-8.9-4-51.3-13.8-51.3-13.8
				s14.8-65.1,29.6-181.4s15.8-280,23.7-299.8c7.9-19.7,33.5-46.3,37.5-74.9c3.9-28.6,2-36.5,5.9-42.4c4-5.9,18.7-22.7,24.7-48.3
				c5.9-25.6,1-92.7,5.9-135.1c4.9-42.4,5.9-74.9,1-100.6c-4.9-25.6-23.7-51.3-32.5-55.2c-8.9-3.9-78.9-7.9-86.8-1
				c-7.9,6.9-31.5,53.2-29.6,96.6c2,43.4,9.9,55.2,9.9,63.1c0,7.9,20.2,129.2,17.2,146.4c-3,17.3-23.7,34.5-28.1,69.5
				c-4.4,35-3.5,47.3-14.8,74.9s-94.7,239.6-94.7,239.6l-74.9-217.9c-21.7-63.1-45.9-196.7-46.8-218.9c-1-22.2,0.5-25.6,4.9-35
				c4.4-9.4,32-64.6,35-78.4c3-13.8-27.6-48.8-38-54.2c-10.4-5.4-66.6,7.4-94.7,29.1c-28.1,21.7-26.6,38-24.2,51.8
				c2.5,13.8,1,82.8-5.9,110.4c-6.9,27.6-3.9,33.5-7.4,29.6s-32.5-99.6-41.4-98.6c-8.9,1-18.7,1.5-15.8,10.4
				c3,8.9,26.6,75.4,32.5,135.6c5.9,60.1-2,86.8,11.8,109.5c13.8,22.7,56.2,49.3,62.1,47.3c5.9-2,34,36,48.8,119.8
				c14.8,83.8,8.9,164.7,37.5,249.5c28.6,84.8,48.3,132.1,43.4,134.1c-4.9,2-15.8,15.8-15.8,15.8s21.7,81.9,17.8,143
				c-3.9,61.1-27.6,149.9-51.3,224.8c-23.7,74.9-77.9,222.9-77.9,352c0,129.2,67,253.4,67,253.4s-78.9-2-100.6-4.9
				s-35.5-5.9-35.5-5.9s1,1-3,15.8c-3.9,14.8-4.9,22.7-9.9,23.7c-4.9,1-85.8,24.6-135.1,52.3c-49.3,27.6-82.8,53.2-110.4,64.1
				c-27.6,10.8-32.5,23.7-34.5,32.5c-2,8.9,11.8,51.3,16.8,64.1c4.9,12.8,96.6,132.1,136.1,174.5c39.4,42.4,94.7,127.2,113.4,150.9
				l22.7,28.6c0,0,46.3,31.5,65.1,34.5c18.7,3,49.3,5.9,67,18.7s42.4,19.7,45.4,24.6C4941.2,6551,4961.9,6567.7,4961.9,6567.7
				L4961.9,6567.7z M5313,6041.7c-5.9-35.5,2-91.7,2-91.7s23.2-2,28.6-4.4c5.4-2.5,14.8-22.7,14.8-22.7l25.6,68
				c0,0,6.9,8.9-3.9,35.5c-10.8,26.6-31.5,89.7-36.5,113.4c0,0-1.5-12.6-5.4-27.1C5334.2,6098.2,5318.9,6077.2,5313,6041.7
				L5313,6041.7"/>
			<path id="path32" class="st2" d="M2830.7,5938.1c0,0,46,19.6,100.8,55.8c54.8,36.2,141.9,120.4,141.9,120.4s-4.9,6.9-25.4,33.3
				c-20.6,26.4-66.6,109.6-75.4,128.2l-7.8,16.6c0,0-8.8-19.6-16.6-35.2c-7.8-15.7-19.6-36.2-28.4-50.9c-8.8-14.7-15.7-25.5-25.4-48
				s-25.4-47-40.1-67.5c-14.7-20.6-8.8-28.4-16.6-50.9c-7.8-22.5-15.7-39.2-14.7-58.7C2823.8,5961.6,2830.7,5938.1,2830.7,5938.1
				L2830.7,5938.1z M2840.9,5853.8c0,0,1-6.9,16.6-42.1c15.7-35.2,33.3-64.6,41.1-74.4s45-29.4,66.6-150.8
				c21.5-121.4-25.4-180.1-37.2-244.7c-11.7-64.6,18.6-229.6,20.6-269.7c2-40.1,35.2-130.2,38.2-148.8s2-31.3,2-31.3l-4.9-10.8
				c0,0,50.9-109.6,42.1-217.3c-8.8-107.7-62.6-321.1-63.6-341.6s7.8-30.3,7.8-30.3s37.2-33.3,39.2-74.4c2-41.1-16.6-51.9-22.5-80.3
				c-5.9-28.4-3.9-164.5-7.8-168.9c-3.9-4.4-12.7-4.9-17.1-4.4c-4.4,0.5-7.3,2.4-7.3,2.4l-3.4,81.2c0,0-14.7-36.7-16.6-57.8
				c-1.9-21.1-4.9-44.5-14.2-51.9c-9.3-7.3-129.7-10.8-139.5-6.4s-9.3,12.7-13.2,21.1c-3.9,8.3-21.5,38.7-8.8,60.7
				s38.2,46.5,41.1,53.8c2.9,7.3,25.5,77.8,27.4,126.8c2,49,18.6,114.5,20.6,150.8c2,36.2-9.8,259.4-19.6,340.7
				s-15.7,144.9-22.5,160.5c-6.9,15.7-8.8,25.5-8.8,25.5l-255.5-8.8c0,0,42.1-28.4,48-141.9c5.9-113.6-7.8-281.9,9.8-348.5
				s25.4-72.4,25.4-72.4s14.7-3.4,21.1-9.3c6.4-5.9,31.3-34.8,32.3-63.6c1-28.9-13.7-51.4-14.2-61.2s10.3-166.7,6.6-168.4
				s-14.2-3.9-14.4-2c-0.2,2-20.6,131.7-26.9,143.4c-6.4,11.7-43.1-32.3-55.3-60.7c-12.2-28.4-18.6-86.1-21-106.7
				s-104.8-30.8-139-35.7c-34.3-4.9-39.2,12.7-39.6,16.6c-0.5,3.9-15.7,20.1-15.2,38.2c0.5,18.1,83.7,86.1,83.7,86.1
				s37.2,79.8,35.2,166.9c-2,87.1-21.5,162.5-48.9,272.1s-42.1,220.3-57.8,287.8c-15.7,67.5-46,156.6-47,204.6
				s83.2,341.7,96.9,406.3c13.7,64.6,21.5,99.9,21.5,99.9s45,123.3,47,154.7c1.9,31.3,5.9,52.9,1.9,66.6
				c-3.9,13.7,21.6,37.2,13.7,123.3c-7.8,86.1-13.7,166.4-5.9,223.2c7.8,56.8,7.8,78.3,7.8,78.3s-18.6,42.1-17.6,81.3
				c1,39.2,65.6,102.8,80.3,116.5c14.7,13.7,66.6,72.5,75.4,96.9c8.8,24.5,8.8,32.3,26.4,53.8c17.6,21.5,31.3,27.4,31.3,40.1
				s-2.9,48-5.9,59.7c-2.9,11.8-4.9,11.8-4.9,11.8s-16.2-0.5-27.4,15.2c-11.3,15.7-15.2,29.9-33.3,56.8s-28.4,48-28.4,70.5
				s3.4,34.3-0.5,43.1s-5.9,22-5.4,27.4c0.5,5.4-0.5,46.5,2.9,62.2c3.4,15.7,2.4,19.6,2.4,19.6s-3.9,25.5,10.8,52.9
				c14.7,27.4,39.2,46,68.5,52.9c29.4,6.9,56.8,15.7,87.1,13.7c30.4-2,98.9-50.9,110.6-92s0-46,17.6-68.5
				c17.6-22.5,30.4-32.3,36.2-62.6c5.9-30.4,1-39.2,11.8-59.7s21.5-20.6,21.5-51.9c0-31.3,4.9-21.5,0-57.8
				c-4.9-36.2,4.9-48,8.8-60.7c3.9-12.7-7.4-34.4-7.4-34.4c11.8-7.8,64.6-56.8,62.6-76.4c-2-19.6,9.8-45,9.8-45
				s32.3-57.8,72.4-104.7s86.1-115.5,110.6-178.2c24.5-62.6,23.5-70.5,13.7-81.2c-9.8-10.8-19.6-14.7-23.5-19.6
				c-3.9-4.9-119.4-79.3-208.5-118.4C2916.3,5884.1,2840.9,5853.8,2840.9,5853.8L2840.9,5853.8"/>
			<path id="path34" class="st2" d="M1171,6692.7c-7.8,21.3,19.4,60.1,25.2,89.1c0,0,24.6,75.4,60.4,99.6
				c35.8,24.2,54.3,10.7,69.8,6.8c15.5-3.9,36.8,7.8,68.8,1.9c32-5.8,50.4-18.4,65.9-31c15.5-12.6,10.7-33.9,28.1-51.4
				c17.4-17.4,35.8-53.3,38.8-90.1s-5.8-70.7-4.8-75.6c1-4.9,3.9-9.7,7.8-37.8c3.9-28.1-4.8-27.1-6.8-55.2
				c-1.9-28.1,19.4-40.7,29.1-77.5s-1-53.3,1-74.6c1.9-21.3,12.6-13.6,30-28.1c17.4-14.5,67.8-56.2,77.5-69.8
				c9.7-13.6,10.7-75.6,10.7-75.6s12.6-25.2,23.2-76.5c10.7-51.4,54.3-120.2,62-144.4c7.8-24.2,16.5-31,22.3-43.6
				c5.8-12.6,1.9-37.8-5.8-67.8s-73.6-119.2-73.6-119.2s1-10.7-8.7-23.3c-9.7-12.6-46.5-20.4-55.2-18.4s-34.9-5.8-34.9-5.8
				s3.9-15.5,32-64c28.1-48.4,448.6-805.2,453.5-814c4.9-8.7-56.2-33-66.9-38.8c-10.7-5.8-11.6-20.4-11.6-32.9
				c0-12.6-24.2-17.5-53.3-45.5c-29.1-28.1-315.9-96.9-341.1-103.7c-25.2-6.8-12.6,11.6-17.4,11.6c-4.8,0-15.5-8.7-15.5-8.7
				s0-1-2.9-22.3c-2.9-21.3-15.5-97.9-34.9-212.2c-19.4-114.3-15.5-169.6-15.5-169.6s8.7-10.7,8.7-24.2c0-13.6,1-103.7,2.9-158.9
				c1.9-55.2,7.8-80.4-1.9-97.9c-9.7-17.4-122.1-20.4-139.5,2.9c-17.4,23.2-4.8,52.3-1.9,94c2.9,41.7,12.6,62,11.6,87.2
				c-1,25.2,0,40.7,1.9,66.8c1.9,26.2,7.8,22.3,17.4,37.8c9.7,15.5,17.4,47.5,17.4,138.6c0,91.1-26.2,249-26.2,249
				s-18.4,2.9-24.2-8.7c-5.8-11.6-51.4-14.5-91.1-18.4c-39.7-3.9-47.5,5.8-55.2,20.4c-7.8,14.5-60.1-9.7-60.1-9.7s0,1-10.7-20.4
				c-10.7-21.3-90.1-145.3-132.8-229.6c-42.6-84.3-36.8-123.1-36.8-123.1s9.7-14.5,1.9-29.1c-7.8-14.5-22.3-43.6-37.8-76.5
				c-15.5-32.9-30-52.3-39.7-76.6c-9.7-24.2-10.7-75.6-22.3-94s-24.2-7.8-72.7,28.1c-48.4,35.9-43.6,66.9-47.5,78.5
				s5.8,45.5,5.8,45.5s-4.8,4.8-6.8,8.7c-1.9,3.9,40.7,57.2,46.5,71.2c5.8,14,17.4,47.5,25.2,76.5s42.2,38.3,48,41.2
				c5.8,2.9,14,1.9,14,1.9s18.9,33.4,32.5,93c13.6,59.6,64.4,237.4,64.4,237.4l-21.8,4.6c-12.6,2.7-30.8-1.5-40.5-0.5
				c-9.7,1-24.2,0.7-35.9-3.6c-11.6-4.4-85.8,26.4-96.4,33.2c-10.7,6.8,19.4,185.1,79.5,400.2c60.1,215.1,170.5,628.4,170.5,628.4
				s-9.7-2.4-24.7-4.4s-20.3,6.3-30,8.2c-9.7,1.9-16.5,1.9-30,8.2c-13.6,6.3-19.9,20.8-19.9,20.8s-20.3,6.8-86.2,63
				s-129.8,148.7-136.1,153.6c-6.3,4.8-9.2,13.6-8.2,27.1c1,13.6,6.8,37.3,28.1,69.3c21.3,32,117.2,161.8,134.2,196.2
				c16.9,34.4,65.4,91.1,65.4,91.1l-1.9,7.8c0,0,18.9,28.1,34.4,45.5c15.5,17.4,56.2,30,91.1,35.9c34.9,5.8,70.2,3.4,76.1,5.3
				c5.8,1.9,19.9,14.5,19.9,14.5s-4.8,25.2-1,49.4c3.9,24.2,14.5,24.2,13.6,40.7c-1,16.5-23.3,33-16.5,58.1
				c6.8,25.2,2.9,26.2,5.8,48.5C1191.4,6659.8,1178.8,6671.4,1171,6692.7L1171,6692.7z M1581.7,5856.3c2.4-1.5,9.7-2.9,18.9-5.8
				c9.2-2.9,30-26.2,35.4-29.1c5.3-2.9,45.1,125,45.1,125s-2.9,10.7-33.9,36.8c-31,26.2-80.4,96.9-85.3,109.5c0,0-13.6,18.4-15,21.8
				c-1.4,3.4-2.4-14.5-14.5-34.4s-11.1-19.9-17-36.3c-5.8-16.5-1.9-23.2-2.9-48.5c-1-25.2-9.7-42.6-5.8-68.8
				c3.9-26.2,7.8-39.2,13.1-39.7c5.3-0.5,36.3-16.5,36.3-16.5s7.8-2.4,14.1-3.4C1576.4,5866,1579.3,5857.8,1581.7,5856.3
				L1581.7,5856.3z M1135,5974.1c-1.9,32-28.1,108-29.1,110.5s-8.7,24.2-19.9,27.1c-11.1,2.9-42.6,39.2-44.1,48.4l-4.3,8.2
				c0,0-34.4-40.2-69.3-74.1c-34.9-33.9-100.8-111.4-100.8-111.4s1-16.5,39.7-68.8c38.8-52.3,89.2-102.7,89.2-102.7
				s3.9-5.8,10.7-6.8c6.8-1,16.5-8.7,25.2-13.6c8.7-4.9,15.5-2.9,23.3,2.9c7.8,5.8,15.5,24.2,28.1,36.8
				c12.6,12.6,44.6,20.4,44.6,20.4s5.8,15.5,6.8,42.6C1136,5920.8,1137,5942.1,1135,5974.1L1135,5974.1"/>
		</g>
	</g>
</g>
<g id="Layer_2">
	<path id="path30" class="st3" d="M115.5,306.5c0.7-3.7,0.3-6.7,0-7.5l-1.7-5.1c-0.2-0.5-0.4,8.3-0.4,11.3c0,2.9,0.8,9,0.8,9.4
		S114.8,310.2,115.5,306.5L115.5,306.5z M46.4,243.3c0.5-0.1-2.5-7.7-3.9-11.4c-0.3-0.8-1.5-1-2-0.3c-0.5,0.6-1,1.3-1.2,1.8
		c-0.6,1.3-3.5,4.7-3.5,6c0,1.3,2.3,2.1,5.2,2.6C43.9,242.6,45.7,243.4,46.4,243.3L46.4,243.3z M47.8,236.8c0.1-0.6,0.8-5,1.1-7.3
		c0.1-0.6-0.3-1.1-0.8-1.3c-0.1,0-0.2-0.1-0.3-0.2c-0.4-0.5-0.6-0.8-0.8-0.8c-0.2,0-0.9,0-1.3-0.4c-0.4-0.4-0.6-0.4-0.6-0.4
		s-1.1-0.2-1-0.1c0,0.1,0.3,0.6,0.3,0.6C44.4,228.5,47.7,237.5,47.8,236.8z M83.4,74.8c1.9-0.7,4-3.2,5.1-5.5
		c1.2-2.3-0.3-2.2,1.2-5.5c1.5-3.3,3-3.7,2.8-6.1c-0.3-2.4-1.1-12.6,1.1-17.9c2.2-5.3,3.8-15.5,9.6-19.7c5.8-4.2,13.2-2.9,14.1-3.4
		c0.9-0.4,6.1-1.3,11.2,2.2c5.1,3.5,8.1,11.7,7.7,19.4c-0.4,7.7-3.7,14.6-3,17.6c0.7,3,2.4,5.7,1.6,9.3c-0.8,3.6-1.2,5.2,0.6,7.6
		c1.4,1.9,2,6.2,2.2,7.9c0,0.4,0.3,0.8,0.7,1c2.7,1.1,12.9,5.5,14.9,6.6c2.3,1.3,3.6,1.9,3.5,2.9c-0.1,0.7-0.9,2.9-1.1,3.7
		c-0.1,0.2-0.1,0.4-0.1,0.6c0.3,1.6,1.7,9.7,2.3,27.7c0.7,20.4-1,17.8,0,25.6c1,7.7,4,27.2,4.2,32.8c0.1,4.8,0.1,7.4,0.1,8.1
		c0,0.1,0,0.3,0.1,0.4c0.3,0.9,1.7,5.2,1.5,5.7c-0.2,0.4-0.9,1.9-1.2,2.6c-0.1,0.2-0.1,0.5-0.1,0.7c0.7,3.4,6,29.4,6.3,31.6
		c0.3,2.4,0.8,3.7-0.1,4.1c-0.7,0.3-5.2,0.7-7.2,0.8c-0.6,0-1,0.4-1.1,1c-0.2,1.5-0.6,4.2-0.6,5.1c0,1.2-0.9,1.1-1.4,1.7
		c-0.5,0.6-5.1,2.8-6,3.3c-0.8,0.5-4.4-0.2-4.4-0.7c0-0.5,1.9-1,1.9-1s-0.6-1.1-0.2-1.2c0.5-0.2,0.5-0.4,1.2-0.1
		c0.3,0.1,0.7,0.2,1.1,0.2c0.6,0.1,1.1-0.3,1.3-0.9l0,0c0.2-0.7-0.3-1.4-1-1.5c-0.4-0.1-0.8-0.1-0.9-0.1c-0.2,0-1.4,1.7-2.5,1.1
		c-0.6-0.3-0.3-1.4,0-2.3c0.3-0.7-0.2-1.5-1-1.6l-0.3,0c-0.6-0.1-1.1,0.3-1.3,0.9c-1.5,5.5-8.6,32.6-9.4,36.8
		c-0.8,4.6,1.9,30.7-0.6,48.2c-2.5,17.5-10.4,41.8-11.8,46.1c-1.3,4.4,0.3,9.7,0.7,11.6c0.4,1.9-1.3,4.5-1.3,5.9s0.2,15.7,0.7,20.5
		c0.5,4.7-0.7,7.1-3.2,8c-2.5,0.9-15.9,1.9-17-0.3c-1.1-2.2,0.6-6.8,0.8-9.6c0.3-2.8,2-10,2-12.9v-4.6c0-0.4-0.2-0.8-0.6-1
		c-0.6-0.4-1.5-1.4-2.1-4c-1-4.2,0.3-15.5,0.8-20.2c0.5-4.7,1-11.1-0.2-13.8c-1.2-2.7-10.8-25.1-13-35.4
		c-2.2-10.3,0.2-16.8-0.7-24.2c-0.8-7.4-6.6-26.4-7.6-33.5c-0.7-4.9-1.6-7.3-2-8.3c-0.2-0.4-0.5-0.6-0.9-0.7
		c-1.4-0.2-4.6-0.8-4.6-2.1c0-1.7-1.2-7.9-2-7.6c-0.8,0.3-7.9,0.5-9.9,0c-2-0.5-1.9-2-1.9-2s3.9-28.6,3.5-32.5
		c-0.2-2.4-0.8-3.5-1.2-4.1c-0.3-0.3-0.3-0.8-0.1-1.2c0.5-1,1.3-3,1.7-4.5c0.5-2.2,8.6-30.6,9.6-36.5c0.8-4.9,1.2-8.9,1.3-10.1
		c0-0.2,0.1-0.4,0.2-0.6c0.6-0.7,2.1-2.9,1.7-4.4c-0.5-1.9-3.2-22.1-3.5-20.5c-0.3,1.5-1.5,21.7-3.4,29.1
		c-1.9,7.4-19.5,49.5-19.3,52.6c0.3,3.1,0.8,4.4,0.3,7.6c-0.3,2.1-0.6,3.7-0.8,4.6c-0.1,0.4,0.1,0.8,0.5,1.1
		c0.3,0.2,0.5,0.4,0.6,0.8c0.3,0.8,0.4,1.1,0.6,0.9c0.2-0.2,0.9-0.9,1.3-0.5c0.5,0.4,0.3,4.5-1,6.2c-1.3,1.7-1.8,2-1.7,3.6
		c0.1,1.6-0.6,7.2-0.9,9.8c-0.2,1.3-0.1,2.3,0,3c0.1,0.6,0.7,1.1,1.4,1c2.3-0.4,7.8-1.1,8.4,0.4c0.8,2,4,26.6,8.1,35.4
		c4,8.8,8.4,13.8,6.6,18c-1.9,4.2-19.5,11.1-22.4,10.8c-2.9-0.3-8.8-8.4-18.5-7.1c-9.8,1.3-17.7,2.7-18.7-2.9
		c-1-5.2-0.4-21.1-0.3-22.9c0-0.1,0-0.2,0-0.3c-0.2-0.8-1.2-4.6-1.5-8.9c-0.3-4.9,10.8-21.5,11.6-24.7c0.8-3.2-1.5-7.4,0-8.1
		c1.2-0.5,3.8,0.9,5,1.5c0.4,0.2,0.8,0.2,1.2,0c1.5-0.9,5.3-3.2,5.8-5.7c0.5-2.2,1.1-4.3,1.4-5.4c0.1-0.4,0-0.8-0.3-1.1
		c-0.5-0.5-1.2-1.6-0.9-3.3c0.5-2.7,4.5-7.7,5.4-9.9c0.8-2.2,2.5-11.3,4.4-25.3c1.9-14,5.4-29,7.6-36c2.2-7.1,2-14.3,3.5-23.6
		c1.5-9.3,3.8-29.5,3.9-31.7c0.1-2.2-1.5-4-0.9-5.8c0.6-1.8,7.1-7.2,9.1-8.2C73.7,76.1,83.4,74.8,83.4,74.8L83.4,74.8z M137.7,143.6
		c0,3.9,6.2,10.9,6.7,12.5c0.5,1.5-1.3-20.7-2.2-26.4l-0.5-5.2c0,0,0.5,5.2-2.5,6.2c-3,1-0.5,2.9-0.5,5.1
		C138.7,137.8,137.7,139.7,137.7,143.6L137.7,143.6"/>
</g>
</svg>
