<?xml version="1.0" encoding="iso-8859-1"?>
<!-- Generator: Adobe Illustrator 19.0.0, SVG Export Plug-In . SVG Version: 6.00 Build 0)  -->
<svg version="1.1" id="Layer_1" xmlns="http://www.w3.org/2000/svg" xmlns:xlink="http://www.w3.org/1999/xlink" x="0px" y="0px"
	 viewBox="0 0 511.997 511.997" style="enable-background:new 0 0 511.997 511.997;" xml:space="preserve">
<path style="fill:#BBDCE3;" d="M409.154,416.583c29.909-28.471,48.55-68.669,48.55-113.223c0-86.321-69.978-156.298-156.298-156.298
	S145.109,217.039,145.109,303.36c0,44.553,18.643,84.751,48.552,113.223L150.424,497.4h301.968L409.154,416.583z"/>
<g>
	<path style="fill:#FECC85;" d="M301.407,147.061c15.207,0,29.903,2.181,43.803,6.232V33.127h-87.607v120.165
		C271.503,149.243,286.199,147.061,301.407,147.061z"/>
	<circle style="fill:#FECC85;" cx="127.817" cy="88.118" r="73.517"/>
</g>
<path style="fill:#FF5E8A;" d="M345.315,221.482c-24.602,0-43.904,27.431-43.904,27.431s-18.208-27.431-43.914-27.431
	c-25.004,0-45.424,20.624-46.76,45.595c-0.752,14.108,3.795,24.844,10.202,34.567c12.804,19.427,68.78,66.197,80.556,66.197
	c12.018,0,67.497-46.6,80.385-66.197c6.42-9.768,10.955-20.459,10.2-34.567C390.742,242.106,370.322,221.482,345.315,221.482"/>
<path d="M301.494,382.442c-4.174,0-13.953,0-49.2-29.166c-15.75-13.03-35.46-31.327-43.547-43.598
	c-5.921-8.981-13.665-23.252-12.591-43.38c1.783-33.318,28.726-59.417,61.341-59.417c18.922,0,34.211,10.606,44.021,19.971
	c9.916-9.358,25.251-19.971,43.798-19.971c32.615,0,59.56,26.098,61.344,59.414c1.076,20.084-6.664,34.37-12.579,43.368
	c-8.156,12.401-27.763,30.684-43.393,43.66C315.616,382.442,305.719,382.442,301.494,382.442z M303.365,353.444L303.365,353.444
	L303.365,353.444z M303.365,353.444L303.365,353.444L303.365,353.444z M257.496,236.083c-16.807,0-31.242,14.254-32.181,31.774
	c-0.48,9.01,1.856,16.711,7.815,25.752c10.453,15.863,54.595,52.774,68.399,59.119c13.683-6.254,57.648-43.138,68.151-59.107
	c6.043-9.19,8.308-16.654,7.82-25.762c-0.94-17.521-15.376-31.775-32.184-31.775c-13.781,0-27.767,15.358-31.993,21.272
	c-2.744,3.843-7.187,6.137-11.897,6.137c-0.083,0-0.165-0.001-0.25-0.001c-4.802-0.083-9.275-2.501-11.931-6.503
	C285.337,251.21,271.947,236.083,257.496,236.083z"/>
<path d="M427.097,419.169c29.237-31.613,45.208-72.32,45.208-115.808c0-73.732-46.934-136.703-112.493-160.616V33.127
	c0-8.063-6.538-14.601-14.601-14.601h-87.607c-8.063,0-14.601,6.538-14.601,14.601v40.397H214.71C207.731,31.86,171.434,0,127.817,0
	C79.224,0,39.692,39.533,39.692,88.125c0,48.591,39.533,88.124,88.124,88.124c43.618,0,79.914-31.858,86.894-73.523h28.293v40.017
	c-65.561,23.912-112.495,86.886-112.495,160.616c0,43.488,15.971,84.195,45.208,115.808l-38.169,71.341
	c-2.421,4.526-2.288,9.99,0.349,14.392c2.638,4.402,7.393,7.096,12.525,7.096h301.97c5.132,0,9.886-2.695,12.525-7.096
	c2.638-4.404,2.77-9.867,0.349-14.392L427.097,419.169z M127.817,147.048c-32.491,0-58.922-26.432-58.922-58.922
	s26.431-58.924,58.922-58.924c31.61,0,57.477,25.022,58.857,56.298c-0.155,0.853-0.248,1.729-0.248,2.627s0.093,1.773,0.248,2.627
	C185.293,122.028,159.426,147.048,127.817,147.048z M272.205,47.728h58.405v87.239c-9.492-1.641-19.247-2.506-29.202-2.506
	c-9.955,0-19.71,0.864-29.202,2.506V47.728z M174.793,482.798l27.056-50.573h102.325c8.063,0,14.601-6.538,14.601-14.601
	c0-8.063-6.538-14.601-14.601-14.601H200.691c-26.457-26.691-40.981-61.912-40.981-99.663c0-78.132,63.565-141.697,141.697-141.697
	c78.131,0,141.695,63.565,141.695,141.697c0,39.172-15.632,75.625-44.017,102.646c-4.757,4.529-5.906,11.674-2.808,17.464
	l31.74,59.327L174.793,482.798L174.793,482.798z"/>
<path d="M347.738,432.229c-0.949,0-1.898-0.102-2.847-0.292c-0.934-0.19-1.856-0.466-2.73-0.831s-1.723-0.819-2.525-1.343
	c-0.805-0.526-1.549-1.139-2.221-1.811c-0.672-0.672-1.285-1.418-1.811-2.221c-0.524-0.788-0.978-1.65-1.343-2.525
	c-0.365-0.878-0.641-1.796-0.831-2.73c-0.191-0.935-0.292-1.898-0.292-2.847c0-0.964,0.101-1.913,0.292-2.862
	c0.19-0.934,0.466-1.854,0.831-2.73c0.365-0.876,0.819-1.723,1.343-2.525c0.526-0.788,1.139-1.535,1.811-2.206
	c3.402-3.402,8.439-4.95,13.185-3.999c0.934,0.19,1.854,0.466,2.73,0.831c0.876,0.365,1.723,0.819,2.525,1.343
	c0.788,0.54,1.533,1.139,2.205,1.825c0.688,0.672,1.286,1.418,1.825,2.206c0.526,0.803,0.978,1.65,1.343,2.525
	c0.365,0.878,0.642,1.796,0.832,2.73c0.19,0.949,0.277,1.898,0.277,2.862c0,0.949-0.089,1.914-0.277,2.847
	c-0.188,0.933-0.467,1.854-0.832,2.73c-0.365,0.876-0.818,1.736-1.343,2.525c-0.539,0.803-1.137,1.549-1.825,2.221
	c-0.672,0.672-1.416,1.285-2.205,1.811c-0.803,0.524-1.65,0.978-2.525,1.343c-0.878,0.365-1.796,0.641-2.73,0.831
	C349.65,432.127,348.702,432.229,347.738,432.229z"/>
<g>
</g>
<g>
</g>
<g>
</g>
<g>
</g>
<g>
</g>
<g>
</g>
<g>
</g>
<g>
</g>
<g>
</g>
<g>
</g>
<g>
</g>
<g>
</g>
<g>
</g>
<g>
</g>
<g>
</g>
</svg>
